<ttFont>
          <CharString index="0" raw="1">
            f803541d fb8540fb 98fb53fb 42e236f7
            2af785d7 f796f753 f74333e1 fb2a1f8a
            3a15e8c2 4ffb0cfb 275ffb71 fb492d55
            c6f70df7 29b8f76f f7481f0b 
          </CharString>
          <CharString index="1" raw="1">
            f8d73e1d 330649fc 68052a7d 5057351b
            3f5fb3d7 a1d0f873 8b1f3306 8b45fc67
            5d1afb0d d74bf717 f71de5dc f72ea11e
            0b   
          </CharString>
          <CharString index="2" raw="1">
            e606fb0d f94205fb 0506fbce fd428c1d
            d0f72d05 f7a70626 f8151595 a19dc18b
            1a8f068b 8c568f74 1ebefbc5 05fb7606
            0e   
          </CharString>
          <CharString index="3" raw="1">
            f90cf8a2 153e06fb 03fbbc05 754f7c9a
            1df08ba3 8a971e7d f7bc0529 062dfbbc
            057a557d 388b1a87 068abc86 c688a86d
            f7bc183c 06c5601d e706ecf7 c0059dc2
            9ade8b1a 8f068b87 55611a7d 8b7c99fb
            cd1ee606 0b  
          </CharString>
          <CharString index="4" raw="1">
            152d0aba afa5c4b1 1f508ca8 73b51ba5
            9f949295 1f93c405 6b067e80 939f1f0b
          </CharString>
          <CharString index="5" raw="1">
            01bee5f7 e6e603f7 f5541dfb 8049fba9
            fb48fb42 e63cf723 f72ce1f7 0af71c9d
            1f340630 7d533a25 1b3059ca f705d5a2
            f7bdf750 e1b45523 1f75e69b 07f73b40
            d9fb221e 0b  
          </CharString>
          <CharString index="6" raw="1">
            5c0a9742 15b9a265 403b6cfb 672c5a72
            b1d7e1a3 f760f61f 0e 
          </CharString>
          <CharString index="7" raw="1">
            12ace476 e6f762e7 54e61300 13eaf7ce
            541dfb1a 3c45fb12 1f13ecfb 5ef7bdb4
            fb2b1a2a 3373551e 13f43957 afdd998d
            9b8e9c1f 3006887b 8b7c7c1a fb14e043
            f717f755 bbf70fe7 1e13ecf7 69fbbe5c
            f7231aea dd95ae1e 13eac3d1 79fb061f
            e606f70d 55e7fb32 1e0b 
          </CharString>
          <CharString index="8" raw="1">
            2f7c503b fb031b23 5acaf705 e4a5f7ae
            f759ecb8 55231f84 e607f73b 3cdafb2d
            fb8946fb a9fb48fb 42e73cf7 23dbc7ad
            c1b51e0e   
          </CharString>
          <CharString index="9" raw="1">
            f777f96f 153b6a4e 4f831f7f 37055d06
            814205b9 0647fc9a 056c8744 1dacc8c7
            931fcff8 9605e606 95d40530 0697e305
            aa8f9e9c aa1bb706 93c40591 7b709173
            1b0b   
          </CharString>
          <CharString index="10" raw="1">
            2f1d3406 7e2c05e2 060b 
          </CharString>
          <CharString index="11" raw="1">
            01d1f8a7 03f8ed3e 1d2f06fb 6afbd205
            8706fb11 f7d2052b 06f739fc 2663fbb0
            05e306b3 f7b0050b  
          </CharString>
          <CharString index="12" raw="1">
            15310635 7a1df700 f715050b 
          </CharString>
          <CharString index="13" raw="1">
            2922fb06 fb85fb1b c34fd80b 
          </CharString>
          <CharString index="14" raw="1">
            2f7c6960 4a1b5671 a8c48d1d 37bd41f7
            00f705cd cef738a2 1ecef871 054a060b
          </CharString>
          <CharString index="15" raw="1">
            018df830 03f832f8 a215fbda 06814205
            f76706fb b0fc3288 6405f7f6 0695d405
            fb8406f7 b1f83305 0b 
          </CharString>
          <CharString index="16" raw="1">
            f76f3e1d 981d0b  
          </CharString>
          <CharString index="17" raw="1">
            7a6c1b5f 06861d85 9ba685a3 1bda0b
          </CharString>
          <CharString index="18" raw="1">
            15bca365 408c1f41 6efb5929 5a70abd0
            de9ff75c f7011eab fc4c150b 
          </CharString>
          <CharString index="19" raw="1">
            350676fb 26055e06 814205b8 068b57fb
            f4711a5e 9f63c89f a491939b 1e93c405
            6e06727f 98a397bd f7eb8b1f d20695d4
            0544060b   
          </CharString>
          <CharString index="20" raw="1">
            1513e874 857c8379 1b13d86c 0a13e85c
            1d13d85d 0a13e8b3 a86cb81b 13d8c5aa
            c5b9921f 0e  
          </CharString>
          <CharString index="21" raw="1">
            15a79474 667b8a79 86681f48 827b5c63
            1b6f81a2 b0b995f7 1dc91f8e c6154146
            50fb4c34 b26ccbf7 0ba3f72b e6e364aa
            4b1f0b   
          </CharString>
          <CharString index="22" raw="1">
            fa07381d 0b  
          </CharString>
          <CharString index="23" raw="1">
            e38bdbf7 87cbf76f db01f86c e603f79d
            168e1d60 fbbf054a 06824b05 cc065efb
            d77b1dac f78705f7 310694cb 05fb3106
            aaf76f05 0e  
          </CharString>
          <CharString index="24" raw="1">
            156e0669 7655796c 87856018 db0666fb
            96053c06 835105f7 6a0693c5 0542060b
          </CharString>
          <CharString index="25" raw="1">
            1531064d 7a1ddff7 1505fb17 8e153106
            4d7a1ddf f715050e  
          </CharString>
          <CharString index="26" raw="1">
            92be056b 066f819e a2aca3ac 9c9c1f0b
          </CharString>
          <CharString index="27" raw="1">
            5b62a7c9 958c968d 961f3606 730a28d5
            4ce6f2cd c6f01e0b  
          </CharString>
          <CharString index="28" raw="1">
            15585b63 515ab068 bcbfbab6 c2bb66af
            5a1f8863 15a59e75 726b7374 6f7178a1
            a4aba2a2 a81f0b  
          </CharString>
          <CharString index="29" raw="1">
            7f4c1d0b   
          </CharString>
          <CharString index="30" raw="1">
            fba70679 9c1df803 0697db05 fc8706fc
            0a431de7 06daf72d 05f7a106 98fb2d05
            f7dd0697 db05fc40 f8521597 a2a3c08b
            1a8f068b 8d568d74 1ea3fbb9 05fb7106
            0e   
          </CharString>
          <CharString index="31" raw="1">
            440ad006 0b  
          </CharString>
          <CharString index="32" raw="1">
            154b4c5d fb028a1f ca068faa 05af909c
            a9ad1ba9 947777fb 04fb4d50 7bfb131f
            887b05f7 770694ca 05fb2606 9ba6a4a1
            a1a008c4 bfc8cad5 1acc5fa5 521e0e
          </CharString>
          <CharString index="33" raw="1">
            6f7d9baa 918b918e 9f1f4b06 89808a7c
            7f1a4eb0 66d1cdc8 bee0b17a a672991e
            0b   
          </CharString>
          <CharString index="34" raw="1">
            1a4eb479 b41e133e 9fa09094 a11f135e
            3a0a0b   
          </CharString>
          <CharString index="35" raw="1">
            ac3c801d 0b  
          </CharString>
          <CharString index="36" raw="1">
            15315a1d 0b  
          </CharString>
          <CharString index="37" raw="1">
            fb33fb1a 69fb3920 da79c8c7 caaabeb2
            1f53a6be 71d3600a 0b 
          </CharString>
          <CharString index="38" raw="1">
            1531791d d106f6f7 15050b 
          </CharString>
          <CharString index="39" raw="1">
            f71a7fdc f8b8dc0b  
          </CharString>
          <CharString index="40" raw="1">
            960aa5f7 4fccc2e3 fb8605e5 06fb0cf7
            caf74ef7 6c052906 fb59fb7e 0b
          </CharString>
          <CharString index="41" raw="1">
            6070775e 5c1a55a8 60d7e1b5 d1d6a880
            a3719c1e 0b  
          </CharString>
          <CharString index="42" raw="1">
            7f481d0b   
          </CharString>
          <CharString index="43" raw="1">
            12e5cb13 0013cc6a 0a13acdf 4b074162
            0ab6f7c4 0513cc72 0a139c97 e00513cc
            8b7b9375 1e0b  
          </CharString>
          <CharString index="44" raw="1">
            aea59fb3 b61ac16b b54a1e88 5115a29a
            7a6e0b   
          </CharString>
          <CharString index="45" raw="1">
            97c8f83d 8b1e4a06 0b 
          </CharString>
          <CharString index="46" raw="1">
            2a1dc3da 661d  
          </CharString>
          <CharString index="47" raw="1">
            4f571d0b   
          </CharString>
          <CharString index="48" raw="1">
            321de306 0b  
          </CharString>
          <CharString index="49" raw="1">
            3e1d7dfb 3f79fb41 7bfb3f08 c906aef7
            49bef7a9 98c4080b  
          </CharString>
          <CharString index="50" raw="1">
            859a9e89 a21be7c5 eaf706bc 1f0b
          </CharString>
          <CharString index="51" raw="1">
            76751d0b   
          </CharString>
          <CharString index="52" raw="1">
            fb7afbf7 15397f4d 63571b63 759dbde8
            dc9cf707 1ff772f7 7615bea5 633e828b
            7d8a7e1f fb5d06d7 9bafd8d4 1b0b
          </CharString>
          <CharString index="53" raw="1">
            fb18050b   
          </CharString>
          <CharString index="54" raw="1">
            511d38fc e3056c88 441dabc8 c7941ff7
            02f9a451 1d7d2996 0a0e 
          </CharString>
          <CharString index="55" raw="1">
            86a2ab88 a71bb4d6 9ad8b069 99648e1f
            0b   
          </CharString>
          <CharString index="56" raw="1">
            f967511d 0b  
          </CharString>
          <CharString index="57" raw="1">
            469f1dae d7050b  
          </CharString>
          <CharString index="58" raw="1">
            f8ae150b   
          </CharString>
          <CharString index="59" raw="1">
            fb4ad3f7 0ad4f814 d47f770b 
          </CharString>
          <CharString index="60" raw="1">
            cc77629f 5b1b0b  
          </CharString>
          <CharString index="61" raw="1">
            a2919a93 9d1b0b  
          </CharString>
          <CharString index="62" raw="1">
            fb1b050b   
          </CharString>
          <CharString index="63" raw="1">
            2f1d3506 7d2c8c1d 0b 
          </CharString>
          <CharString index="64" raw="1">
            1bf704cd e3f19b1f 38064c82 6055501b
            526fb4df 988c9e8d a01ff7b5 0691b18d
            b1ad1a0b   
          </CharString>
          <CharString index="65" raw="1">
            bee5f809 e60b  
          </CharString>
          <CharString index="66" raw="1">
            fca2960a 0b  
          </CharString>
          <CharString index="67" raw="1">
            93c40563 06a7f75e 0570067e 64725b7f
            737e3018 3606abb7 cff706b0 f1080e
          </CharString>
          <CharString index="68" raw="1">
            05ac06a1 94857f73 7b85731f 0b
          </CharString>
          <CharString index="69" raw="1">
            b0b07643 1fe006e0 60db201e 0b
          </CharString>
          <CharString index="70" raw="1">
            f73bf89e 15aeaa82 79a21ffb b8fc5805
            7da783b0 b91af729 b8f76ff7 481e0b
          </CharString>
          <CharString index="71" raw="1">
            8c0a573c 69870a0b  
          </CharString>
          <CharString index="72" raw="1">
            2dfb4acc 6776f950 770b 
          </CharString>
          <CharString index="73" raw="1">
            f726e4fb 0dfb4ffb 4f32fb0d fb26fb26
            32f70df7 4ff74fe4 f70df726 1f0b
          </CharString>
          <CharString index="74" raw="1">
            f7975a0a 4f715363 781f0b 
          </CharString>
          <CharString index="75" raw="1">
            321dda06 0b  
          </CharString>
          <CharString index="76" raw="1">
            636eaa5e 1b0b  
          </CharString>
          <CharString index="77" raw="1">
            e076cb64 b71e5538 159a6f93 665e1afb
            275ffb71 fb49676d 939d731e 0b
          </CharString>
          <CharString index="78" raw="1">
            158b4841 3a1e1358 415cc943 1b2e5441
            8b1f7e2d 058bced5 dc1e0b 
          </CharString>
          <CharString index="79" raw="1">
            fb7bf771 ed018ef7 9d03f7a0 f7d315fb
            90067e29 05f79006 0e 
          </CharString>
          <CharString index="80" raw="1">
            cb6ec9d3 cb5fc983 1d0b 
          </CharString>
          <CharString index="81" raw="1">
            12bde5f8 01e61300 0b 
          </CharString>
          <CharString index="82" raw="1">
            e898bfbb bf1ba606 0b 
          </CharString>
          <CharString index="83" raw="1">
            89808b80 811a0b  
          </CharString>
          <CharString index="84" raw="1">
            ace0f76f e00b  
          </CharString>
          <CharString index="85" raw="1">
            f9672a1d 13d89e0a 13e8661d 
          </CharString>
          <CharString index="86" raw="1">
            87f9abc0 01cff88f 03f8d3f9 e015fc89
            06855605 f888060e  
          </CharString>
          <CharString index="87" raw="1">
            f8231526 067cfb03 05f0060e 
          </CharString>
          <CharString index="88" raw="1">
            321d0e   
          </CharString>
          <CharString index="89" raw="1">
            9b0ac312 0b  
          </CharString>
          <CharString index="90" raw="1">
            f718010b   
          </CharString>
          <CharString index="91" raw="1">
            15bca465 3f3573fb 60205a73 b1d6dba5
            f767f31f 0e  
          </CharString>
          <CharString index="92" raw="1">
            f7a28be5 f895de0b  
          </CharString>
          <CharString index="93" raw="1">
            fb52cc58 be6d760b  
          </CharString>
          <CharString index="94" raw="1">
            76f865d4 7f770b  
          </CharString>
          <CharString index="95" raw="1">
            8b1d7f38 8b0a0e  
          </CharString>
          <CharString index="96" raw="1">
            154206fb 3bfb5cf7 04fb5c05 d20637f7
            5c050e   
          </CharString>
          <CharString index="97" raw="1">
            fb7ba097 0a0b  
          </CharString>
          <CharString index="98" raw="1">
            9b1d1e0b   
          </CharString>
          <CharString index="99" raw="1">
            3c6ada05 0b  
          </CharString>
          <CharString index="100" raw="1">
            03f7df3e 1d330681 fb55fb37 9c7e2ef7
            3b9d0b   
          </CharString>
          <CharString index="101" raw="1">
            3e1d5406 4bfb197d 2805ef06 9af70005
            6a060b   
          </CharString>
          <CharString index="102" raw="1">
            fbb7fb2c 76fa1477 01ceda03 f726f967
            153c0b   
          </CharString>
          <CharString index="103" raw="1">
            da053c8f 0ad8060b  
          </CharString>
          <CharString index="104" raw="1">
            e37fddf8 b7dc0b  
          </CharString>
          <CharString index="105" raw="1">
            fb4ad0f7 1a760b  
          </CharString>
          <CharString index="106" raw="1">
            e38be8f7 ede30b  
          </CharString>
          <CharString index="107" raw="1">
            05f81c06 0b  
          </CharString>
          <CharString index="108" raw="1">
            1538060b   
          </CharString>
          <CharString index="109" raw="1">
            1534060b   
          </CharString>
          <CharString index="110" raw="1">
            f8a75a0a 50607569 6a1faf75 629f4b1b
            0b   
          </CharString>
          <CharString index="111" raw="1">
            06cd5e0a 0b  
          </CharString>
          <CharString index="112" raw="1">
            fd6705dc 060b  
          </CharString>
          <CharString index="113" raw="1">
            48817a5c 5b1b687f a4b4998c 9b90ac1f
            0b   
          </CharString>
          <CharString index="114" raw="1">
            157506fb 52fb5985 610b 
          </CharString>
          <CharString index="115" raw="1">
            130013ec 0b  
          </CharString>
          <CharString index="116" raw="1">
            3e1d3106 72fb3405 d006baf7 31050b
          </CharString>
          <CharString index="117" raw="1">
            e0fb5cfb 22fb5c05 d406f73c f75c050b
          </CharString>
          <CharString index="118" raw="1">
            05dd060b   
          </CharString>
          <CharString index="119" raw="1">
            76f851e8 7f77a377 0b 
          </CharString>
          <CharString index="120" raw="1">
            130013d8 0b  
          </CharString>
          <CharString index="121" raw="1">
            2d7fd3f8 2ad30b  
          </CharString>
          <CharString index="122" raw="1">
            8bdbf8a2 db0b  
          </CharString>
          <CharString index="123" raw="1">
            f71b530b   
          </CharString>
          <CharString index="124" raw="1">
            44cc07fb 02f86515 bca36540 1f0b
          </CharString>
          <CharString index="125" raw="1">
            0657fb10 05c306cb f719050e 
          </CharString>
          <CharString index="126" raw="1">
            c3da050b   
          </CharString>
          <CharString index="127" raw="1">
            15595a63 511f13fe 5ab068bd 0b
          </CharString>
          <CharString index="128" raw="1">
            03f9a7f8 3e156006 b3fb1d05 0b
          </CharString>
          <CharString index="129" raw="1">
            f9d33d1d 0b  
          </CharString>
          <CharString index="130" raw="1">
            f7c0f8ae a71d0b  
          </CharString>
          <CharString index="131" raw="1">
            157e31f7 b5fb34fb e2fb340b 
          </CharString>
          <CharString index="132" raw="1">
            0663fb47 05d706b3 f747050b 
          </CharString>
          <CharString index="133" raw="1">
            1527067b fb0005ef 060e 
          </CharString>
          <CharString index="134" raw="1">
            76f7c3db f773db0b  
          </CharString>
          <CharString index="135" raw="1">
            7fd44ec8 f828d40b  
          </CharString>
          <CharString index="136" raw="1">
            76f865d4 f74d770b  
          </CharString>
          <CharString index="137" raw="1">
            30b86dd2 f710a4f7 24eb0b 
          </CharString>
          <CharString index="138" raw="1">
            15fc5b06 835605f8 5b060b 
          </CharString>
          <CharString index="139" raw="1">
            8c0a5683 0a3c060b  
          </CharString>
          <CharString index="140" raw="1">
            8b1ab691 b399bc1b 0e 
          </CharString>
        <CharString name=".notdef">
          -276 0 50 600 50 hstem
          -49 598 vstem
          549 700 rmoveto
          -500 hlineto
          -98 -700 rlineto
          499 hlineto
          -207 305 rmoveto
          134 -255 rlineto
          -340 hlineto
          425 600 rmoveto
          -206 -255 -134 255 rlineto
          -37 -45 rmoveto
          135 -255 -206 -255 rlineto
          471 510 rmoveto
          -71 -510 -134 255 rlineto
          endchar
        </CharString>
        <CharString name="A">
          43 21 -21 153 80 381 72 hstem
          -36 548 vstem
          421 hmoveto
          91 hlineto
          -121 686 rlineto
          -113 hlineto
          -314 -686 rlineto
          87 hlineto
          69 153 rlineto
          275 hlineto
          -101 385 rmoveto
          10 22 18 54 0 vvcurveto
          4 hlineto
          0 1 -53 4 -23 vhcurveto
          51 -305 rlineto
          -226 hlineto
          endchar
        </CharString>
        <CharString name="AE">
          316 0 80 73 80 78 80 215 80 hstemhm
          -43 873 -467 97 hintmask 11111000
          495 80 rmoveto
          -20 231 rlineto
          258 hlineto
          11 80 rlineto
          hintmask 11110100
          -275 hlineto
          -18 215 rlineto
          367 hlineto
          12 80 rlineto
          -499 hlineto
          -374 -686 rlineto
          92 hlineto
          79 153 rlineto
          269 hlineto
          13 -153 rlineto
          329 hlineto
          12 80 rlineto
          -428 446 rmoveto
          12 23 24 53 0 vvcurveto
          4 hlineto
          0 2 -53 2 -23 vhcurveto
          24 -293 rlineto
          -221 hlineto
          endchar
        </CharString>
        <CharString name="AEacute">
          316 0 80 73 80 78 80 215 80 65 132 hstemhm
          -43 873 -467 97 hintmask 11111100
          533 883 rmoveto
          -91 hlineto
          -86 -132 rlineto
          70 hlineto
          108 129 rlineto
          -39 -800 rmoveto
          -20 231 rlineto
          258 hlineto
          11 80 rlineto
          hintmask 11111010
          -275 hlineto
          -18 215 rlineto
          367 hlineto
          12 80 rlineto
          -499 hlineto
          -374 -686 rlineto
          92 hlineto
          79 153 rlineto
          269 hlineto
          13 -153 rlineto
          329 hlineto
          12 80 rlineto
          -428 446 rmoveto
          12 23 24 53 0 vvcurveto
          4 hlineto
          0 2 -53 2 -23 vhcurveto
          24 -293 rlineto
          -221 hlineto
          endchar
        </CharString>
        <CharString name="Aacute">
          43 21 -21 153 80 381 72 65 132 hstem
          -36 548 vstem
          469 883 rmoveto
          -91 hlineto
          -86 -132 rlineto
          70 hlineto
          108 129 rlineto
          -49 -880 rmoveto
          91 hlineto
          -121 686 rlineto
          -113 hlineto
          -314 -686 rlineto
          87 hlineto
          69 153 rlineto
          275 hlineto
          -101 385 rmoveto
          10 22 18 54 0 vvcurveto
          4 hlineto
          0 1 -53 4 -23 vhcurveto
          51 -305 rlineto
          -226 hlineto
          endchar
        </CharString>
        <CharString name="Abreve">
          43 21 -21 153 80 381 72 100 64 hstem
          -36 548 vstem
          423 883 rmoveto
          -14 -4 -26 -19 -34 hhcurveto
          -33 -21 19 14 -1 hvcurveto
          -64 hlineto
          -1 -3 0 -3 -3 vvcurveto
          -43 42 -45 74 74 52 52 45 6 vhcurveto
          -66 -883 rmoveto
          91 hlineto
          -121 686 rlineto
          -113 hlineto
          -314 -686 rlineto
          87 hlineto
          69 153 rlineto
          275 hlineto
          -101 385 rmoveto
          10 22 18 54 0 vvcurveto
          4 hlineto
          0 1 -53 4 -23 vhcurveto
          51 -305 rlineto
          -226 hlineto
          endchar
        </CharString>
        <CharString name="Acircumflex">
          43 21 -21 153 80 381 72 62 135 hstem
          -36 548 vstem
          399 883 rmoveto
          -78 hlineto
          -105 -135 rlineto
          83 hlineto
          56 79 33 -79 rlineto
          77 hlineto
          -44 -748 rmoveto
          91 hlineto
          -121 686 rlineto
          -113 hlineto
          -314 -686 rlineto
          87 hlineto
          69 153 rlineto
          275 hlineto
          -101 385 rmoveto
          10 22 18 54 0 vvcurveto
          4 hlineto
          0 1 -53 4 -23 vhcurveto
          51 -305 rlineto
          -226 hlineto
          endchar
        </CharString>
        <CharString name="Adieresis">
          43 21 -21 153 80 381 72 102 95 hstem
          -36 548 vstem
          421 hmoveto
          91 hlineto
          -121 686 rlineto
          -113 hlineto
          -314 -686 rlineto
          87 hlineto
          69 153 rlineto
          275 hlineto
          -101 385 rmoveto
          10 22 18 54 0 vvcurveto
          4 hlineto
          0 1 -53 4 -23 vhcurveto
          51 -305 rlineto
          -226 hlineto
          327 650 rmoveto
          -87 hlineto
          -13 -95 rlineto
          87 hlineto
          -137 95 rmoveto
          -86 hlineto
          -14 -95 rlineto
          87 hlineto
          endchar
        </CharString>
        <CharString name="Agrave">
          43 21 -21 153 80 381 72 65 132 hstem
          -36 548 vstem
          337 883 rmoveto
          -89 hlineto
          -2 -3 89 -129 rlineto
          70 hlineto
          16 -751 rmoveto
          91 hlineto
          -121 686 rlineto
          -113 hlineto
          -314 -686 rlineto
          87 hlineto
          69 153 rlineto
          275 hlineto
          -101 385 rmoveto
          10 22 18 54 0 vvcurveto
          4 hlineto
          0 1 -53 4 -23 vhcurveto
          51 -305 rlineto
          -226 hlineto
          endchar
        </CharString>
        <CharString name="Amacron">
          43 21 -21 153 80 381 72 73 72 hstem
          -36 548 vstem
          478 831 rmoveto
          -250 hlineto
          -11 -72 rlineto
          250 hlineto
          -46 -759 rmoveto
          91 hlineto
          -121 686 rlineto
          -113 hlineto
          -314 -686 rlineto
          87 hlineto
          69 153 rlineto
          275 hlineto
          -101 385 rmoveto
          10 22 18 54 0 vvcurveto
          4 hlineto
          0 1 -53 4 -23 vhcurveto
          51 -305 rlineto
          -226 hlineto
          endchar
        </CharString>
        <CharString name="Aogonek">
          43 -190 65 -51 51 -30 -21 197 -21 153 80 381 72 hstemhm
          389 82 hintmask 01011110
          542 -125 rmoveto
          -33 hlineto
          -28 -10 19 23 33 24 33 17 17 hvcurveto
          -121 686 rlineto
          -113 hlineto
          -314 -686 rlineto
          87 hlineto
          69 153 rlineto
          275 hlineto
          26 -153 rlineto
          26 hlineto
          hintmask 10011110
          -29 -26 -29 -33 -52 vvcurveto
          -61 41 -18 41 vhcurveto
          hintmask 00111110
          20 21 5 9 22 hvcurveto
          -152 409 rmoveto
          -226 hlineto
          138 305 rlineto
          10 22 18 54 0 vvcurveto
          4 hlineto
          0 1 -53 4 -23 vhcurveto
          endchar
        </CharString>
        <CharString name="Aring">
          43 21 -21 153 80 381 72 29 40 102 40 hstemhm
          259 45 96 44 hintmask 11101110
          358 897 rmoveto
          -50 -49 -40 -58 hvcurveto
          hintmask 11111110
          -49 37 -35 50 51 47 43 55 vhcurveto
          hintmask 11101110
          48 -36 36 -50 vhcurveto
          -3 -40 rmoveto
          26 19 -22 -25 hvcurveto
          hintmask 11111110
          -32 -24 -23 -27 -27 -18 22 25 vhcurveto
          hintmask 11101110
          32 23 23 28 vhcurveto
          66 -857 rmoveto
          91 hlineto
          -121 686 rlineto
          -113 hlineto
          -314 -686 rlineto
          87 hlineto
          69 153 rlineto
          275 hlineto
          -101 385 rmoveto
          10 22 18 54 0 vvcurveto
          4 hlineto
          0 1 -53 4 -23 vhcurveto
          51 -305 rlineto
          -226 hlineto
          endchar
        </CharString>
        <CharString name="Aringacute">
          43 21 -21 153 80 548 40 27 109 hstemhm
          243 45 96 44 hintmask 11101100
          512 hmoveto
          -117 665 rlineto
          20 17 13 26 29 vvcurveto
          48 -36 36 -50 -50 -49 -40 -58 -24 9 -21 16 -15 vhcurveto
          -304 -663 rlineto
          87 hlineto
          69 153 rlineto
          275 hlineto
          26 -153 rlineto
          -82 781 rmoveto
          26 19 -22 -25 -32 -24 -23 -27 -27 -18 22 25 32 23 23 28 hvcurveto
          43 -548 rmoveto
          -226 hlineto
          138 305 rlineto
          10 22 18 54 0 vvcurveto
          4 hlineto
          0 1 -53 4 -23 vhcurveto
          hintmask 11111100
          77 310 rmoveto
          92 106 -1 3 rlineto
          -90 hlineto
          -71 -109 rlineto
          endchar
        </CharString>
        <CharString name="Atilde">
          43 21 -21 153 80 381 72 93 73 -42 73 hstemhm
          -36 548 hintmask 11101100
          449 883 rmoveto
          hintmask 11110100
          -23 -6 -15 -8 -18 hhcurveto
          hintmask 11101100
          -40 -29 31 -45 hhcurveto
          hintmask 11110100
          -58 -30 -58 -46 -7 hvcurveto
          57 hlineto
          hintmask 11101100
          23 6 15 8 18 hhcurveto
          hintmask 11110100
          40 29 -31 45 hhcurveto
          hintmask 11101100
          58 31 58 46 7 hvcurveto
          -86 -883 rmoveto
          91 hlineto
          -121 686 rlineto
          -113 hlineto
          -314 -686 rlineto
          87 hlineto
          69 153 rlineto
          275 hlineto
          -101 385 rmoveto
          10 22 18 54 0 vvcurveto
          4 hlineto
          0 1 -53 4 -23 vhcurveto
          51 -305 rlineto
          -226 hlineto
          endchar
        </CharString>
        <CharString name="B">
          43 0 80 231 80 215 80 hstemhm
          415 91 -64 95 hintmask 11110000
          34 hmoveto
          259 hlineto
          107 106 77 129 76 -41 54 -58 20 hvcurveto
          1 4 rlineto
          hintmask 11101000
          68 23 61 68 90 vvcurveto
          88 -66 57 -99 vhcurveto
          -241 hlineto
          180 -375 rmoveto
          hintmask 11110000
          66 38 -48 -57 -81 -60 -45 -62 hvcurveto
          -159 hlineto
          32 231 rlineto
          174 295 rmoveto
          hintmask 11101000
          62 40 -28 -60 -65 -50 -62 -78 hvcurveto
          -137 hlineto
          30 215 rlineto
          endchar
        </CharString>
        <CharString name="C">
          88 -12 82 547 81 hstem
          51 90 338 91 vstem
          353 698 rmoveto
          -236 -66 -277 -180 -174 91 -79 143 152 86 118 136 18 hvcurveto
          -87 hlineto
          -91 -14 -56 -81 -102 hhcurveto
          -91 -50 63 113 74 23 297 188 86 41 -54 -104 hvcurveto
          -22 91 16 vlineto
          167 -75 78 -142 vhcurveto
          endchar
        </CharString>
        <CharString name="CR">
          -504 endchar
        </CharString>
        <CharString name="Cacute">
          88 -12 82 547 81 53 132 hstem
          51 90 338 91 vstem
          353 698 rmoveto
          -236 -66 -277 -180 -174 91 -79 143 152 86 118 136 18 hvcurveto
          -87 hlineto
          -91 -14 -56 -81 -102 hhcurveto
          -91 -50 63 113 74 23 297 188 86 41 -54 -104 hvcurveto
          -22 91 16 vlineto
          167 -75 78 -142 vhcurveto
          131 185 rmoveto
          -90 hlineto
          -86 -132 rlineto
          69 hlineto
          108 129 rlineto
          endchar
        </CharString>
        <CharString name="Ccaron">
          88 -12 82 547 81 50 135 hstem
          51 90 338 91 vstem
          353 698 rmoveto
          -236 -66 -277 -180 -174 91 -79 143 152 86 118 136 18 hvcurveto
          -87 hlineto
          -91 -14 -56 -81 -102 hhcurveto
          -91 -50 63 113 74 23 297 188 86 41 -54 -104 hvcurveto
          -22 91 16 vlineto
          167 -75 78 -142 vhcurveto
          148 185 rmoveto
          -83 hlineto
          -52 -79 -33 79 rlineto
          -80 hlineto
          66 -135 rlineto
          77 hlineto
          endchar
        </CharString>
        <CharString name="Ccedilla">
          88 -182 57 -28 -21 97 41 24 82 -56 -21 624 81 hstemhm
          51 90 129 76 133 91 hintmask 1001011110000000
          479 437 rmoveto
          91 16 hlineto
          167 -75 78 -142 -236 -66 -277 -180 vhcurveto
          hintmask 1000111110000000
          -149 67 -79 108 -20 vhcurveto
          hintmask 1011011110000000
          -20 -70 rlineto
          33 hlineto
          22 9 -6 -12 -24 -17 -6 -24 hvcurveto
          -76 hlineto
          hintmask 0101011110000000
          -7 -49 rlineto
          hintmask 1011011110000000
          -5 23 33 -3 27 hhcurveto
          42 75 15 77 37 -34 14 -40 3 hvcurveto
          hintmask 1001011110000000
          8 24 rlineto
          5 hlineto
          152 86 118 136 18 hvcurveto
          -87 hlineto
          -91 -14 -56 -81 -102 hhcurveto
          -91 -50 63 113 74 23 297 188 86 41 -54 -104 hvcurveto
          endchar
        </CharString>
        <CharString name="Ccircumflex">
          88 -12 82 547 81 50 135 hstem
          51 90 338 91 vstem
          353 698 rmoveto
          -236 -66 -277 -180 -174 91 -79 143 152 86 118 136 18 hvcurveto
          -87 hlineto
          -91 -14 -56 -81 -102 hhcurveto
          -91 -50 63 113 74 23 297 188 86 41 -54 -104 hvcurveto
          -22 91 16 vlineto
          167 -75 78 -142 vhcurveto
          62 185 rmoveto
          -79 hlineto
          -105 -135 rlineto
          83 hlineto
          57 79 32 -79 rlineto
          77 hlineto
          endchar
        </CharString>
        <CharString name="Cdotaccent">
          88 -12 82 547 81 90 95 hstem
          51 90 338 91 vstem
          353 698 rmoveto
          -236 -66 -277 -180 -174 91 -79 143 152 86 118 136 18 hvcurveto
          -87 hlineto
          -91 -14 -56 -81 -102 hhcurveto
          -91 -50 63 113 74 23 297 188 86 41 -54 -104 hvcurveto
          -22 91 16 vlineto
          167 -75 78 -142 vhcurveto
          69 185 rmoveto
          -87 hlineto
          -13 -95 rlineto
          87 hlineto
          endchar
        </CharString>
        <CharString name="D">
          88 0 80 526 80 hstem
          472 91 vstem
          265 hmoveto
          219 79 251 178 171 -84 86 -145 hvcurveto
          -203 hlineto
          -97 -686 rlineto
          290 606 rmoveto
          93 55 -58 -120 -140 -45 -208 -172 hvcurveto
          -121 hlineto
          73 526 rlineto
          endchar
        </CharString>
        <CharString name="Dcaron">
          88 0 80 526 80 62 135 hstem
          472 91 vstem
          475 883 rmoveto
          -83 hlineto
          -53 -79 -33 79 rlineto
          -80 hlineto
          66 -135 rlineto
          78 hlineto
          -105 -748 rmoveto
          219 79 251 178 171 -84 86 -145 hvcurveto
          -203 hlineto
          -97 -686 rlineto
          290 606 rmoveto
          93 55 -58 -120 -140 -45 -208 -172 hvcurveto
          -121 hlineto
          73 526 rlineto
          endchar
        </CharString>
        <CharString name="Dcroat">
          88 0 80 243 64 219 80 hstem
          472 91 vstem
          265 hmoveto
          219 79 251 178 171 -84 86 -145 hvcurveto
          -203 hlineto
          -43 -299 rlineto
          -65 hlineto
          -9 -64 rlineto
          65 hlineto
          -45 -323 rlineto
          290 606 rmoveto
          93 55 -58 -120 -140 -45 -208 -172 hvcurveto
          -121 hlineto
          33 243 rlineto
          157 hlineto
          9 64 rlineto
          -157 hlineto
          31 219 rlineto
          endchar
        </CharString>
        <CharString name="Delta">
          46 0 84 506 96 hstem
          5 536 vstem
          422 686 rmoveto
          -113 hlineto
          -300 -648 -4 -38 rlineto
          531 hlineto
          5 38 rlineto
          -190 552 rmoveto
          89 -506 rlineto
          -322 hlineto
          229 506 rlineto
          endchar
        </CharString>
        <CharString name="E">
          43 0 80 231 80 215 80 hstem
          34 520 vstem
          463 hmoveto
          12 80 rlineto
          -341 hlineto
          32 231 rlineto
          291 hlineto
          11 80 rlineto
          -291 hlineto
          30 215 rlineto
          335 hlineto
          12 80 rlineto
          -423 hlineto
          -97 -686 rlineto
          endchar
        </CharString>
        <CharString name="Eacute">
          43 0 80 231 80 215 80 65 132 hstem
          34 520 vstem
          459 883 rmoveto
          -90 hlineto
          -86 -132 rlineto
          70 hlineto
          107 129 rlineto
          3 -880 rmoveto
          12 80 rlineto
          -341 hlineto
          32 231 rlineto
          291 hlineto
          11 80 rlineto
          -291 hlineto
          30 215 rlineto
          335 hlineto
          12 80 rlineto
          -423 hlineto
          -97 -686 rlineto
          endchar
        </CharString>
        <CharString name="Ebreve">
          43 0 80 231 80 215 80 100 64 hstem
          34 520 vstem
          414 883 rmoveto
          -14 -4 -26 -19 -34 hhcurveto
          -33 -21 19 14 -1 hvcurveto
          -64 hlineto
          -1 -3 0 -3 -3 vvcurveto
          -43 42 -45 74 74 52 52 45 6 vhcurveto
          -15 -883 rmoveto
          12 80 rlineto
          -341 hlineto
          32 231 rlineto
          291 hlineto
          11 80 rlineto
          -291 hlineto
          30 215 rlineto
          335 hlineto
          12 80 rlineto
          -423 hlineto
          -97 -686 rlineto
          endchar
        </CharString>
        <CharString name="Ecaron">
          43 0 80 231 80 215 80 62 135 hstem
          34 520 vstem
          477 883 rmoveto
          -83 hlineto
          -53 -79 -33 79 rlineto
          -79 hlineto
          65 -135 rlineto
          78 hlineto
          91 -748 rmoveto
          12 80 rlineto
          -341 hlineto
          32 231 rlineto
          291 hlineto
          11 80 rlineto
          -291 hlineto
          30 215 rlineto
          335 hlineto
          12 80 rlineto
          -423 hlineto
          -97 -686 rlineto
          endchar
        </CharString>
        <CharString name="Ecircumflex">
          43 0 80 231 80 215 80 62 135 hstem
          34 520 vstem
          390 883 rmoveto
          -78 hlineto
          -105 -135 rlineto
          83 hlineto
          56 79 33 -79 rlineto
          77 hlineto
          7 -748 rmoveto
          12 80 rlineto
          -341 hlineto
          32 231 rlineto
          291 hlineto
          11 80 rlineto
          -291 hlineto
          30 215 rlineto
          335 hlineto
          12 80 rlineto
          -423 hlineto
          -97 -686 rlineto
          endchar
        </CharString>
        <CharString name="Edieresis">
          43 0 80 231 80 215 80 102 95 hstem
          34 520 vstem
          474 883 rmoveto
          -87 hlineto
          -13 -95 rlineto
          87 hlineto
          -137 95 rmoveto
          -87 hlineto
          -13 -95 rlineto
          87 hlineto
          152 -788 rmoveto
          12 80 rlineto
          -341 hlineto
          32 231 rlineto
          291 hlineto
          11 80 rlineto
          -291 hlineto
          30 215 rlineto
          335 hlineto
          12 80 rlineto
          -423 hlineto
          -97 -686 rlineto
          endchar
        </CharString>
        <CharString name="Edotaccent">
          43 0 80 231 80 215 80 102 95 hstem
          34 520 vstem
          398 883 rmoveto
          -87 hlineto
          -13 -95 rlineto
          87 hlineto
          78 -788 rmoveto
          12 80 rlineto
          -341 hlineto
          32 231 rlineto
          291 hlineto
          11 80 rlineto
          -291 hlineto
          30 215 rlineto
          335 hlineto
          12 80 rlineto
          -423 hlineto
          -97 -686 rlineto
          endchar
        </CharString>
        <CharString name="Egrave">
          43 0 80 231 80 215 80 65 132 hstem
          34 520 vstem
          328 883 rmoveto
          -90 hlineto
          -2 -3 90 -129 rlineto
          70 hlineto
          67 -751 rmoveto
          12 80 rlineto
          -341 hlineto
          32 231 rlineto
          291 hlineto
          11 80 rlineto
          -291 hlineto
          30 215 rlineto
          335 hlineto
          12 80 rlineto
          -423 hlineto
          -97 -686 rlineto
          endchar
        </CharString>
        <CharString name="Emacron">
          43 0 80 231 80 215 80 73 72 hstem
          34 520 vstem
          469 831 rmoveto
          -250 hlineto
          -11 -72 rlineto
          250 hlineto
          5 -759 rmoveto
          12 80 rlineto
          -341 hlineto
          32 231 rlineto
          291 hlineto
          11 80 rlineto
          -291 hlineto
          30 215 rlineto
          335 hlineto
          12 80 rlineto
          -423 hlineto
          -97 -686 rlineto
          endchar
        </CharString>
        <CharString name="Eng">
          89 -182 69 134 -21 686 -20 hstem
          33 549 vstem
          582 686 rmoveto
          -79 hlineto
          -61 -431 rlineto
          -3 -22 -7 -69 0 vvcurveto
          -3 -1 rlineto
          0 -21 66 -11 26 vhcurveto
          -195 431 rlineto
          -72 hlineto
          -97 -686 rlineto
          79 hlineto
          62 437 rlineto
          4 28 5 63 0 vvcurveto
          3 1 rlineto
          0 20 -63 13 -29 vhcurveto
          187 -416 -12 -86 rlineto
          -31 -4 -17 -17 -31 hhcurveto
          -44 hlineto
          -8 -57 rlineto
          -6 16 27 -6 24 hhcurveto
          79 32 61 60 9 hvcurveto
          endchar
        </CharString>
        <CharString name="Eogonek">
          43 -190 65 -51 51 -30 -21 176 80 231 80 215 80 hstemhm
          340 82 hintmask 00111110
          207 606 rmoveto
          335 hlineto
          12 80 rlineto
          -423 hlineto
          -97 -686 rlineto
          364 hlineto
          hintmask 10011110
          -29 -26 -29 -33 -52 vvcurveto
          -61 41 -18 41 vhcurveto
          hintmask 00111110
          20 21 5 9 22 hvcurveto
          hintmask 01011110
          7 51 rlineto
          -32 hlineto
          -28 -10 19 23 33 24 33 17 17 hvcurveto
          12 80 rlineto
          -341 hlineto
          32 231 rlineto
          291 hlineto
          11 80 rlineto
          -291 hlineto
          endchar
        </CharString>
        <CharString name="Eth">
          88 0 80 243 64 219 80 hstem
          472 91 vstem
          265 hmoveto
          219 79 251 178 171 -84 86 -145 hvcurveto
          -203 hlineto
          -43 -299 rlineto
          -65 hlineto
          -9 -64 rlineto
          65 hlineto
          -45 -323 rlineto
          290 606 rmoveto
          93 55 -58 -120 -140 -45 -208 -172 hvcurveto
          -121 hlineto
          33 243 rlineto
          157 hlineto
          9 64 rlineto
          -157 hlineto
          31 219 rlineto
          endchar
        </CharString>
        <CharString name="Euro">
          -48 -12 73 182 65 70 65 182 73 -10 -20 hstemhm
          67 85 -82 83 hintmask 11110100
          409 698 rmoveto
          hintmask 11110010
          -166 -97 -92 -163 -50 hvcurveto
          -63 hlineto
          -10 -65 rlineto
          56 hlineto
          -2 -12 -2 -11 -1 -12 rrcurveto
          -2 -12 -2 -12 -11 vvcurveto
          hintmask 11110100
          -56 hlineto
          -10 -65 rlineto
          63 hlineto
          -163 6 86 -92 151 hhcurveto
          23 22 4 6 23 hvcurveto
          10 71 rlineto
          -5 -19 -18 -3 -19 hhcurveto
          -105 -64 57 125 -11 hvcurveto
          202 hlineto
          10 65 rlineto
          -211 hlineto
          11 2 12 2 12 vhcurveto
          1 12 2 11 2 12 rrcurveto
          211 hlineto
          10 65 rlineto
          -202 hlineto
          125 45 79 57 106 hhcurveto
          19 18 -3 -5 17 hvcurveto
          hintmask 11101100
          10 71 rlineto
          hintmask 11110100
          7 -21 -22 3 -23 hhcurveto
          endchar
        </CharString>
        <CharString name="F">
          -3 21 -21 304 80 222 80 hstem
          34 493 vstem
          122 hmoveto
          43 304 rlineto
          272 hlineto
          11 80 rlineto
          -272 hlineto
          31 222 rlineto
          308 hlineto
          12 80 rlineto
          -396 hlineto
          -97 -686 rlineto
          endchar
        </CharString>
        <CharString name="G">
          134 -12 82 -49 -21 280 77 260 81 hstemhm
          50 90 365 91 hintmask 01111100
          475 hmoveto
          58 hlineto
          51 357 rlineto
          -269 hlineto
          -11 -77 rlineto
          180 hlineto
          -6 -38 rlineto
          hintmask 10111100
          -92 -15 -59 -80 -111 hhcurveto
          -104 -49 63 113 89 26 282 197 97 45 -54 -104 hvcurveto
          -7 91 vlineto
          167 -79 79 -153 -245 -69 -277 -180 -174 92 -79 143 80 60 34 54 42 vhcurveto
          endchar
        </CharString>
        <CharString name="Gbreve">
          134 -12 82 -49 -21 280 77 260 81 88 64 hstemhm
          50 90 365 91 hintmask 10111110
          457 883 rmoveto
          -14 -4 -26 -19 -34 hhcurveto
          -33 -21 19 14 -1 hvcurveto
          -64 hlineto
          -1 -3 0 -3 -3 vvcurveto
          -43 42 -45 74 74 52 52 45 6 vhcurveto
          hintmask 01111110
          -46 -883 rmoveto
          58 hlineto
          51 357 rlineto
          -269 hlineto
          -11 -77 rlineto
          180 hlineto
          -6 -38 rlineto
          hintmask 10111110
          -92 -15 -59 -80 -111 hhcurveto
          -104 -49 63 113 89 26 282 197 97 45 -54 -104 hvcurveto
          -7 91 vlineto
          167 -79 79 -153 -245 -69 -277 -180 -174 92 -79 143 80 60 34 54 42 vhcurveto
          endchar
        </CharString>
        <CharString name="Gcircumflex">
          134 -12 82 -49 -21 280 77 260 81 50 135 hstemhm
          50 90 365 91 hintmask 10111110
          433 883 rmoveto
          -78 hlineto
          -105 -135 rlineto
          83 hlineto
          56 79 33 -79 rlineto
          77 hlineto
          hintmask 01111110
          -24 -748 rmoveto
          58 hlineto
          51 357 rlineto
          -269 hlineto
          -11 -77 rlineto
          180 hlineto
          -6 -38 rlineto
          hintmask 10111110
          -92 -15 -59 -80 -111 hhcurveto
          -104 -49 63 113 89 26 282 197 97 45 -54 -104 hvcurveto
          -7 91 vlineto
          167 -79 79 -153 -245 -69 -277 -180 -174 92 -79 143 80 60 34 54 42 vhcurveto
          endchar
        </CharString>
        <CharString name="Gcommaaccent">
          134 -151 91 48 82 -49 -21 280 77 260 81 hstemhm
          50 90 365 91 hintmask 11011110
          332 -60 rmoveto
          -85 hlineto
          -14 -91 rlineto
          35 hlineto
          -32 -69 rlineto
          48 hlineto
          35 76 rlineto
          hintmask 10111110
          156 144 rmoveto
          58 hlineto
          51 357 rlineto
          -269 hlineto
          -11 -77 rlineto
          180 hlineto
          -6 -38 rlineto
          hintmask 11011110
          -92 -15 -59 -80 -111 hhcurveto
          -104 -49 63 113 89 26 282 197 97 45 -54 -104 hvcurveto
          -7 91 vlineto
          167 -79 79 -153 -245 -69 -277 -180 -174 92 -79 143 80 60 34 54 42 vhcurveto
          endchar
        </CharString>
        <CharString name="Gdotaccent">
          134 -12 82 -49 -21 280 77 260 81 90 95 hstemhm
          50 90 365 91 hintmask 10111110
          441 883 rmoveto
          -87 hlineto
          -13 -95 rlineto
          87 hlineto
          hintmask 01111110
          47 -788 rmoveto
          58 hlineto
          51 357 rlineto
          -269 hlineto
          -11 -77 rlineto
          180 hlineto
          -6 -38 rlineto
          hintmask 10111110
          -92 -15 -59 -80 -111 hhcurveto
          -104 -49 63 113 89 26 282 197 97 45 -54 -104 hvcurveto
          -7 91 vlineto
          167 -79 79 -153 -245 -69 -277 -180 -174 92 -79 143 80 60 34 54 42 vhcurveto
          endchar
        </CharString>
        <CharString name="H">
          88 21 -21 311 80 295 -20 hstem
          34 549 vstem
          583 686 rmoveto
          -88 hlineto
          -42 -295 rlineto
          -276 hlineto
          42 295 rlineto
          -88 hlineto
          -97 -686 rlineto
          88 hlineto
          44 311 rlineto
          276 hlineto
          -44 -311 rlineto
          88 hlineto
          endchar
        </CharString>
        <CharString name="Hbar">
          88 21 -21 306 80 104 72 -72 196 hstemhm
          34 585 hintmask 11101000
          608 490 rmoveto
          11 72 rlineto
          -54 hlineto
          hintmask 11011000
          18 124 rlineto
          -88 hlineto
          hintmask 11101000
          -17 -124 rlineto
          -276 hlineto
          hintmask 11011000
          17 124 rlineto
          -88 hlineto
          hintmask 11101000
          -18 -124 rlineto
          -56 hlineto
          -11 -72 rlineto
          57 hlineto
          -69 -490 rlineto
          88 hlineto
          44 306 rlineto
          275 hlineto
          -43 -306 rlineto
          88 hlineto
          69 490 rlineto
          -87 hmoveto
          -14 -104 rlineto
          -276 hlineto
          14 104 rlineto
          endchar
        </CharString>
        <CharString name="Hcircumflex">
          88 21 -21 311 80 295 -20 82 135 hstem
          34 549 vstem
          419 883 rmoveto
          -78 hlineto
          -105 -135 rlineto
          83 hlineto
          56 79 33 -79 rlineto
          77 hlineto
          98 -62 rmoveto
          -88 hlineto
          -42 -295 rlineto
          -276 hlineto
          42 295 rlineto
          -88 hlineto
          -97 -686 rlineto
          88 hlineto
          44 311 rlineto
          276 hlineto
          -44 -311 rlineto
          88 hlineto
          endchar
        </CharString>
        <CharString name="I">
          -276 21 -21 686 -20 hstem
          34 185 vstem
          219 686 rmoveto
          -88 hlineto
          -97 -686 rlineto
          88 hlineto
          endchar
        </CharString>
        <CharString name="IJ">
          134 -12 81 -48 -21 686 -20 hstemhm
          227 87 hintmask 10110000
          219 686 rmoveto
          -88 hlineto
          hintmask 01110000
          -97 -686 rlineto
          88 hlineto
          513 686 rmoveto
          -88 hlineto
          hintmask 10110000
          -75 -528 rlineto
          -58 -8 -32 -31 -50 hhcurveto
          -44 -24 23 45 7 1 7 8 57 hvcurveto
          -87 hlineto
          -8 -59 -1 -13 -12 vvcurveto
          -89 55 -47 98 100 65 61 114 16 vhcurveto
          endchar
        </CharString>
        <CharString name="Iacute">
          -276 21 -21 686 -20 85 132 hstem
          34 276 vstem
          219 686 rmoveto
          -88 hlineto
          -97 -686 rlineto
          88 hlineto
          187 883 rmoveto
          -91 hlineto
          -86 -132 rlineto
          70 hlineto
          108 129 rlineto
          endchar
        </CharString>
        <CharString name="Ibreve">
          -276 21 -21 686 -20 120 64 hstem
          34 293 vstem
          219 686 rmoveto
          -88 hlineto
          -97 -686 rlineto
          88 hlineto
          141 883 rmoveto
          -14 -4 -26 -19 -34 hhcurveto
          -33 -21 19 14 -1 hvcurveto
          -64 hlineto
          -1 -3 0 -3 -3 vvcurveto
          -43 42 -45 74 74 52 52 45 6 vhcurveto
          endchar
        </CharString>
        <CharString name="Icircumflex">
          -276 21 -21 686 -20 82 135 hstem
          34 271 vstem
          219 686 rmoveto
          -88 hlineto
          -97 -686 rlineto
          88 hlineto
          117 883 rmoveto
          -78 hlineto
          -105 -135 rlineto
          83 hlineto
          56 79 33 -79 rlineto
          77 hlineto
          endchar
        </CharString>
        <CharString name="Idieresis">
          -276 21 -21 686 -20 122 95 hstem
          34 289 vstem
          219 686 rmoveto
          -88 hlineto
          -97 -686 rlineto
          88 hlineto
          201 883 rmoveto
          -87 hlineto
          -13 -95 rlineto
          87 hlineto
          -137 95 rmoveto
          -87 hlineto
          -13 -95 rlineto
          87 hlineto
          endchar
        </CharString>
        <CharString name="Idotaccent">
          -276 21 -21 686 -20 122 95 hstem
          34 213 vstem
          219 686 rmoveto
          -88 hlineto
          -97 -686 rlineto
          88 hlineto
          125 883 rmoveto
          -87 hlineto
          -13 -95 rlineto
          87 hlineto
          endchar
        </CharString>
        <CharString name="Igrave">
          -276 21 -21 686 -20 85 132 hstem
          34 211 vstem
          219 686 rmoveto
          -88 hlineto
          -97 -686 rlineto
          88 hlineto
          55 883 rmoveto
          -90 hlineto
          -2 -3 90 -129 rlineto
          70 hlineto
          endchar
        </CharString>
        <CharString name="Imacron">
          -276 21 -21 686 -20 93 72 hstem
          34 284 vstem
          219 686 rmoveto
          -88 hlineto
          -97 -686 rlineto
          88 hlineto
          196 831 rmoveto
          -250 hlineto
          -11 -72 rlineto
          250 hlineto
          endchar
        </CharString>
        <CharString name="Iogonek">
          -276 -190 65 -51 51 -30 -21 197 -21 686 -20 hstemhm
          -1 82 hintmask 00111100
          219 686 rmoveto
          -88 hlineto
          -97 -686 rlineto
          23 hlineto
          hintmask 10011100
          -29 -26 -29 -33 -52 vvcurveto
          -61 41 -18 41 vhcurveto
          hintmask 00111100
          20 21 5 9 22 hvcurveto
          hintmask 01011100
          7 51 rlineto
          -32 hlineto
          -28 -10 19 23 33 24 33 17 17 hvcurveto
          endchar
        </CharString>
        <CharString name="Itilde">
          -276 21 -21 686 -20 113 73 -42 73 hstemhm
          34 313 hintmask 11011000
          219 686 rmoveto
          -88 hlineto
          -97 -686 rlineto
          88 hlineto
          167 883 rmoveto
          hintmask 11101000
          -23 -6 -15 -8 -18 hhcurveto
          hintmask 11011000
          -40 -29 31 -45 hhcurveto
          hintmask 11101000
          -58 -30 -58 -46 -7 hvcurveto
          57 hlineto
          hintmask 11011000
          23 6 15 8 18 hhcurveto
          hintmask 11101000
          40 29 -31 45 hhcurveto
          hintmask 11011000
          58 31 58 46 7 hvcurveto
          endchar
        </CharString>
        <CharString name="J">
          -94 -12 81 617 -20 hstem
          -1 87 vstem
          407 686 rmoveto
          -88 hlineto
          -75 -528 rlineto
          -58 -8 -32 -31 -50 hhcurveto
          -44 -24 23 45 7 1 7 8 57 hvcurveto
          -87 hlineto
          -8 -59 -1 -13 -12 vvcurveto
          -89 55 -47 98 100 65 61 114 16 vhcurveto
          endchar
        </CharString>
        <CharString name="Jcircumflex">
          -94 -12 81 617 -20 82 135 hstem
          -1 87 vstem
          407 686 rmoveto
          -88 hlineto
          -75 -528 rlineto
          -58 -8 -32 -31 -50 hhcurveto
          -44 -24 23 45 7 1 7 8 57 hvcurveto
          -87 hlineto
          -8 -59 -1 -13 -12 vvcurveto
          -89 55 -47 98 100 65 61 114 16 vhcurveto
          95 720 rmoveto
          -78 hlineto
          -105 -135 rlineto
          83 hlineto
          56 79 33 -79 rlineto
          77 hlineto
          endchar
        </CharString>
        <CharString name="K">
          43 21 -21 686 -20 hstem
          34 555 vstem
          219 686 rmoveto
          -88 hlineto
          -97 -686 rlineto
          88 hlineto
          30 213 127 122 122 -335 rlineto
          98 hlineto
          -155 409 245 277 rlineto
          -105 hlineto
          -316 -357 rlineto
          endchar
        </CharString>
        <CharString name="Kcommaaccent">
          43 -151 91 81 -21 686 -20 hstem
          34 555 vstem
          256 -60 rmoveto
          -85 hlineto
          -13 -91 rlineto
          34 hlineto
          -31 -69 rlineto
          48 hlineto
          35 76 rlineto
          -25 830 rmoveto
          -88 hlineto
          -97 -686 rlineto
          88 hlineto
          30 213 127 122 122 -335 rlineto
          98 hlineto
          -155 409 245 277 rlineto
          -105 hlineto
          -316 -357 rlineto
          endchar
        </CharString>
        <CharString name="L">
          -48 0 80 606 -20 hstem
          34 380 vstem
          402 hmoveto
          12 80 rlineto
          -280 hlineto
          85 606 rlineto
          -88 hlineto
          -97 -686 rlineto
          endchar
        </CharString>
        <CharString name="Lacute">
          -48 0 80 606 -20 85 132 hstem
          34 380 vstem
          310 883 rmoveto
          -91 hlineto
          -86 -132 rlineto
          70 hlineto
          108 129 rlineto
          91 -880 rmoveto
          12 80 rlineto
          -280 hlineto
          85 606 rlineto
          -88 hlineto
          -97 -686 rlineto
          endchar
        </CharString>
        <CharString name="Lcaron">
          -48 0 80 498 108 hstem
          34 421 vstem
          455 686 rmoveto
          -100 hlineto
          -15 -108 rlineto
          33 hlineto
          -51 -124 rlineto
          55 hlineto
          64 133 rlineto
          -39 -587 rmoveto
          12 80 rlineto
          -280 hlineto
          85 606 rlineto
          -88 hlineto
          -97 -686 rlineto
          endchar
        </CharString>
        <CharString name="Lcommaaccent">
          -48 -151 91 60 80 606 -20 hstem
          34 380 vstem
          232 -60 rmoveto
          -85 hlineto
          -13 -91 rlineto
          34 hlineto
          -31 -69 rlineto
          48 hlineto
          35 76 rlineto
          182 144 rmoveto
          12 80 rlineto
          -280 hlineto
          85 606 rlineto
          -88 hlineto
          -97 -686 rlineto
          endchar
        </CharString>
        <CharString name="Ldot">
          -48 0 80 208 111 287 -20 hstem
          34 382 vstem
          416 399 rmoveto
          -102 hlineto
          -15 -111 rlineto
          101 hlineto
          2 -288 rmoveto
          12 80 rlineto
          -280 hlineto
          85 606 rlineto
          -88 hlineto
          -97 -686 rlineto
          endchar
        </CharString>
        <CharString name="Lslash">
          -48 0 80 606 -20 hstem
          -9 423 vstem
          34 hmoveto
          368 hlineto
          12 80 rlineto
          -280 hlineto
          33 234 118 94 12 83 -119 -95 41 290 rlineto
          -88 hlineto
          -52 -368 -76 -60 -12 -81 76 60 rlineto
          endchar
        </CharString>
        <CharString name="M">
          179 0 102 -81 -21 584 102 hstemhm
          24 656 hintmask 01110000
          680 686 rmoveto
          -135 hlineto
          -186 -450 rlineto
          hintmask 10110000
          -17 -42 -21 -92 0 vvcurveto
          -4 hlineto
          0 -1 90 -6 44 vhcurveto
          -57 450 rlineto
          -132 hlineto
          -97 -686 rlineto
          79 hlineto
          70 498 rlineto
          2 16 8 70 0 vvcurveto
          4 hlineto
          0 5 -71 2 -15 vhcurveto
          65 -498 rlineto
          79 hlineto
          207 498 rlineto
          9 20 22 66 0 vvcurveto
          4 hlineto
          0 -12 -66 -3 -20 vhcurveto
          -70 -498 rlineto
          88 hlineto
          endchar
        </CharString>
        <CharString name="N">
          88 21 -21 686 -20 hstem
          33 549 vstem
          582 686 rmoveto
          -79 hlineto
          -61 -431 rlineto
          -3 -22 -7 -69 0 vvcurveto
          -3 -1 rlineto
          0 -21 66 -11 26 vhcurveto
          -195 431 rlineto
          -72 hlineto
          -97 -686 rlineto
          79 hlineto
          62 437 rlineto
          4 28 5 63 0 vvcurveto
          3 1 rlineto
          0 20 -63 13 -29 vhcurveto
          197 -437 rlineto
          69 hlineto
          endchar
        </CharString>
        <CharString name="NULL">
          -504 endchar
        </CharString>
        <CharString name="Nacute">
          88 21 -21 686 -20 85 132 hstem
          33 549 vstem
          582 686 rmoveto
          -79 hlineto
          -61 -431 rlineto
          -3 -22 -7 -69 0 vvcurveto
          -3 -1 rlineto
          0 -21 66 -11 26 vhcurveto
          -195 431 rlineto
          -72 hlineto
          -97 -686 rlineto
          79 hlineto
          62 437 rlineto
          4 28 5 63 0 vvcurveto
          3 1 rlineto
          0 20 -63 13 -29 vhcurveto
          197 -437 rlineto
          69 hlineto
          4 883 rmoveto
          -91 hlineto
          -86 -132 rlineto
          70 hlineto
          108 129 rlineto
          endchar
        </CharString>
        <CharString name="Ncaron">
          88 21 -21 686 -20 82 135 hstem
          33 549 vstem
          582 686 rmoveto
          -79 hlineto
          -61 -431 rlineto
          -3 -22 -7 -69 0 vvcurveto
          -3 -1 rlineto
          0 -21 66 -11 26 vhcurveto
          -195 431 rlineto
          -72 hlineto
          -97 -686 rlineto
          79 hlineto
          62 437 rlineto
          4 28 5 63 0 vvcurveto
          3 1 rlineto
          0 20 -63 13 -29 vhcurveto
          197 -437 rlineto
          69 hlineto
          21 883 rmoveto
          -83 hlineto
          -52 -79 -34 79 rlineto
          -79 hlineto
          66 -135 rlineto
          77 hlineto
          endchar
        </CharString>
        <CharString name="Ncommaaccent">
          88 -151 91 81 -21 686 -20 hstem
          33 549 vstem
          582 686 rmoveto
          -79 hlineto
          -61 -431 rlineto
          -3 -22 -7 -69 0 vvcurveto
          -3 -1 rlineto
          0 -21 66 -11 26 vhcurveto
          -195 431 rlineto
          -72 hlineto
          -97 -686 rlineto
          79 hlineto
          62 437 rlineto
          4 28 5 63 0 vvcurveto
          3 1 rlineto
          0 20 -63 13 -29 vhcurveto
          197 -437 rlineto
          69 hlineto
          -192 -60 rmoveto
          -85 hlineto
          -13 -91 rlineto
          34 hlineto
          -31 -69 rlineto
          48 hlineto
          35 76 rlineto
          endchar
        </CharString>
        <CharString name="Ntilde">
          88 21 -21 686 -20 113 73 -42 73 hstemhm
          33 549 hintmask 11011000
          582 686 rmoveto
          -79 hlineto
          -61 -431 rlineto
          -3 -22 -7 -69 0 vvcurveto
          -3 -1 rlineto
          0 -21 66 -11 26 vhcurveto
          -195 431 rlineto
          -72 hlineto
          -97 -686 rlineto
          79 hlineto
          62 437 rlineto
          4 28 5 63 0 vvcurveto
          3 1 rlineto
          0 20 -63 13 -29 vhcurveto
          197 -437 rlineto
          69 hlineto
          -16 883 rmoveto
          hintmask 11101000
          -23 -6 -15 -8 -18 hhcurveto
          hintmask 11011000
          -40 -29 31 -45 hhcurveto
          hintmask 11101000
          -58 -30 -58 -46 -7 hvcurveto
          57 hlineto
          hintmask 11011000
          23 6 15 8 18 hhcurveto
          hintmask 11101000
          40 29 -31 45 hhcurveto
          hintmask 11011000
          58 31 58 46 7 hvcurveto
          endchar
        </CharString>
        <CharString name="O">
          134 -12 81 548 81 hstem
          51 90 373 91 vstem
          367 698 rmoveto
          -241 -75 -260 -191 -174 87 -85 150 241 76 258 191 175 -88 86 -150 hvcurveto
          -1 -81 rmoveto
          93 55 -60 -120 -147 -44 -221 -181 -94 -54 59 121 149 45 219 180 hvcurveto
          endchar
        </CharString>
        <CharString name="OE">
          316 -12 81 -69 69 -69 80 231 80 215 80 -69 81 hstemhm
          40 91 303 85 hintmask 01010111
          321 617 rmoveto
          72 41 -55 -111 -120 -31 -262 -159 -72 -41 55 111 119 38 263 152 hvcurveto
          hintmask 00111011
          55 -617 rmoveto
          366 hlineto
          12 80 rlineto
          -278 hlineto
          32 231 rlineto
          228 hlineto
          11 80 rlineto
          -228 hlineto
          30 215 rlineto
          272 hlineto
          12 80 rlineto
          -360 hlineto
          hintmask 10010111
          -10 -68 rlineto
          53 -29 -48 27 -64 hhcurveto
          -222 -60 -304 -163 -163 66 -80 117 64 54 26 54 45 hvcurveto
          endchar
        </CharString>
        <CharString name="Oacute">
          134 -12 81 548 81 53 132 hstem
          51 90 373 91 vstem
          367 698 rmoveto
          -241 -75 -260 -191 -174 87 -85 150 241 76 258 191 175 -88 86 -150 hvcurveto
          -1 -81 rmoveto
          93 55 -60 -120 -147 -44 -221 -181 -94 -54 59 121 149 45 219 180 hvcurveto
          146 266 rmoveto
          -90 hlineto
          -86 -132 rlineto
          69 hlineto
          108 129 rlineto
          endchar
        </CharString>
        <CharString name="Obreve">
          134 -12 81 548 81 88 64 hstem
          51 90 373 91 vstem
          367 698 rmoveto
          -241 -75 -260 -191 -174 87 -85 150 241 76 258 191 175 -88 86 -150 hvcurveto
          -1 -81 rmoveto
          93 55 -60 -120 -147 -44 -221 -181 -94 -54 59 121 149 45 219 180 hvcurveto
          101 266 rmoveto
          -14 -5 -25 -19 -34 hhcurveto
          -33 -21 19 14 -1 hvcurveto
          -64 hlineto
          -1 -3 0 -3 -3 vvcurveto
          -43 42 -45 73 75 51 52 45 7 vhcurveto
          endchar
        </CharString>
        <CharString name="Ocircumflex">
          134 -12 81 548 81 50 135 hstem
          51 90 373 91 vstem
          367 698 rmoveto
          -241 -75 -260 -191 -174 87 -85 150 241 76 258 191 175 -88 86 -150 hvcurveto
          -1 -81 rmoveto
          93 55 -60 -120 -147 -44 -221 -181 -94 -54 59 121 149 45 219 180 hvcurveto
          77 266 rmoveto
          -78 hlineto
          -105 -135 rlineto
          83 hlineto
          56 79 33 -79 rlineto
          77 hlineto
          endchar
        </CharString>
        <CharString name="Odieresis">
          134 -12 81 548 81 90 95 hstem
          51 90 373 91 vstem
          367 698 rmoveto
          -241 -75 -260 -191 -174 87 -85 150 241 76 258 191 175 -88 86 -150 hvcurveto
          -1 -81 rmoveto
          93 55 -60 -120 -147 -44 -221 -181 -94 -54 59 121 149 45 219 180 hvcurveto
          161 266 rmoveto
          -87 hlineto
          -13 -95 rlineto
          87 hlineto
          -137 95 rmoveto
          -87 hlineto
          -13 -95 rlineto
          87 hlineto
          endchar
        </CharString>
        <CharString name="Ograve">
          134 -12 81 548 81 53 132 hstem
          51 90 373 91 vstem
          367 698 rmoveto
          -241 -75 -260 -191 -174 87 -85 150 241 76 258 191 175 -88 86 -150 hvcurveto
          -1 -81 rmoveto
          93 55 -60 -120 -147 -44 -221 -181 -94 -54 59 121 149 45 219 180 hvcurveto
          15 266 rmoveto
          -90 hlineto
          -2 -3 90 -129 rlineto
          69 hlineto
          endchar
        </CharString>
        <CharString name="Ohungarumlaut">
          134 -12 81 548 81 53 132 hstem
          51 90 373 91 vstem
          367 698 rmoveto
          -241 -75 -260 -191 -174 87 -85 150 241 76 258 191 175 -88 86 -150 hvcurveto
          -1 -81 rmoveto
          93 55 -60 -120 -147 -44 -221 -181 -94 -54 59 121 149 45 219 180 hvcurveto
          174 266 rmoveto
          -90 hlineto
          -62 -132 rlineto
          69 hlineto
          84 129 rlineto
          -131 3 rmoveto
          -90 hlineto
          -62 -132 rlineto
          69 hlineto
          84 129 rlineto
          endchar
        </CharString>
        <CharString name="Omacron">
          134 -12 81 548 81 61 72 hstem
          51 90 373 91 vstem
          367 698 rmoveto
          -241 -75 -260 -191 -174 87 -85 150 241 76 258 191 175 -88 86 -150 hvcurveto
          -1 -81 rmoveto
          93 55 -60 -120 -147 -44 -221 -181 -94 -54 59 121 149 45 219 180 hvcurveto
          155 214 rmoveto
          -250 hlineto
          -10 -72 rlineto
          250 hlineto
          endchar
        </CharString>
        <CharString name="Omega">
          264 0 61 -61 84 533 81 hstemhm
          120 87 375 91 hintmask 10111000
          436 698 rmoveto
          -226 -90 -244 -187 hvcurveto
          hintmask 01111000
          -80 22 -62 39 -45 vhcurveto
          1 -28 -23 3 -16 hhcurveto
          -25 hlineto
          hintmask 10111000
          -12 -84 rlineto
          237 hlineto
          9 61 rlineto
          -73 17 -43 60 103 vvcurveto
          171 56 205 171 93 55 -59 -120 -111 -53 -266 -141 vhcurveto
          -9 -61 rlineto
          238 hlineto
          hintmask 01111000
          12 84 rlineto
          -25 hlineto
          -25 -21 -3 -1 -22 hvcurveto
          101 95 36 133 129 vvcurveto
          hintmask 10111000
          175 -87 86 -150 vhcurveto
          endchar
        </CharString>
        <CharString name="Oslash">
          134 -12 81 548 81 -68 93 0 -20 hstemhm
          51 90 373 91 hintmask 10011100
          605 723 rmoveto
          -64 hlineto
          hintmask 11001100
          -38 -59 rlineto
          23 -36 -46 11 -54 hhcurveto
          -241 -75 -260 -191 -85 20 -63 39 -43 hvcurveto
          -60 -93 rlineto
          64 hlineto
          37 58 rlineto
          -22 37 46 -11 54 hhcurveto
          241 76 258 191 hvcurveto
          hintmask 10101100
          85 -21 64 -39 44 vhcurveto
          -54 -83 rmoveto
          15 -28 8 -37 -45 vvcurveto
          -147 -44 -221 -181 -36 -30 8 18 -24 vhcurveto
          hintmask 11001100
          167 522 rmoveto
          35 31 -9 -18 23 hvcurveto
          -292 -452 rlineto
          -14 28 -8 37 46 vvcurveto
          149 45 219 180 vhcurveto
          endchar
        </CharString>
        <CharString name="Oslashacute">
          134 -12 81 548 81 -68 93 0 -20 48 132 hstemhm
          51 90 373 91 hintmask 10011110
          605 723 rmoveto
          -64 hlineto
          hintmask 11001110
          -38 -59 rlineto
          23 -36 -46 11 -54 hhcurveto
          -241 -75 -260 -191 -85 20 -63 39 -43 hvcurveto
          -60 -93 rlineto
          64 hlineto
          37 58 rlineto
          -22 37 46 -11 54 hhcurveto
          241 76 258 191 hvcurveto
          hintmask 10101110
          85 -21 64 -39 44 vhcurveto
          -54 -83 rmoveto
          15 -28 8 -37 -45 vvcurveto
          -147 -44 -221 -181 -36 -30 8 18 -24 vhcurveto
          hintmask 11001110
          167 522 rmoveto
          35 31 -9 -18 23 hvcurveto
          -292 -452 rlineto
          -14 28 -8 37 46 vvcurveto
          149 45 219 180 vhcurveto
          146 266 rmoveto
          -90 hlineto
          -86 -132 rlineto
          69 hlineto
          108 129 rlineto
          endchar
        </CharString>
        <CharString name="Otilde">
          134 -12 81 548 81 81 73 -42 73 hstemhm
          51 90 373 91 hintmask 11011100
          367 698 rmoveto
          -241 -75 -260 -191 -174 87 -85 150 241 76 258 191 175 -88 86 -150 hvcurveto
          -1 -81 rmoveto
          93 55 -60 -120 -147 -44 -221 -181 -94 -54 59 121 149 45 219 180 hvcurveto
          126 266 rmoveto
          hintmask 11101100
          -23 -6 -15 -8 -17 hhcurveto
          hintmask 11011100
          -40 -30 31 -45 hhcurveto
          hintmask 11101100
          -58 -30 -58 -46 -7 hvcurveto
          57 hlineto
          hintmask 11011100
          23 7 14 8 18 hhcurveto
          hintmask 11101100
          40 29 -31 46 hhcurveto
          hintmask 11011100
          57 31 58 46 7 hvcurveto
          endchar
        </CharString>
        <CharString name="P">
          43 21 -21 283 80 243 80 hstem
          462 93 vstem
          323 283 rmoveto
          137 95 84 145 103 -62 71 -127 hvcurveto
          -235 hlineto
          -97 -686 rlineto
          88 hlineto
          40 283 rlineto
          199 323 rmoveto
          66 35 -44 -66 -82 -56 -51 -74 hvcurveto
          -158 hlineto
          33 243 rlineto
          endchar
        </CharString>
        <CharString name="Q">
          134 -12 81 548 81 hstem
          51 90 373 91 vstem
          51 247 rmoveto
          -174 87 -85 150 vhcurveto
          8 hlineto
          104 -112 rlineto
          110 hlineto
          -122 129 rlineto
          162 61 55 209 162 vvcurveto
          175 -88 86 -150 -241 -75 -260 -191 vhcurveto
          315 370 rmoveto
          93 55 -60 -120 -147 -44 -221 -181 -94 -54 59 121 149 45 219 180 hvcurveto
          endchar
        </CharString>
        <CharString name="R">
          88 21 -21 303 80 223 80 hstem
          491 92 vstem
          583 527 rmoveto
          95 -56 64 -130 vhcurveto
          -266 hlineto
          -97 -686 rlineto
          88 hlineto
          43 303 rlineto
          185 hlineto
          88 -303 rlineto
          93 hlineto
          -92 318 rlineto
          88 30 56 78 101 vvcurveto
          -199 79 rmoveto
          70 37 -34 -59 -77 -61 -53 -77 hvcurveto
          -177 hlineto
          31 223 rlineto
          endchar
        </CharString>
        <CharString name="Racute">
          88 21 -21 303 80 223 80 65 132 hstem
          491 92 vstem
          483 883 rmoveto
          -90 hlineto
          -86 -132 rlineto
          69 hlineto
          108 129 rlineto
          99 -353 rmoveto
          95 -56 64 -130 vhcurveto
          -266 hlineto
          -97 -686 rlineto
          88 hlineto
          43 303 rlineto
          185 hlineto
          88 -303 rlineto
          93 hlineto
          -92 318 rlineto
          88 30 56 78 101 vvcurveto
          -199 79 rmoveto
          70 37 -34 -59 -77 -61 -53 -77 hvcurveto
          -177 hlineto
          31 223 rlineto
          endchar
        </CharString>
        <CharString name="Rcaron">
          88 21 -21 303 80 223 80 62 135 hstem
          491 92 vstem
          500 883 rmoveto
          -83 hlineto
          -52 -79 -33 79 rlineto
          -80 hlineto
          66 -135 rlineto
          78 hlineto
          187 -221 rmoveto
          95 -56 64 -130 vhcurveto
          -266 hlineto
          -97 -686 rlineto
          88 hlineto
          43 303 rlineto
          185 hlineto
          88 -303 rlineto
          93 hlineto
          -92 318 rlineto
          88 30 56 78 101 vvcurveto
          -199 79 rmoveto
          70 37 -34 -59 -77 -61 -53 -77 hvcurveto
          -177 hlineto
          31 223 rlineto
          endchar
        </CharString>
        <CharString name="Rcommaaccent">
          88 -151 91 81 -21 303 80 223 80 hstem
          491 92 vstem
          334 -60 rmoveto
          -84 hlineto
          -14 -91 rlineto
          35 hlineto
          -32 -69 rlineto
          48 hlineto
          35 76 rlineto
          261 671 rmoveto
          95 -56 64 -130 vhcurveto
          -266 hlineto
          -97 -686 rlineto
          88 hlineto
          43 303 rlineto
          185 hlineto
          88 -303 rlineto
          93 hlineto
          -92 318 rlineto
          88 30 56 78 101 vvcurveto
          -199 79 rmoveto
          70 37 -34 -59 -77 -61 -53 -77 hvcurveto
          -177 hlineto
          31 223 rlineto
          endchar
        </CharString>
        <CharString name="S">
          43 -12 81 548 81 hstemhm
          33 89 -21 91 206 92 -55 91 hintmask 11010100
          314 698 rmoveto
          -134 -79 -70 -126 hvcurveto
          hintmask 11011000
          -202 297 41 -151 vvcurveto
          -97 -88 -24 -54 vhcurveto
          hintmask 11101000
          -82 -52 36 82 14 2 16 3 17 hvcurveto
          -91 hlineto
          -3 -16 0 -15 -15 vvcurveto
          -128 85 -72 131 193 48 123 92 vhcurveto
          hintmask 11011000
          213 -298 -47 143 vvcurveto
          95 82 10 35 vhcurveto
          hintmask 11010100
          56 70 -18 -114 hvcurveto
          91 hlineto
          121 -54 92 -158 vhcurveto
          endchar
        </CharString>
        <CharString name="Sacute">
          43 -12 81 548 81 53 132 hstemhm
          33 89 -21 91 206 92 -55 91 hintmask 11101010
          314 698 rmoveto
          -134 -79 -70 -126 hvcurveto
          hintmask 11101100
          -202 297 41 -151 vvcurveto
          -97 -88 -24 -54 vhcurveto
          hintmask 11110100
          -82 -52 36 82 14 2 16 3 17 hvcurveto
          -91 hlineto
          -3 -16 0 -15 -15 vvcurveto
          -128 85 -72 131 193 48 123 92 vhcurveto
          hintmask 11101100
          213 -298 -47 143 vvcurveto
          95 82 10 35 vhcurveto
          hintmask 11101010
          56 70 -18 -114 hvcurveto
          91 hlineto
          121 -54 92 -158 vhcurveto
          hintmask 11101100
          158 185 rmoveto
          -90 hlineto
          -86 -132 rlineto
          69 hlineto
          108 129 rlineto
          endchar
        </CharString>
        <CharString name="Scaron">
          43 -12 81 548 81 50 135 hstemhm
          33 89 -21 91 206 92 -55 91 hintmask 11101010
          314 698 rmoveto
          -134 -79 -70 -126 hvcurveto
          hintmask 11101100
          -202 297 41 -151 vvcurveto
          -97 -88 -24 -54 vhcurveto
          hintmask 11110100
          -82 -52 36 82 14 2 16 3 17 hvcurveto
          -91 hlineto
          -3 -16 0 -15 -15 vvcurveto
          -128 85 -72 131 193 48 123 92 vhcurveto
          hintmask 11101100
          213 -298 -47 143 vvcurveto
          95 82 10 35 vhcurveto
          hintmask 11101010
          56 70 -18 -114 hvcurveto
          91 hlineto
          121 -54 92 -158 vhcurveto
          176 185 rmoveto
          -83 hlineto
          -53 -79 -33 79 rlineto
          -80 hlineto
          66 -135 rlineto
          78 hlineto
          endchar
        </CharString>
        <CharString name="Scedilla">
          43 -182 57 -28 -21 97 41 26 79 -58 -21 627 81 hstemhm
          33 89 -21 91 65 76 65 92 -55 91 hintmask 1000110100100000
          526 485 rmoveto
          121 -54 92 -158 -134 -79 -70 -126 vhcurveto
          hintmask 1001010101000000
          -202 297 41 -151 vvcurveto
          -97 -88 -24 -54 vhcurveto
          hintmask 1001011001000000
          -82 -52 36 82 14 2 16 3 17 hvcurveto
          -91 hlineto
          -3 -16 0 -15 -15 vvcurveto
          -116 70 -70 109 -12 vhcurveto
          hintmask 1010110111000000
          -19 -67 rlineto
          33 hlineto
          22 9 -6 -12 -24 -16 -6 -24 hvcurveto
          -76 hlineto
          hintmask 0100110101000000
          -7 -49 rlineto
          hintmask 1010110111000000
          -5 23 32 -3 28 hhcurveto
          41 75 15 77 37 -34 14 -39 3 hvcurveto
          7 24 rlineto
          178 8 45 118 89 vvcurveto
          213 -298 -47 143 vvcurveto
          95 82 10 35 vhcurveto
          hintmask 1000110100100000
          56 70 -18 -114 hvcurveto
          endchar
        </CharString>
        <CharString name="Scircumflex">
          43 -12 81 548 81 50 135 hstemhm
          33 89 -21 91 206 92 -55 91 hintmask 11101010
          314 698 rmoveto
          -134 -79 -70 -126 hvcurveto
          hintmask 11101100
          -202 297 41 -151 vvcurveto
          -97 -88 -24 -54 vhcurveto
          hintmask 11110100
          -82 -52 36 82 14 2 16 3 17 hvcurveto
          -91 hlineto
          -3 -16 0 -15 -15 vvcurveto
          -128 85 -72 131 193 48 123 92 vhcurveto
          hintmask 11101100
          213 -298 -47 143 vvcurveto
          95 82 10 35 vhcurveto
          hintmask 11101010
          56 70 -18 -114 hvcurveto
          91 hlineto
          121 -54 92 -158 vhcurveto
          hintmask 11101100
          89 185 rmoveto
          -78 hlineto
          -105 -135 rlineto
          83 hlineto
          56 79 33 -79 rlineto
          77 hlineto
          endchar
        </CharString>
        <CharString name="T">
          -3 21 -21 606 80 hstem
          64 474 vstem
          64 606 rmoveto
          187 hlineto
          -85 -606 rlineto
          88 hlineto
          85 606 rlineto
          187 hlineto
          12 80 rlineto
          -462 hlineto
          endchar
        </CharString>
        <CharString name="Tbar">
          -3 21 -21 321 72 213 80 hstem
          64 474 vstem
          339 606 rmoveto
          187 hlineto
          12 80 rlineto
          -462 hlineto
          -12 -80 rlineto
          187 hlineto
          -30 -213 rlineto
          -118 hlineto
          -11 -72 rlineto
          119 hlineto
          -45 -321 rlineto
          88 hlineto
          45 321 rlineto
          130 hlineto
          10 72 rlineto
          -130 hlineto
          endchar
        </CharString>
        <CharString name="Tcaron">
          -3 21 -21 606 80 62 135 hstem
          64 474 vstem
          458 883 rmoveto
          -83 hlineto
          -53 -79 -33 79 rlineto
          -80 hlineto
          66 -135 rlineto
          78 hlineto
          -289 -142 rmoveto
          187 hlineto
          -85 -606 rlineto
          88 hlineto
          85 606 rlineto
          187 hlineto
          12 80 rlineto
          -462 hlineto
          endchar
        </CharString>
        <CharString name="Tcommaaccent">
          -3 -151 91 81 -21 606 80 hstem
          64 474 vstem
          246 -60 rmoveto
          -85 hlineto
          -14 -91 rlineto
          35 hlineto
          -32 -69 rlineto
          48 hlineto
          35 76 rlineto
          -169 750 rmoveto
          187 hlineto
          -85 -606 rlineto
          88 hlineto
          85 606 rlineto
          187 hlineto
          12 80 rlineto
          -462 hlineto
          endchar
        </CharString>
        <CharString name="Thorn">
          43 21 -21 146 80 245 80 135 -20 hstem
          443 93 vstem
          219 686 rmoveto
          -88 hlineto
          -97 -686 rlineto
          88 hlineto
          21 146 rlineto
          157 hlineto
          139 97 89 145 103 -62 68 -127 hvcurveto
          -147 hlineto
          142 -80 rmoveto
          66 35 -41 -66 -84 -58 -54 -76 hvcurveto
          -155 hlineto
          35 245 rlineto
          endchar
        </CharString>
        <CharString name="U">
          88 -12 81 617 -20 hstem
          57 89 vstem
          579 686 rmoveto
          -88 hlineto
          -66 -468 rlineto
          -97 -14 -59 -52 -86 hhcurveto
          -76 -44 40 76 22 69 479 0 hvcurveto
          -88 hlineto
          0 -70 -467 -46 -121 76 -64 131 137 90 81 154 22 hvcurveto
          endchar
        </CharString>
        <CharString name="Uacute">
          88 -12 81 617 -20 85 132 hstem
          57 89 vstem
          579 686 rmoveto
          -88 hlineto
          -66 -468 rlineto
          -97 -14 -59 -52 -86 hhcurveto
          -76 -44 40 76 22 69 479 0 hvcurveto
          -88 hlineto
          0 -70 -467 -46 -121 76 -64 131 137 90 81 154 22 hvcurveto
          -27 660 rmoveto
          -90 hlineto
          -86 -132 rlineto
          69 hlineto
          108 129 rlineto
          endchar
        </CharString>
        <CharString name="Ubreve">
          88 -12 81 617 -20 120 64 hstem
          57 89 vstem
          579 686 rmoveto
          -88 hlineto
          -66 -468 rlineto
          -97 -14 -59 -52 -86 hhcurveto
          -76 -44 40 76 22 69 479 0 hvcurveto
          -88 hlineto
          0 -70 -467 -46 -121 76 -64 131 137 90 81 154 22 hvcurveto
          -73 660 rmoveto
          -14 -4 -26 -19 -34 hhcurveto
          -33 -21 19 14 -1 hvcurveto
          -64 hlineto
          -1 -3 0 -3 -3 vvcurveto
          -43 42 -45 74 74 52 52 45 6 vhcurveto
          endchar
        </CharString>
        <CharString name="Ucircumflex">
          88 -12 81 617 -20 82 135 hstem
          57 89 vstem
          579 686 rmoveto
          -88 hlineto
          -66 -468 rlineto
          -97 -14 -59 -52 -86 hhcurveto
          -76 -44 40 76 22 69 479 0 hvcurveto
          -88 hlineto
          0 -70 -467 -46 -121 76 -64 131 137 90 81 154 22 hvcurveto
          -96 660 rmoveto
          -79 hlineto
          -105 -135 rlineto
          83 hlineto
          57 79 32 -79 rlineto
          77 hlineto
          endchar
        </CharString>
        <CharString name="Udieresis">
          88 -12 81 617 -20 122 95 hstem
          57 89 vstem
          579 686 rmoveto
          -88 hlineto
          -66 -468 rlineto
          -97 -14 -59 -52 -86 hhcurveto
          -76 -44 40 76 22 69 479 0 hvcurveto
          -88 hlineto
          0 -70 -467 -46 -121 76 -64 131 137 90 81 154 22 hvcurveto
          -13 660 rmoveto
          -86 hlineto
          -14 -95 rlineto
          87 hlineto
          -136 95 rmoveto
          -87 hlineto
          -14 -95 rlineto
          87 hlineto
          endchar
        </CharString>
        <CharString name="Ugrave">
          88 -12 81 617 -20 85 132 hstem
          57 89 vstem
          579 686 rmoveto
          -88 hlineto
          -66 -468 rlineto
          -97 -14 -59 -52 -86 hhcurveto
          -76 -44 40 76 22 69 479 0 hvcurveto
          -88 hlineto
          0 -70 -467 -46 -121 76 -64 131 137 90 81 154 22 hvcurveto
          -159 660 rmoveto
          -89 hlineto
          -2 -3 90 -129 rlineto
          69 hlineto
          endchar
        </CharString>
        <CharString name="Uhungarumlaut">
          88 -12 81 617 -20 85 132 hstem
          57 89 vstem
          579 686 rmoveto
          -88 hlineto
          -66 -468 rlineto
          -97 -14 -59 -52 -86 hhcurveto
          -76 -44 40 76 22 69 479 0 hvcurveto
          -88 hlineto
          0 -70 -467 -46 -121 76 -64 131 137 90 81 154 22 hvcurveto
          1 660 rmoveto
          -91 hlineto
          -62 -132 rlineto
          70 hlineto
          84 129 rlineto
          -132 3 rmoveto
          -90 hlineto
          -62 -132 rlineto
          70 hlineto
          84 129 rlineto
          endchar
        </CharString>
        <CharString name="Umacron">
          88 -12 81 617 -20 93 72 hstem
          57 89 vstem
          579 686 rmoveto
          -88 hlineto
          -66 -468 rlineto
          -97 -14 -59 -52 -86 hhcurveto
          -76 -44 40 76 22 69 479 0 hvcurveto
          -88 hlineto
          0 -70 -467 -46 -121 76 -64 131 137 90 81 154 22 hvcurveto
          -18 608 rmoveto
          -250 hlineto
          -11 -72 rlineto
          250 hlineto
          endchar
        </CharString>
        <CharString name="Uogonek">
          88 -185 65 108 81 617 -20 hstem
          57 89 94 82 vstem
          579 686 rmoveto
          -88 hlineto
          -66 -468 rlineto
          -97 -14 -59 -52 -86 hhcurveto
          -76 -44 40 76 22 69 479 0 hvcurveto
          -88 hlineto
          0 -70 -467 -46 -121 76 -64 131 hvcurveto
          17 hlineto
          -23 -23 -18 -29 -42 vvcurveto
          -61 41 -18 41 20 21 5 9 22 vhcurveto
          7 51 rlineto
          -32 hlineto
          -28 -10 19 23 33 24 33 17 17 hvcurveto
          81 31 53 74 16 113 rrcurveto
          endchar
        </CharString>
        <CharString name="Uring">
          88 -12 81 617 -20 49 40 102 40 hstemhm
          57 89 130 45 96 44 hintmask 11011110
          579 686 rmoveto
          -88 hlineto
          -66 -468 rlineto
          -97 -14 -59 -52 -86 hhcurveto
          -76 -44 40 76 22 69 479 0 hvcurveto
          -88 hlineto
          0 -70 -467 -46 -121 76 -64 131 137 90 81 154 22 hvcurveto
          -138 674 rmoveto
          -50 -49 -40 -58 hvcurveto
          hintmask 11111110
          -49 37 -35 50 52 46 43 55 vhcurveto
          hintmask 11011110
          48 -36 36 -50 vhcurveto
          -2 -40 rmoveto
          25 19 -22 -25 hvcurveto
          hintmask 11111110
          -32 -23 -23 -28 -27 -18 22 25 vhcurveto
          hintmask 11011110
          32 23 23 29 vhcurveto
          endchar
        </CharString>
        <CharString name="Utilde">
          88 -12 81 617 -20 113 73 -42 73 hstemhm
          57 89 hintmask 11011000
          579 686 rmoveto
          -88 hlineto
          -66 -468 rlineto
          -97 -14 -59 -52 -86 hhcurveto
          -76 -44 40 76 22 69 479 0 hvcurveto
          -88 hlineto
          0 -70 -467 -46 -121 76 -64 131 137 90 81 154 22 hvcurveto
          -47 660 rmoveto
          hintmask 11101000
          -23 -6 -15 -8 -18 hhcurveto
          hintmask 11011000
          -40 -29 31 -45 hhcurveto
          hintmask 11101000
          -58 -30 -58 -46 -7 hvcurveto
          57 hlineto
          hintmask 11011000
          23 6 15 8 18 hhcurveto
          hintmask 11101000
          40 29 -31 45 hhcurveto
          hintmask 11011000
          58 31 58 46 7 hvcurveto
          endchar
        </CharString>
        <CharString name="V">
          43 0 96 590 -20 hstem
          74 531 vstem
          605 686 rmoveto
          -88 hlineto
          -256 -590 rlineto
          -4 hlineto
          -92 590 rlineto
          -91 hlineto
          112 -686 rlineto
          113 hlineto
          endchar
        </CharString>
        <CharString name="W">
          270 0 90 513 83 hstem
          451 75.5 vstem
          831 686 rmoveto
          -82 hlineto
          -171 -474 rlineto
          -16 -45 -22 -77 0 vvcurveto
          -4 hlineto
          0 0 91 -1 31 vhcurveto
          -17 474 rlineto
          -127 hlineto
          -144 -474 rlineto
          -18 -60 -16 -62 0 vvcurveto
          -4 hlineto
          0 -1 82 -3 40 vhcurveto
          -39 474 rlineto
          -89 hlineto
          62 -686 rlineto
          114 hlineto
          148 465 rlineto
          14 46 21 92 0 vvcurveto
          5 hlineto
          20 -603 rlineto
          114 hlineto
          endchar
        </CharString>
        <CharString name="Wacute">
          270 0 90 513 83 65 132 hstem
          451 75.5 vstem
          831 686 rmoveto
          -82 hlineto
          -171 -474 rlineto
          -16 -45 -22 -77 0 vvcurveto
          -4 hlineto
          0 0 91 -1 31 vhcurveto
          -17 474 rlineto
          -127 hlineto
          -144 -474 rlineto
          -18 -60 -16 -62 0 vvcurveto
          -4 hlineto
          0 -1 82 -3 40 vhcurveto
          -39 474 rlineto
          -89 hlineto
          62 -686 rlineto
          114 hlineto
          148 465 rlineto
          14 46 21 92 0 vvcurveto
          5 hlineto
          20 -603 rlineto
          114 hlineto
          9 883 rmoveto
          -90 hlineto
          -86 -132 rlineto
          69 hlineto
          108 129 rlineto
          endchar
        </CharString>
        <CharString name="Wcircumflex">
          270 0 90 513 83 62 135 hstem
          451 75.5 vstem
          831 686 rmoveto
          -82 hlineto
          -171 -474 rlineto
          -16 -45 -22 -77 0 vvcurveto
          -4 hlineto
          0 0 91 -1 31 vhcurveto
          -17 474 rlineto
          -127 hlineto
          -144 -474 rlineto
          -18 -60 -16 -62 0 vvcurveto
          -4 hlineto
          0 -1 82 -3 40 vhcurveto
          -39 474 rlineto
          -89 hlineto
          62 -686 rlineto
          114 hlineto
          148 465 rlineto
          14 46 21 92 0 vvcurveto
          5 hlineto
          20 -603 rlineto
          114 hlineto
          -60 883 rmoveto
          -78 hlineto
          -105 -135 rlineto
          83 hlineto
          56 79 32 -79 rlineto
          78 hlineto
          endchar
        </CharString>
        <CharString name="Wdieresis">
          270 0 90 513 83 102 95 hstem
          451 75.5 vstem
          831 686 rmoveto
          -82 hlineto
          -171 -474 rlineto
          -16 -45 -22 -77 0 vvcurveto
          -4 hlineto
          0 0 91 -1 31 vhcurveto
          -17 474 rlineto
          -127 hlineto
          -144 -474 rlineto
          -18 -60 -16 -62 0 vvcurveto
          -4 hlineto
          0 -1 82 -3 40 vhcurveto
          -39 474 rlineto
          -89 hlineto
          62 -686 rlineto
          114 hlineto
          148 465 rlineto
          14 46 21 92 0 vvcurveto
          5 hlineto
          20 -603 rlineto
          114 hlineto
          24 883 rmoveto
          -87 hlineto
          -13 -95 rlineto
          86 hlineto
          -136 95 rmoveto
          -87 hlineto
          -13 -95 rlineto
          87 hlineto
          endchar
        </CharString>
        <CharString name="Wgrave">
          270 0 90 513 83 65 132 hstem
          451 75.5 vstem
          831 686 rmoveto
          -82 hlineto
          -171 -474 rlineto
          -16 -45 -22 -77 0 vvcurveto
          -4 hlineto
          0 0 91 -1 31 vhcurveto
          -17 474 rlineto
          -127 hlineto
          -144 -474 rlineto
          -18 -60 -16 -62 0 vvcurveto
          -4 hlineto
          0 -1 82 -3 40 vhcurveto
          -39 474 rlineto
          -89 hlineto
          62 -686 rlineto
          114 hlineto
          148 465 rlineto
          14 46 21 92 0 vvcurveto
          5 hlineto
          20 -603 rlineto
          114 hlineto
          -122 883 rmoveto
          -90 hlineto
          -2 -3 90 -129 rlineto
          69 hlineto
          endchar
        </CharString>
        <CharString name="X">
          43 21 -21 686 -20 hstem
          -31 613 vstem
          483 686 rmoveto
          -1 -182 -244 0 vhcurveto
          -116 245 rlineto
          -100 hlineto
          154 -326 -270 -360 rlineto
          97 hlineto
          211 280 131 -280 rlineto
          99 hlineto
          -169 361 rlineto
          0 244 324 1 hvcurveto
          endchar
        </CharString>
        <CharString name="Y">
          43 21 -21 686 -20 hstem
          70 531 vstem
          601 686 rmoveto
          -92 hlineto
          -214 -318 rlineto
          -4 hlineto
          -125 318 rlineto
          -96 hlineto
          165 -402 -40 -284 rlineto
          88 hlineto
          40 284 rlineto
          endchar
        </CharString>
        <CharString name="Yacute">
          43 21 -21 686 -20 85 132 hstem
          70 531 vstem
          601 686 rmoveto
          -92 hlineto
          -214 -318 rlineto
          -4 hlineto
          -125 318 rlineto
          -96 hlineto
          165 -402 -40 -284 rlineto
          88 hlineto
          40 284 rlineto
          149 599 rmoveto
          -91 hlineto
          -86 -132 rlineto
          70 hlineto
          108 129 rlineto
          endchar
        </CharString>
        <CharString name="Ycircumflex">
          43 21 -21 686 -20 82 135 hstem
          70 531 vstem
          601 686 rmoveto
          -92 hlineto
          -214 -318 rlineto
          -4 hlineto
          -125 318 rlineto
          -96 hlineto
          165 -402 -40 -284 rlineto
          88 hlineto
          40 284 rlineto
          79 599 rmoveto
          -78 hlineto
          -105 -135 rlineto
          83 hlineto
          56 79 33 -79 rlineto
          77 hlineto
          endchar
        </CharString>
        <CharString name="Ydieresis">
          43 21 -21 686 -20 122 95 hstem
          70 531 vstem
          601 686 rmoveto
          -92 hlineto
          -214 -318 rlineto
          -4 hlineto
          -125 318 rlineto
          -96 hlineto
          165 -402 -40 -284 rlineto
          88 hlineto
          40 284 rlineto
          163 599 rmoveto
          -87 hlineto
          -13 -95 rlineto
          87 hlineto
          -137 95 rmoveto
          -86 hlineto
          -14 -95 rlineto
          87 hlineto
          endchar
        </CharString>
        <CharString name="Ygrave">
          43 21 -21 686 -20 85 132 hstem
          70 531 vstem
          601 686 rmoveto
          -92 hlineto
          -214 -318 rlineto
          -4 hlineto
          -125 318 rlineto
          -96 hlineto
          165 -402 -40 -284 rlineto
          88 hlineto
          40 284 rlineto
          17 599 rmoveto
          -90 hlineto
          -1 -3 89 -129 rlineto
          70 hlineto
          endchar
        </CharString>
        <CharString name="Z">
          -3 0 80 526 80 hstem
          -16 542 vstem
          439 hmoveto
          12 80 rlineto
          -330 hlineto
          402 568 3 38 rlineto
          -428 hlineto
          -12 -80 rlineto
          302 hlineto
          -401 -568 -3 -38 rlineto
          endchar
        </CharString>
        <CharString name="Zacute">
          -3 0 80 526 80 65 132 hstem
          -16 542 vstem
          445 883 rmoveto
          -91 hlineto
          -85 -132 rlineto
          69 hlineto
          108 129 rlineto
          -7 -880 rmoveto
          12 80 rlineto
          -330 hlineto
          402 568 3 38 rlineto
          -428 hlineto
          -12 -80 rlineto
          302 hlineto
          -401 -568 -3 -38 rlineto
          endchar
        </CharString>
        <CharString name="Zcaron">
          -3 0 80 526 80 62 135 hstem
          -16 542 vstem
          462 883 rmoveto
          -83 hlineto
          -52 -79 -34 79 rlineto
          -79 hlineto
          66 -135 rlineto
          77 hlineto
          82 -748 rmoveto
          12 80 rlineto
          -330 hlineto
          402 568 3 38 rlineto
          -428 hlineto
          -12 -80 rlineto
          302 hlineto
          -401 -568 -3 -38 rlineto
          endchar
        </CharString>
        <CharString name="Zdotaccent">
          -3 0 80 526 80 102 95 hstem
          -16 542 vstem
          383 883 rmoveto
          -87 hlineto
          -13 -95 rlineto
          87 hlineto
          69 -788 rmoveto
          12 80 rlineto
          -330 hlineto
          402 568 3 38 rlineto
          -428 hlineto
          -12 -80 rlineto
          302 hlineto
          -401 -568 -3 -38 rlineto
          endchar
        </CharString>
        <CharString name="a">
          -48 -12 73 404 73 -12 -20 hstemhm
          33 84 170 80 hintmask 11011000
          236 538 rmoveto
          -98 -105 -114 -241 -135 56 -60 77 47 36 26 57 38 hvcurveto
          -59 1 29 -24 42 hhcurveto
          26 20 9 7 10 hvcurveto
          8 57 rlineto
          -32 hlineto
          -13 -11 8 20 hvcurveto
          hintmask 10111000
          12 61 425 0 vhcurveto
          -65 hlineto
          hintmask 11011000
          -18 -73 rlineto
          65 -20 -41 20 -48 hhcurveto
          12 -73 rmoveto
          46 23 -38 -75 -80 -31 -211 -95 -49 -25 38 76 86 24 204 107 hvcurveto
          endchar
        </CharString>
        <CharString name="aacute">
          -48 -12 73 404 73 -12 -20 85 132 hstemhm
          33 84 170 80 hintmask 11011100
          397 723 rmoveto
          -90 hlineto
          -86 -132 rlineto
          70 hlineto
          107 129 rlineto
          -162 -182 rmoveto
          -98 -105 -114 -241 -135 56 -60 77 47 36 26 57 38 hvcurveto
          -59 1 29 -24 42 hhcurveto
          26 20 9 7 10 hvcurveto
          8 57 rlineto
          -32 hlineto
          -13 -11 8 20 hvcurveto
          hintmask 10111100
          12 61 425 0 vhcurveto
          -65 hlineto
          hintmask 11011100
          -18 -73 rlineto
          65 -20 -41 20 -48 hhcurveto
          12 -73 rmoveto
          46 23 -38 -75 -80 -31 -211 -95 -49 -25 38 76 86 24 204 107 hvcurveto
          endchar
        </CharString>
        <CharString name="abreve">
          -48 -12 73 404 73 -12 -20 120 64 -64 97 hstemhm
          33 84 170 80 hintmask 11001100
          352 723 rmoveto
          hintmask 11010100
          -14 -4 -26 -19 -34 hhcurveto
          -16 -14 5 6 -9 hvcurveto
          hintmask 11001100
          -10 7 -5 8 -1 7 rrcurveto
          -64 hlineto
          -1 -3 0 -3 -3 vvcurveto
          hintmask 11010100
          -43 42 -45 74 37 32 13 19 23 vhcurveto
          hintmask 11001110
          23 18 14 25 3 22 rrcurveto
          -180 -185 rmoveto
          -98 -105 -114 -241 -135 56 -60 77 47 36 26 57 38 hvcurveto
          -59 1 29 -24 42 hhcurveto
          26 20 9 7 10 hvcurveto
          8 57 rlineto
          -32 hlineto
          -13 -11 8 20 hvcurveto
          hintmask 10110110
          12 61 425 0 vhcurveto
          -65 hlineto
          hintmask 11010110
          -18 -73 rlineto
          hintmask 11001110
          65 -20 -41 20 -48 hhcurveto
          12 -73 rmoveto
          46 23 -38 -75 -80 -31 -211 -95 -49 -25 38 76 86 24 204 107 hvcurveto
          endchar
        </CharString>
        <CharString name="acircumflex">
          -48 -12 73 404 73 -12 -20 82 135 -56 56 hstemhm
          33 84 170 80 hintmask 11010100
          328 723 rmoveto
          -78 hlineto
          -105 -135 rlineto
          83 hlineto
          hintmask 11001100
          56 79 rlineto
          hintmask 11010110
          33 -79 rlineto
          77 hlineto
          -158 -50 rmoveto
          -98 -105 -114 -241 -135 56 -60 77 47 36 26 57 38 hvcurveto
          -59 1 29 -24 42 hhcurveto
          26 20 9 7 10 hvcurveto
          8 57 rlineto
          -32 hlineto
          -13 -11 8 20 hvcurveto
          hintmask 10110110
          12 61 425 0 vhcurveto
          -65 hlineto
          hintmask 11010110
          -18 -73 rlineto
          65 -20 -41 20 -48 hhcurveto
          12 -73 rmoveto
          46 23 -38 -75 -80 -31 -211 -95 -49 -25 38 76 86 24 204 107 hvcurveto
          endchar
        </CharString>
        <CharString name="acute">
          -231 591 132 hstem
          132 177 vstem
          308 723 rmoveto
          -90 hlineto
          -86 -132 rlineto
          69 hlineto
          108 129 rlineto
          endchar
        </CharString>
        <CharString name="adieresis">
          -48 -12 73 404 73 -12 -20 122 95 hstemhm
          33 84 170 80 hintmask 11011100
          236 538 rmoveto
          -98 -105 -114 -241 -135 56 -60 77 47 36 26 57 38 hvcurveto
          -59 1 29 -24 42 hhcurveto
          26 20 9 7 10 hvcurveto
          8 57 rlineto
          -32 hlineto
          -13 -11 8 20 hvcurveto
          hintmask 10111100
          12 61 425 0 vhcurveto
          -65 hlineto
          hintmask 11011100
          -18 -73 rlineto
          65 -20 -41 20 -48 hhcurveto
          12 -73 rmoveto
          46 23 -38 -75 -80 -31 -211 -95 -49 -25 38 76 86 24 204 107 hvcurveto
          164 258 rmoveto
          -87 hlineto
          -13 -95 rlineto
          87 hlineto
          -137 95 rmoveto
          -87 hlineto
          -13 -95 rlineto
          87 hlineto
          endchar
        </CharString>
        <CharString name="ae">
          225 -12 73 178 73 153 73 hstemhm
          26 87 -30 81 141 88 215 85 hintmask 11110010
          531 538 rmoveto
          -59 -43 -22 -34 -33 hvcurveto
          36 -22 -41 20 -64 hhcurveto
          hintmask 11101010
          -106 -80 -64 -104 hvcurveto
          81 hlineto
          52 5 27 43 62 hhcurveto
          56 17 -25 -37 -7 -1 -8 -1 -8 hvcurveto
          -10 -68 rlineto
          hintmask 11110110
          -159 -134 -34 -165 -107 79 -18 61 60 63 31 51 39 hvcurveto
          -56 27 51 -26 72 hhcurveto
          112 66 88 102 16 hvcurveto
          -83 hlineto
          -63 -9 -43 -54 -59 hhcurveto
          -57 -28 41 84 13 1 19 2 21 hvcurveto
          289 hlineto
          6 38 2 38 34 vvcurveto
          hintmask 11110010
          129 -57 60 -105 vhcurveto
          hintmask 11110110
          -230 -355 rmoveto
          -82 -12 -62 -40 -52 hhcurveto
          -40 -22 18 50 93 81 17 115 hvcurveto
          222 226 rmoveto
          51 26 -40 -77 -9 0 -14 -1 -13 hvcurveto
          -201 hlineto
          76 16 36 77 73 hhcurveto
          endchar
        </CharString>
        <CharString name="aeacute">
          225 -12 73 178 73 153 73 53 132 hstemhm
          26 87 -30 81 141 88 215 85 hintmask 11111001
          531 538 rmoveto
          -59 -43 -22 -34 -33 hvcurveto
          36 -22 -41 20 -64 hhcurveto
          hintmask 11110101
          -106 -80 -64 -104 hvcurveto
          81 hlineto
          52 5 27 43 62 hhcurveto
          56 17 -25 -37 -7 -1 -8 -1 -8 hvcurveto
          -10 -68 rlineto
          hintmask 11111011
          -159 -134 -34 -165 -107 79 -18 61 60 63 31 51 39 hvcurveto
          -56 27 51 -26 72 hhcurveto
          112 66 88 102 16 hvcurveto
          -83 hlineto
          -63 -9 -43 -54 -59 hhcurveto
          -57 -28 41 84 13 1 19 2 21 hvcurveto
          289 hlineto
          6 38 2 38 34 vvcurveto
          hintmask 11111001
          129 -57 60 -105 vhcurveto
          hintmask 11111011
          -230 -355 rmoveto
          -82 -12 -62 -40 -52 hhcurveto
          -40 -22 18 50 93 81 17 115 hvcurveto
          222 226 rmoveto
          51 26 -40 -77 -9 0 -14 -1 -13 hvcurveto
          -201 hlineto
          76 16 36 77 73 hhcurveto
          5 258 rmoveto
          -91 hlineto
          -86 -132 rlineto
          70 hlineto
          108 129 rlineto
          endchar
        </CharString>
        <CharString name="afii00208">
          316 233 75 hstem
          96 624 vstem
          720 308 rmoveto
          -613 hlineto
          -11 -75 rlineto
          613 hlineto
          endchar
        </CharString>
        <CharString name="afii61248">
          267 -12 55 267 55 -44 55 267 55 hstemhm
          69 65 114 63 -54 65 138 65 144 65 hintmask 1011101110000000
          685 698 rmoveto
          -62 hlineto
          -514 -710 rlineto
          63 hlineto
          445 333 rmoveto
          35 17 -28 -51 -49 -10 -150 -82 -36 -16 28 57 47 11 146 81 hvcurveto
          -401 377 rmoveto
          -120 -27 -144 -109 hvcurveto
          hintmask 1101110110000000
          -93 44 -42 69 76 44 68 76 9 vhcurveto
          -63 hlineto
          -47 -6 -24 -42 -37 hhcurveto
          -31 -16 32 53 38 9 155 73 hvcurveto
          hintmask 1011101110000000
          28 13 -28 -51 hvcurveto
          -12 65 13 vlineto
          91 -37 42 -69 vhcurveto
          401 -322 rmoveto
          -128 -29 -154 -102 -90 41 -42 76 128 29 153 102 91 -40 42 -77 hvcurveto
          endchar
        </CharString>
        <CharString name="afii61289">
          -107 -12 69 614 64 hstemhm
          50 33 -5 72 172 56 hintmask 11011000
          293 735 rmoveto
          hintmask 11101000
          -66 -75 -56 -171 -24 hvcurveto
          -35 -253 -14 -14 -12 -10 -12 -11 rlinecurve
          -10 -70 13 11 14 11 11 10 rlinecurve
          hintmask 11011000
          -2 -14 rlineto
          -2 -15 -1 -14 -13 vvcurveto
          -79 32 -59 88 32 26 9 17 28 vhcurveto
          10 73 rlineto
          -18 -22 -24 -12 -27 hhcurveto
          -40 -31 27 69 13 2 15 2 17 hvcurveto
          5 38 rlineto
          131 125 88 131 132 vvcurveto
          66 -27 45 -58 vhcurveto
          -8 -64 rmoveto
          26 11 -21 -36 -98 -69 -105 -83 -93 hvcurveto
          27 190 rlineto
          123 17 38 40 33 hhcurveto
          endchar
        </CharString>
        <CharString name="afii61352">
          384 21 -21 202 62 40 62 270 62 -12 -20 hstemhm
          599 71 137 72 hintmask 11110110
          758 636 rmoveto
          34 15 -26 -50 -56 -13 -138 -74 -33 -17 26 50 54 11 140 77 hvcurveto
          4 62 rmoveto
          -91 -72 -80 -180 -92 41 -42 76 130 33 159 100 93 -41 42 -76 hvcurveto
          hintmask 11101110
          -188 -12 rmoveto
          -79 hlineto
          -61 -431 rlineto
          -3 -22 -7 -69 0 vvcurveto
          -3 -1 rlineto
          0 -21 66 -11 26 vhcurveto
          -195 431 rlineto
          -72 hlineto
          -97 -686 rlineto
          79 hlineto
          62 437 rlineto
          4 28 5 63 0 vvcurveto
          3 1 rlineto
          0 20 -63 13 -29 vhcurveto
          197 -437 rlineto
          69 hlineto
          353 264 rmoveto
          -247 hlineto
          -9 -62 rlineto
          247 hlineto
          endchar
        </CharString>
        <CharString name="agrave">
          -48 -12 73 404 73 -12 -20 85 132 hstemhm
          33 84 170 80 hintmask 11011100
          266 723 rmoveto
          -90 hlineto
          -2 -3 90 -129 rlineto
          69 hlineto
          -97 -53 rmoveto
          -98 -105 -114 -241 -135 56 -60 77 47 36 26 57 38 hvcurveto
          -59 1 29 -24 42 hhcurveto
          26 20 9 7 10 hvcurveto
          8 57 rlineto
          -32 hlineto
          -13 -11 8 20 hvcurveto
          hintmask 10111100
          12 61 425 0 vhcurveto
          -65 hlineto
          hintmask 11011100
          -18 -73 rlineto
          65 -20 -41 20 -48 hhcurveto
          12 -73 rmoveto
          46 23 -38 -75 -80 -31 -211 -95 -49 -25 38 76 86 24 204 107 hvcurveto
          endchar
        </CharString>
        <CharString name="amacron">
          -48 -12 73 404 73 -12 -20 93 72 hstemhm
          33 84 170 80 hintmask 11011100
          407 671 rmoveto
          -250 hlineto
          -11 -72 rlineto
          250 hlineto
          -160 -61 rmoveto
          -98 -105 -114 -241 -135 56 -60 77 47 36 26 57 38 hvcurveto
          -59 1 29 -24 42 hhcurveto
          26 20 9 7 10 hvcurveto
          8 57 rlineto
          -32 hlineto
          -13 -11 8 20 hvcurveto
          hintmask 10111100
          12 61 425 0 vhcurveto
          -65 hlineto
          hintmask 11011100
          -18 -73 rlineto
          65 -20 -41 20 -48 hhcurveto
          12 -73 rmoveto
          46 23 -38 -75 -80 -31 -211 -95 -49 -25 38 76 86 24 204 107 hvcurveto
          endchar
        </CharString>
        <CharString name="ampersand">
          43 -12 75 249 73 238 75 hstemhm
          18 89 -31 87 251 83 hintmask 11101100
          303 698 rmoveto
          -126 -101 -78 -141 -62 28 -36 41 -25 hvcurveto
          -4 vlineto
          hintmask 11110100
          -65 -24 -62 -67 -108 vvcurveto
          -104 78 -61 120 135 84 81 125 16 vhcurveto
          16 117 rlineto
          70 hlineto
          10 74 rlineto
          -152 hlineto
          -27 -194 rlineto
          -85 -12 -49 -43 -85 hhcurveto
          -70 -45 29 70 120 75 30 63 hvcurveto
          49 hlineto
          10 73 rlineto
          hintmask 11101100
          -51 hlineto
          -50 -40 31 65 103 70 39 69 65 47 -30 -68 -7 -1 -8 -3 -18 hvcurveto
          82 hlineto
          4 28 1 10 9 vvcurveto
          98 -77 61 -117 vhcurveto
          endchar
        </CharString>
        <CharString name="aogonek">
          -48 -186 65 -51 51 -30 -21 160 73 -49 -21 474 73 -12 -20 hstemhm
          33 84 170 80 -75 82 hintmask 0101010101000000
          444 -121 rmoveto
          -32 hlineto
          -28 -10 19 23 33 24 33 17 17 hvcurveto
          hintmask 0011001110000000
          8 57 rlineto
          -32 hlineto
          -13 -11 8 20 12 61 425 0 hvcurveto
          -65 hlineto
          hintmask 0011010110000000
          -18 -73 rlineto
          65 -20 -41 20 -48 hhcurveto
          -98 -105 -114 -241 -135 56 -60 77 47 36 26 57 38 hvcurveto
          hintmask 0010110110000000
          1 -48 19 -24 29 -8 rrcurveto
          hintmask 1001010101000000
          -24 -24 -20 -30 -44 vvcurveto
          -61 41 -18 41 vhcurveto
          hintmask 0011010101000000
          20 21 5 9 22 hvcurveto
          -246 233 rmoveto
          -49 -25 38 76 86 24 204 107 46 23 -38 -75 -80 -31 -211 -95 hvcurveto
          endchar
        </CharString>
        <CharString name="approxequal">
          45 39 94 -32 94 57 94 -32 94 hstemhm
          7 532 hintmask 10011000
          509 207 rmoveto
          0 -67 -74 -81 -37 -30 16 15 -30 vhcurveto
          hintmask 01011000
          16 -30 -30 15 -36 hhcurveto
          -93 -55 -74 0 hvcurveto
          -13 -94 rlineto
          0 67 74 81 37 30 -15 -16 30 vhcurveto
          hintmask 10101000
          -15 30 30 -16 36 hhcurveto
          93 55 74 0 hvcurveto
          43 307 rmoveto
          0 -67 -74 -81 -37 -30 16 15 -30 vhcurveto
          hintmask 01011000
          16 -30 -30 15 -36 hhcurveto
          -93 -55 -74 0 hvcurveto
          -13 -94 rlineto
          0 67 74 81 37 30 -15 -16 30 vhcurveto
          hintmask 01101000
          -15 30 30 -16 36 hhcurveto
          93 55 74 0 hvcurveto
          endchar
        </CharString>
        <CharString name="aring">
          -48 -12 73 404 73 -12 -20 49 40 102 40 hstemhm
          33 84 71 44 55 80 -38 44 hintmask 1100111010000000
          287 737 rmoveto
          -51 -48 -40 -58 hvcurveto
          hintmask 1101111010000000
          -49 37 -35 49 52 47 43 55 vhcurveto
          hintmask 1100111010000000
          48 -37 36 -49 vhcurveto
          -3 -40 rmoveto
          26 19 -22 -25 hvcurveto
          hintmask 1101111010000000
          -32 -24 -23 -28 -26 -19 22 25 vhcurveto
          hintmask 1100111010000000
          32 23 23 29 vhcurveto
          -48 -159 rmoveto
          -98 -105 -114 -241 -135 56 -60 77 hvcurveto
          hintmask 1010111100000000
          47 36 26 57 38 hvcurveto
          -59 1 29 -24 42 hhcurveto
          26 20 9 7 10 hvcurveto
          8 57 rlineto
          -32 hlineto
          -13 -11 8 20 12 61 425 0 hvcurveto
          -65 hlineto
          hintmask 1100111100000000
          -18 -73 rlineto
          hintmask 1100111010000000
          65 -20 -41 20 -48 hhcurveto
          12 -73 rmoveto
          46 23 -38 -75 -80 -31 -211 -95 -49 -25 38 76 86 24 204 107 hvcurveto
          endchar
        </CharString>
        <CharString name="aringacute">
          -48 -12 73 404 73 -12 -20 49 40 102 40 30 116 hstemhm
          33 84 71 44 55 80 -38 44 hintmask 1100101101000000
          287 737 rmoveto
          -51 -48 -40 -58 hvcurveto
          hintmask 1101101101000000
          -49 37 -35 49 52 47 43 55 vhcurveto
          hintmask 1100101101000000
          48 -37 36 -49 vhcurveto
          -3 -40 rmoveto
          26 19 -22 -25 hvcurveto
          hintmask 1101101101000000
          -32 -24 -23 -28 -26 -19 22 25 vhcurveto
          hintmask 1100101101000000
          32 23 23 29 vhcurveto
          -48 -159 rmoveto
          -98 -105 -114 -241 -135 56 -60 77 hvcurveto
          hintmask 1010101110000000
          47 36 26 57 38 hvcurveto
          -59 1 29 -24 42 hhcurveto
          26 20 9 7 10 hvcurveto
          8 57 rlineto
          -32 hlineto
          -13 -11 8 20 12 61 425 0 hvcurveto
          -65 hlineto
          hintmask 1100101110000000
          -18 -73 rlineto
          hintmask 1100101101000000
          65 -20 -41 20 -48 hhcurveto
          12 -73 rmoveto
          46 23 -38 -75 -80 -31 -211 -95 -49 -25 38 76 86 24 204 107 hvcurveto
          hintmask 1100111101000000
          198 418 rmoveto
          -91 hlineto
          -75 -116 rlineto
          69 hlineto
          98 113 rlineto
          endchar
        </CharString>
        <CharString name="arrowboth">
          496 216 73 hstem
          41 919 vstem
          787 426 rmoveto
          -43 hlineto
          40 -137 rlineto
          -551 hlineto
          73 137 rlineto
          -43 hlineto
          -220 -163 -2 -21 173 -163 rlineto
          43 hlineto
          -35 137 rlineto
          551 hlineto
          -78 -137 rlineto
          43 hlineto
          220 163 2 21 rlineto
          endchar
        </CharString>
        <CharString name="arrowdown">
          -4 10 -21 hstem
          41 352 vstem
          352 710 rmoveto
          -74 hlineto
          -103 -737 -129 58 -5 -42 134 -197 rlineto
          22 hlineto
          190 197 6 42 -145 -58 rlineto
          endchar
        </CharString>
        <CharString name="arrowleft">
          496 216 73 hstem
          41 924 vstem
          306 426 rmoveto
          -43 hlineto
          -220 -163 -2 -21 173 -163 rlineto
          43 hlineto
          -40 137 rlineto
          738 hlineto
          10 73 rlineto
          -737 hlineto
          endchar
        </CharString>
        <CharString name="arrowright">
          496 216 73 hstem
          36 924 vstem
          787 426 rmoveto
          -43 hlineto
          40 -137 rlineto
          -738 hlineto
          -10 -73 rlineto
          737 hlineto
          -78 -137 rlineto
          43 hlineto
          220 163 2 21 rlineto
          endchar
        </CharString>
        <CharString name="arrowup">
          -4 -208 918 hstem
          108 352 vstem
          326 710 rmoveto
          -22 hlineto
          -190 -197 -6 -42 145 58 -104 -737 rlineto
          74 hlineto
          103 737 129 -58 5 42 rlineto
          endchar
        </CharString>
        <CharString name="arrowupdn">
          -4 12 -21 hstem
          40 419 vstem
          325 711 rmoveto
          -22 hlineto
          -190 -197 -6 -42 144 53 -77 -550 -129 58 -5 -42 134 -197 rlineto
          22 hlineto
          190 197 6 42 -145 -58 78 550 129 -53 5 42 rlineto
          endchar
        </CharString>
        <CharString name="arrowupdnbse">
          -4 -303 48 267 -21 hstem
          4 462 vstem
          332 711 rmoveto
          -22 hlineto
          -190 -197 -6 -42 144 53 -77 -550 -129 58 -6 -42 135 -197 rlineto
          22 hlineto
          190 197 6 42 -145 -58 77 550 129 -53 6 42 rlineto
          -106 -769 rmoveto
          -349 hlineto
          -7 -48 rlineto
          350 hlineto
          endchar
        </CharString>
        <CharString name="asciicircum">
          -119 609 77 0 -20 hstemhm
          9 379 hintmask 01100000
          306 686 rmoveto
          -107 hlineto
          -190 -392 rlineto
          89 hlineto
          hintmask 10100000
          143 315 57 -315 rlineto
          90 hlineto
          endchar
        </CharString>
        <CharString name="asciitilde">
          -25 223 92 -31 92 hstemhm
          22 434 hintmask 10100000
          328 315 rmoveto
          hintmask 01100000
          -64 -39 61 -62 hhcurveto
          -79 -49 -73 0 hvcurveto
          -13 -92 rlineto
          3 3 58 70 67 hhcurveto
          32 26 -15 -15 25 hvcurveto
          hintmask 10100000
          -16 26 25 -15 31 hhcurveto
          79 49 73 0 hvcurveto
          13 92 rlineto
          -4 -3 -58 -69 -67 hhcurveto
          endchar
        </CharString>
        <CharString name="asterisk">
          -185 686 -20 hstem
          65 277 vstem
          256 686 rmoveto
          -68 hlineto
          -3 -89 -67 52 -42 -58 77 -38 -88 -38 26 -59 81 52 -21 -89 rlineto
          68 hlineto
          3 89 67 -52 42 59 -76 38 87 38 -26 58 -81 -51 rlineto
          endchar
        </CharString>
        <CharString name="at">
          328 -154 55 121 65 368 66 122 55 hstem
          55 58 140 76 410 59 vstem
          583 22 rmoveto
          154 61 184 163 194 -51 135 -271 -259 -162 -174 -330 -247 132 -101 219 50 54 14 4 11 hvcurveto
          8 57 rlineto
          0 -42 -20 -90 -164 -120 74 221 329 164 118 216 118 71 -40 -78 33 vhcurveto
          18 -42 6 -54 -61 vvcurveto
          -96 -23 -80 -33 -50 vhcurveto
          -35 -24 -29 -20 -25 hhcurveto
          -23 -23 9 41 45 52 328 0 hvcurveto
          -58 hlineto
          -17 -66 rlineto
          59 -18 -37 18 -44 hhcurveto
          -89 -95 -103 -219 -123 51 -54 70 40 42 23 47 26 hvcurveto
          -24 7 24 -46 70 hhcurveto
          -135 433 rmoveto
          42 22 -35 -68 -72 -28 -192 -87 -44 -24 35 69 78 22 185 97 hvcurveto
          endchar
        </CharString>
        <CharString name="atilde">
          -48 -12 73 404 73 -12 -20 113 73 -42 73 hstemhm
          33 84 170 80 hintmask 11001100
          377 723 rmoveto
          hintmask 11010100
          -23 -5 -16 -8 -17 hhcurveto
          -20 -17 8 8 -18 hvcurveto
          hintmask 11001100
          7 -18 -18 8 -23 hhcurveto
          -29 -22 -14 -21 -16 hvcurveto
          hintmask 11010100
          -15 -20 -10 -26 -4 -23 rrcurveto
          58 hlineto
          hintmask 11001100
          23 6 15 8 18 hhcurveto
          hintmask 11010100
          40 28 -31 46 hhcurveto
          hintmask 11001110
          57 32 58 46 7 hvcurveto
          -200 -185 rmoveto
          -98 -105 -114 -241 -135 56 -60 77 47 36 26 57 38 hvcurveto
          -59 1 29 -24 42 hhcurveto
          26 20 9 7 10 hvcurveto
          8 57 rlineto
          -32 hlineto
          -13 -11 8 20 hvcurveto
          hintmask 10101110
          12 61 425 0 vhcurveto
          -65 hlineto
          hintmask 11001110
          -18 -73 rlineto
          65 -20 -41 20 -48 hhcurveto
          12 -73 rmoveto
          46 23 -38 -75 -80 -31 -211 -95 -49 -25 38 76 86 24 204 107 hvcurveto
          endchar
        </CharString>
        <CharString name="b">
          -48 -12 73 -40 -21 465 73 185 -20 hstemhm
          338 84 hintmask 10111000
          124 723 rmoveto
          hintmask 01111000
          -101 -723 rlineto
          65 hlineto
          hintmask 10111000
          18 73 rlineto
          -65 21 42 -20 50 hhcurveto
          98 105 114 241 135 -56 60 -77 -46 -35 -22 -50 -37 hvcurveto
          35 257 rlineto
          1 -662 rmoveto
          -49 -24 38 75 80 26 211 104 49 25 -38 -76 -86 -24 -204 -107 hvcurveto
          endchar
        </CharString>
        <CharString name="backslash">
          -276 -49 784 hstem
          49 179 vstem
          119 735 rmoveto
          -70 hlineto
          108 -784 rlineto
          71 hlineto
          endchar
        </CharString>
        <CharString name="bar">
          -291 -152 -21 896 -20 hstem
          67 79 vstem
          146 723 rmoveto
          -79 -896 79 hlineto
          endchar
        </CharString>
        <CharString name="braceleft">
          -230 -159 57 112 -21 257 37 10 37 348 57 hstemhm
          19.5 60 -28.5 78 -46 70 hintmask 11011010
          316 735 rmoveto
          -84 -75 -22 -126 -18 hvcurveto
          hintmask 11011100
          -28 -197 rlineto
          -45 -7 -43 -15 -36 hhcurveto
          hintmask 11111100
          -11 -84 rlineto
          hintmask 11111001
          33 36 -13 -38 -9 -29 -197 0 hvcurveto
          hintmask 11011010
          -2 -13 -1 -11 -11 vvcurveto
          -95 65 -18 75 vhcurveto
          8 57 rlineto
          -33 -37 10 46 hvcurveto
          hintmask 11111001
          34 24 132 82 vvcurveto
          51 -19 30 -55 vhcurveto
          1 10 rlineto
          hintmask 11011001
          65 26 40 68 12 hvcurveto
          12 70 15 67 9 69 rrcurveto
          59 8 46 12 35 hhcurveto
          endchar
        </CharString>
        <CharString name="braceright">
          -230 -159 57 348 37 10 37 348 57 hstemhm
          121 70 -46 78 -28.5 60 hintmask 11010100
          75 678 rmoveto
          33 37 -10 -46 hvcurveto
          hintmask 11111000
          -34 -24 -132 -82 vvcurveto
          -51 19 -30 55 vhcurveto
          -1 -10 rlineto
          hintmask 11011000
          -65 -26 -40 -68 -12 hvcurveto
          -12 -70 -15 -67 -9 -69 rrcurveto
          -59 -8 -46 -12 -35 hhcurveto
          -8 -57 rlineto
          84 75 22 126 18 hvcurveto
          hintmask 11010010
          28 197 rlineto
          45 7 43 15 36 hhcurveto
          hintmask 11110010
          11 84 rlineto
          hintmask 11111000
          -33 -36 13 38 9 29 197 0 hvcurveto
          hintmask 11010100
          2 13 1 11 11 vvcurveto
          95 -65 18 -75 vhcurveto
          endchar
        </CharString>
        <CharString name="bracketleft">
          -276 -161 65 766 65 hstem
          -13 283 vstem
          270 735 rmoveto
          -159 hlineto
          -124 -896 rlineto
          158 hlineto
          9 65 rlineto
          -83 hlineto
          107 766 rlineto
          83 hlineto
          endchar
        </CharString>
        <CharString name="bracketright">
          -276 -161 65 766 65 hstem
          -42 283 vstem
          241 735 rmoveto
          -159 hlineto
          -9 -65 rlineto
          83 hlineto
          -107 -766 rlineto
          -82 hlineto
          -9 -65 rlineto
          158 hlineto
          endchar
        </CharString>
        <CharString name="breve">
          -231 626 64 -64 97 hstemhm
          16 248 hintmask 01100000
          200 723 rmoveto
          hintmask 10100000
          -14 -4 -26 -19 -34 hhcurveto
          -16 -14 5 6 -9 hvcurveto
          hintmask 01100000
          -10 7 -5 8 -1 7 rrcurveto
          -64 hlineto
          -1 -3 0 -3 -3 vvcurveto
          hintmask 10100000
          -43 42 -45 74 37 32 13 19 23 vhcurveto
          hintmask 01100000
          23 18 14 25 3 22 rrcurveto
          endchar
        </CharString>
        <CharString name="brokenbar">
          -291 -152 -21 896 -20 hstem
          67 79 vstem
          146 723 rmoveto
          -79 -380 79 hlineto
          -136 vmoveto
          -79 -380 79 hlineto
          endchar
        </CharString>
        <CharString name="bullet">
          -217 232 223 hstem
          34 219 vstem
          143 455 rmoveto
          -60 -49 -50 -61 -61 49 -51 60 61 49 51 61 61 -49 50 -61 hvcurveto
          endchar
        </CharString>
        <CharString name="c">
          -94 -12 73 404 73 hstem
          31 85 189 85 vstem
          240 538 rmoveto
          -171 -38 -204 -155 -131 62 -60 99 107 62 97 107 13 hvcurveto
          -82 hlineto
          -69 -8 -38 -62 -56 hhcurveto
          -48 -26 46 79 56 14 223 110 44 21 -40 -77 hvcurveto
          -17 85 18 vlineto
          129 -52 60 -98 vhcurveto
          endchar
        </CharString>
        <CharString name="cacute">
          -94 -12 73 404 73 53 132 hstem
          31 85 189 85 vstem
          240 538 rmoveto
          -171 -38 -204 -155 -131 62 -60 99 107 62 97 107 13 hvcurveto
          -82 hlineto
          -69 -8 -38 -62 -56 hhcurveto
          -48 -26 46 79 56 14 223 110 44 21 -40 -77 hvcurveto
          -17 85 18 vlineto
          129 -52 60 -98 vhcurveto
          142 185 rmoveto
          -90 hlineto
          -86 -132 rlineto
          69 hlineto
          108 129 rlineto
          endchar
        </CharString>
        <CharString name="caron">
          -231 588 135 hstem
          94 249 vstem
          343 723 rmoveto
          -83 hlineto
          -53 -79 -33 79 rlineto
          -80 hlineto
          66 -135 rlineto
          78 hlineto
          endchar
        </CharString>
        <CharString name="ccaron">
          -94 -12 73 404 73 50 135 hstem
          31 85 189 85 vstem
          240 538 rmoveto
          -171 -38 -204 -155 -131 62 -60 99 107 62 97 107 13 hvcurveto
          -82 hlineto
          -69 -8 -38 -62 -56 hhcurveto
          -48 -26 46 79 56 14 223 110 44 21 -40 -77 hvcurveto
          -17 85 18 vlineto
          129 -52 60 -98 vhcurveto
          160 185 rmoveto
          -83 hlineto
          -53 -79 -33 79 rlineto
          -80 hlineto
          66 -135 rlineto
          78 hlineto
          endchar
        </CharString>
        <CharString name="ccedilla">
          -94 -182 57 -28 -21 97 41 50 -21 472 73 hstemhm
          31 85 73 76 40 85 hintmask 10011111
          305 331 rmoveto
          85 18 hlineto
          129 -52 60 -98 -171 -38 -204 -155 -109 43 -60 72 -17 vhcurveto
          hintmask 10111111
          -21 -70 rlineto
          33 hlineto
          22 9 -6 -12 -24 -16 -6 -24 hvcurveto
          -76 hlineto
          hintmask 01011111
          -7 -49 rlineto
          hintmask 10111111
          -5 23 32 -3 28 hhcurveto
          41 75 15 77 37 -34 14 -39 3 hvcurveto
          7 24 103 4 59 95 13 105 rlinecurve
          -82 hlineto
          -69 -8 -38 -62 -56 hhcurveto
          -48 -26 46 79 56 14 223 110 44 21 -40 -77 hvcurveto
          endchar
        </CharString>
        <CharString name="ccircumflex">
          -94 -12 73 404 73 50 135 -56 56 hstemhm
          31 85 189 85 hintmask 11101100
          240 538 rmoveto
          -171 -38 -204 -155 -131 62 -60 99 107 62 97 107 13 hvcurveto
          -82 hlineto
          -69 -8 -38 -62 -56 hhcurveto
          -48 -26 46 79 56 14 223 110 44 21 -40 -77 hvcurveto
          -17 85 18 vlineto
          129 -52 60 -98 vhcurveto
          73 185 rmoveto
          -78 hlineto
          -105 -135 rlineto
          83 hlineto
          hintmask 11011100
          56 79 rlineto
          hintmask 11101100
          33 -79 rlineto
          77 hlineto
          endchar
        </CharString>
        <CharString name="cdotaccent">
          -94 -12 73 404 73 90 95 hstem
          31 85 189 85 vstem
          240 538 rmoveto
          -171 -38 -204 -155 -131 62 -60 99 107 62 97 107 13 hvcurveto
          -82 hlineto
          -69 -8 -38 -62 -56 hhcurveto
          -48 -26 46 79 56 14 223 110 44 21 -40 -77 hvcurveto
          -17 85 18 vlineto
          129 -52 60 -98 vhcurveto
          81 185 rmoveto
          -87 hlineto
          -13 -95 rlineto
          87 hlineto
          endchar
        </CharString>
        <CharString name="cedilla">
          -231 -182 57 -28 -21 97 88 hstemhm
          146 76 hintmask 10110000
          163 11 rmoveto
          -55 hlineto
          -26 -88 rlineto
          33 hlineto
          22 9 -6 -12 -24 -16 -6 -24 hvcurveto
          -76 hlineto
          hintmask 01110000
          -7 -49 rlineto
          hintmask 10110000
          -5 23 32 -3 28 hhcurveto
          41 75 15 77 37 -34 14 -39 3 hvcurveto
          endchar
        </CharString>
        <CharString name="cent">
          -48 723 -20 hstem
          53 81 207 81 vstem
          320 723 rmoveto
          -49 hlineto
          -15 -106 rlineto
          -166 -8 -37 -199 -151 vvcurveto
          -113 47 -60 79 -15 vhcurveto
          -17 -119 rlineto
          49 hlineto
          16 116 105 5 61 95 13 104 rlinecurve
          -78 hlineto
          -7 -61 -34 -55 -49 -12 56 396 rcurveline
          31 -13 16 -38 -61 vvcurveto
          -17 81 18 vlineto
          112 -41 59 -77 14 vhcurveto
          -115 -469 rmoveto
          -36 14 -19 42 65 vvcurveto
          52 13 199 98 25 vhcurveto
          endchar
        </CharString>
        <CharString name="circumflex">
          -231 588 135 -56 56 hstemhm
          18 249 hintmask 10100000
          201 723 rmoveto
          -78 hlineto
          -105 -135 rlineto
          83 hlineto
          hintmask 01100000
          56 79 rlineto
          hintmask 10100000
          33 -79 rlineto
          77 hlineto
          endchar
        </CharString>
        <CharString name="colon">
          -276 0 108 310 108 hstem
          36 174 vstem
          210 526 rmoveto
          -100 hlineto
          -15 -108 rlineto
          100 hlineto
          -44 -310 rmoveto
          -100 hlineto
          -15 -108 rlineto
          100 hlineto
          endchar
        </CharString>
        <CharString name="comma">
          -276 0 108 hstem
          18 133 vstem
          151 108 rmoveto
          -100 hlineto
          -15 -108 rlineto
          33 hlineto
          -51 -124 rlineto
          55 hlineto
          64 133 rlineto
          endchar
        </CharString>
        <CharString name="commaaccent">
          -231 -151 91 hstem
          45 98 vstem
          143 -60 rmoveto
          -85 hlineto
          -13 -91 rlineto
          34 hlineto
          -32 -69 rlineto
          49 hlineto
          35 76 rlineto
          endchar
        </CharString>
        <CharString name="copyright">
          100 -12 47 104 52 315 52 93 47 hstem
          21 46 78 59 185 56 92 46 vstem
          302 698 rmoveto
          -175 -106 -139 -216 -216 106 -139 175 175 106 139 216 216 -106 139 -175 hvcurveto
          2 -140 rmoveto
          -105 -54 -69 -141 -140 54 -69 105 82 59 48 104 hvcurveto
          -56 hlineto
          -67 -34 -33 -51 -68 -32 48 95 vhcurveto
          30 vlineto
          95 32 47 68 50 33 -33 -68 vhcurveto
          58 hlineto
          103 -59 50 -82 vhcurveto
          -2 93 rmoveto
          146 89 -121 -187 -187 -89 -121 -146 -146 -89 121 187 187 89 121 146 hvcurveto
          endchar
        </CharString>
        <CharString name="currency">
          -48 96 69 355 69 hstem
          11 68 297 69 vstem
          228 589 rmoveto
          -54 -49 -22 -37 -38 hvcurveto
          -42 43 -48 -48 49 -49 rlineto
          -22 -39 -13 -46 -49 vvcurveto
          -50 13 -46 22 -38 vhcurveto
          -49 -49 48 -48 43 43 rlineto
          -36 38 48 -22 54 hhcurveto
          53 49 22 36 38 hvcurveto
          43 -43 48 48 -49 49 rlineto
          22 38 13 46 50 vvcurveto
          49 -13 46 -22 39 vhcurveto
          49 49 -48 48 -43 -43 rlineto
          37 -38 -49 22 -53 hhcurveto
          -69 vmoveto
          82 66 -79 -99 -98 -66 -79 -82 -83 -66 79 98 99 66 79 83 hvcurveto
          endchar
        </CharString>
        <CharString name="d">
          -48 -12 73 -61 61 404 73 185 -20 hstemhm
          34 84 176 65 hintmask 10111100
          460 723 rmoveto
          -82 hlineto
          -36 -255 rlineto
          50 -23 -38 20 -44 hhcurveto
          -98 -105 -114 -241 -135 56 -60 77 48 44 26 57 35 hvcurveto
          hintmask 01111100
          -71 65 vlineto
          -110 465 rmoveto
          49 24 -38 -75 hvcurveto
          hintmask 10111100
          -80 -26 -211 -104 -49 -25 38 76 vhcurveto
          hintmask 01111100
          86 24 204 107 vhcurveto
          endchar
        </CharString>
        <CharString name="dagger">
          -48 686 -20 hstem
          57 398 vstem
          331 686 rmoveto
          -88 hlineto
          -10 -193 -163 17 -13 -93 167 18 -105 -605 rlineto
          94 hlineto
          65 605 164 -18 13 93 -168 -17 rlineto
          endchar
        </CharString>
        <CharString name="daggerdbl">
          -48 686 -20 hstem
          180 98 vstem
          331 686 rmoveto
          -88 hlineto
          -10 -193 -163 17 -13 -93 167 18 -44 -175 rlineto
          0 -4 -132 -1 -47 vhcurveto
          -163 18 -12 -93 166 17 -44 -193 rlineto
          88 hlineto
          10 193 164 -17 13 93 -168 -18 45 179 rlineto
          0 4 136 39 hvcurveto
          164 -18 13 93 -168 -17 rlineto
          endchar
        </CharString>
        <CharString name="dcaron">
          8 -12 73 -61 61 404 73 40 108 -108 145 hstemhm
          34 84 176 65 hintmask 10101110
          460 723 rmoveto
          -82 hlineto
          -36 -255 rlineto
          50 -23 -38 20 -44 hhcurveto
          -98 -105 -114 -241 -135 56 -60 77 48 44 26 57 35 hvcurveto
          hintmask 01110110
          -71 65 vlineto
          -110 465 rmoveto
          49 24 -38 -75 hvcurveto
          hintmask 10110110
          -80 -26 -211 -104 -49 -25 38 76 vhcurveto
          hintmask 01110110
          86 24 204 107 vhcurveto
          hintmask 10110100
          367 221 rmoveto
          -100 hlineto
          -15 -108 rlineto
          33 hlineto
          -51 -124 rlineto
          55 hlineto
          64 133 rlineto
          endchar
        </CharString>
        <CharString name="dcroat">
          -51 -12 73 -61 61 404 73 45 68 -68 140 hstemhm
          34 84 176 65 14 82 hintmask 10101101
          496 583 rmoveto
          hintmask 10110101
          10 68 rlineto
          -56 hlineto
          hintmask 10101101
          10 72 rlineto
          -82 hlineto
          hintmask 10110101
          -10 -72 rlineto
          -115 hlineto
          hintmask 10101111
          -10 -68 rlineto
          115 hlineto
          -16 -115 rlineto
          50 -23 -38 20 -44 hhcurveto
          -98 -105 -114 -241 -135 56 -60 77 48 44 26 57 35 hvcurveto
          hintmask 01101111
          -71 65 vlineto
          hintmask 10101101
          81 583 rlineto
          -248 -522 rmoveto
          -49 -25 38 76 86 24 204 107 49 24 -38 -75 -80 -26 -211 -104 hvcurveto
          endchar
        </CharString>
        <CharString name="degree">
          -104 428 53 163 54 hstem
          75 53 163 54 vstem
          210 698 rmoveto
          -75 -60 -60 -75 -75 60 -60 75 75 60 60 75 75 -60 60 -75 hvcurveto
          -54 vmoveto
          45 36 -36 -45 -45 -36 -37 -45 -45 -37 37 45 45 37 36 45 hvcurveto
          endchar
        </CharString>
        <CharString name="dieresis">
          -231 628 95 hstem
          83 250 vstem
          333 723 rmoveto
          -87 hlineto
          -13 -95 rlineto
          87 hlineto
          -137 95 rmoveto
          -87 hlineto
          -13 -95 rlineto
          87 hlineto
          endchar
        </CharString>
        <CharString name="divide">
          45 51 90 72 84 72 91 hstem
          37 473 vstem
          510 297 rmoveto
          -462 hlineto
          -11 -84 rlineto
          462 hlineto
          -200 -72 rmoveto
          -84 hlineto
          -12 -90 rlineto
          84 hlineto
          57 409 rmoveto
          -84 hlineto
          -13 -91 rlineto
          84 hlineto
          endchar
        </CharString>
        <CharString name="dollar">
          -48 723 -20 hstemhm
          55 80 -31 81 133 81 -54 81 hintmask 10110000
          323 723 rmoveto
          -48 hlineto
          -15 -105 rlineto
          -103 -5 -53 -63 -80 vvcurveto
          -84 59 -33 55 -31 vhcurveto
          hintmask 11010000
          -25 -176 rlineto
          -34 12 -24 27 45 vvcurveto
          10 1 11 2 11 vhcurveto
          -81 hlineto
          -2 -11 0 -11 -10 vvcurveto
          -84 54 -59 74 -15 vhcurveto
          -17 -122 rlineto
          48 hlineto
          16 118 rlineto
          103 3 66 57 100 vvcurveto
          95 -66 31 -58 29 vhcurveto
          hintmask 10101000
          22 156 rlineto
          27 -11 21 -25 -50 vvcurveto
          81 hlineto
          75 -34 71 -85 16 vhcurveto
          hintmask 10110000
          -45 -319 rmoveto
          32 -20 24 -23 -38 vvcurveto
          -39 -31 -32 -47 -4 vhcurveto
          -10 269 rmoveto
          -26 17 -19 22 34 vvcurveto
          36 34 22 31 5 vhcurveto
          endchar
        </CharString>
        <CharString name="dotaccent">
          -231 628 95 hstem
          86 100 vstem
          186 723 rmoveto
          -87 hlineto
          -13 -95 rlineto
          87 hlineto
          endchar
        </CharString>
        <CharString name="dotlessi">
          -276 21 -21 526 -20 hstem
          38 155 vstem
          193 526 rmoveto
          -82 hlineto
          -73 -526 rlineto
          81 hlineto
          endchar
        </CharString>
        <CharString name="e">
          -48 -12 73 178 73 153 73 hstem
          35 85 215 85 vstem
          258 538 rmoveto
          -182 -41 -209 -150 -131 62 -60 108 112 66 88 102 16 hvcurveto
          -83 hlineto
          -63 -9 -43 -54 -59 hhcurveto
          -57 -28 41 84 13 1 19 2 21 hvcurveto
          289 hlineto
          6 38 2 38 34 vvcurveto
          129 -57 60 -105 vhcurveto
          -73 vmoveto
          51 26 -40 -77 -9 0 -14 -1 -13 hvcurveto
          -201 hlineto
          76 16 36 77 73 hhcurveto
          endchar
        </CharString>
        <CharString name="eacute">
          -48 -12 73 178 73 153 73 53 132 hstem
          35 85 215 85 vstem
          258 538 rmoveto
          -182 -41 -209 -150 -131 62 -60 108 112 66 88 102 16 hvcurveto
          -83 hlineto
          -63 -9 -43 -54 -59 hhcurveto
          -57 -28 41 84 13 1 19 2 21 hvcurveto
          289 hlineto
          6 38 2 38 34 vvcurveto
          129 -57 60 -105 vhcurveto
          -73 vmoveto
          51 26 -40 -77 -9 0 -14 -1 -13 hvcurveto
          -201 hlineto
          76 16 36 77 73 hhcurveto
          140 258 rmoveto
          -90 hlineto
          -86 -132 rlineto
          70 hlineto
          107 129 rlineto
          endchar
        </CharString>
        <CharString name="ebreve">
          -48 -12 73 178 73 153 73 88 64 -64 97 hstemhm
          35 85 215 85 hintmask 11110110
          258 538 rmoveto
          -182 -41 -209 -150 -131 62 -60 108 112 66 88 102 16 hvcurveto
          -83 hlineto
          -63 -9 -43 -54 -59 hhcurveto
          -57 -28 41 84 13 1 19 2 21 hvcurveto
          289 hlineto
          6 38 2 38 34 vvcurveto
          129 -57 60 -105 vhcurveto
          -73 vmoveto
          51 26 -40 -77 -9 0 -14 -1 -13 hvcurveto
          -201 hlineto
          76 16 36 77 73 hhcurveto
          hintmask 11101110
          95 258 rmoveto
          hintmask 11110110
          -14 -4 -26 -19 -34 hhcurveto
          -16 -14 5 6 -9 hvcurveto
          hintmask 11101110
          -10 7 -5 8 -1 7 rrcurveto
          -64 hlineto
          -1 -3 0 -3 -3 vvcurveto
          hintmask 11110110
          -43 42 -45 74 37 32 13 19 23 vhcurveto
          hintmask 11101110
          23 18 14 25 3 22 rrcurveto
          endchar
        </CharString>
        <CharString name="ecaron">
          -48 -12 73 178 73 153 73 50 135 hstem
          35 85 215 85 vstem
          258 538 rmoveto
          -182 -41 -209 -150 -131 62 -60 108 112 66 88 102 16 hvcurveto
          -83 hlineto
          -63 -9 -43 -54 -59 hhcurveto
          -57 -28 41 84 13 1 19 2 21 hvcurveto
          289 hlineto
          6 38 2 38 34 vvcurveto
          129 -57 60 -105 vhcurveto
          -73 vmoveto
          51 26 -40 -77 -9 0 -14 -1 -13 hvcurveto
          -201 hlineto
          76 16 36 77 73 hhcurveto
          158 258 rmoveto
          -83 hlineto
          -53 -79 -33 79 rlineto
          -80 hlineto
          66 -135 rlineto
          78 hlineto
          endchar
        </CharString>
        <CharString name="ecircumflex">
          -48 -12 73 178 73 153 73 50 135 -56 56 hstemhm
          35 85 215 85 hintmask 11110110
          258 538 rmoveto
          -182 -41 -209 -150 -131 62 -60 108 112 66 88 102 16 hvcurveto
          -83 hlineto
          -63 -9 -43 -54 -59 hhcurveto
          -57 -28 41 84 13 1 19 2 21 hvcurveto
          289 hlineto
          6 38 2 38 34 vvcurveto
          129 -57 60 -105 vhcurveto
          -73 vmoveto
          51 26 -40 -77 -9 0 -14 -1 -13 hvcurveto
          -201 hlineto
          76 16 36 77 73 hhcurveto
          71 258 rmoveto
          -78 hlineto
          -105 -135 rlineto
          83 hlineto
          hintmask 11101110
          56 79 rlineto
          hintmask 11110110
          33 -79 rlineto
          77 hlineto
          endchar
        </CharString>
        <CharString name="edieresis">
          -48 -12 73 178 73 153 73 90 95 hstem
          35 85 215 85 vstem
          258 538 rmoveto
          -182 -41 -209 -150 -131 62 -60 108 112 66 88 102 16 hvcurveto
          -83 hlineto
          -63 -9 -43 -54 -59 hhcurveto
          -57 -28 41 84 13 1 19 2 21 hvcurveto
          289 hlineto
          6 38 2 38 34 vvcurveto
          129 -57 60 -105 vhcurveto
          -73 vmoveto
          51 26 -40 -77 -9 0 -14 -1 -13 hvcurveto
          -201 hlineto
          76 16 36 77 73 hhcurveto
          155 258 rmoveto
          -87 hlineto
          -13 -95 rlineto
          87 hlineto
          -137 95 rmoveto
          -87 hlineto
          -13 -95 rlineto
          87 hlineto
          endchar
        </CharString>
        <CharString name="edotaccent">
          -48 -12 73 178 73 153 73 90 95 hstem
          35 85 215 85 vstem
          258 538 rmoveto
          -182 -41 -209 -150 -131 62 -60 108 112 66 88 102 16 hvcurveto
          -83 hlineto
          -63 -9 -43 -54 -59 hhcurveto
          -57 -28 41 84 13 1 19 2 21 hvcurveto
          289 hlineto
          6 38 2 38 34 vvcurveto
          129 -57 60 -105 vhcurveto
          -73 vmoveto
          51 26 -40 -77 -9 0 -14 -1 -13 hvcurveto
          -201 hlineto
          76 16 36 77 73 hhcurveto
          79 258 rmoveto
          -87 hlineto
          -13 -95 rlineto
          87 hlineto
          endchar
        </CharString>
        <CharString name="egrave">
          -48 -12 73 178 73 153 73 53 132 hstem
          35 85 215 85 vstem
          258 538 rmoveto
          -182 -41 -209 -150 -131 62 -60 108 112 66 88 102 16 hvcurveto
          -83 hlineto
          -63 -9 -43 -54 -59 hhcurveto
          -57 -28 41 84 13 1 19 2 21 hvcurveto
          289 hlineto
          6 38 2 38 34 vvcurveto
          129 -57 60 -105 vhcurveto
          -73 vmoveto
          51 26 -40 -77 -9 0 -14 -1 -13 hvcurveto
          -201 hlineto
          76 16 36 77 73 hhcurveto
          9 258 rmoveto
          -90 hlineto
          -2 -3 90 -129 rlineto
          69 hlineto
          endchar
        </CharString>
        <CharString name="eight">
          -48 -12 73 253 73 238 73 hstemhm
          26 85 -26 82 156 84 -51 82 hintmask 11101010
          283 698 rmoveto
          -125 -73 -106 -120 -50 18 -43 37 -27 hvcurveto
          hintmask 11110100
          -81 -37 -33 -86 -83 vvcurveto
          -90 48 -68 120 145 68 111 126 56 -20 45 -48 26 vhcurveto
          hintmask 11110010
          63 38 36 74 78 vvcurveto
          hintmask 11101010
          88 -50 68 -105 vhcurveto
          hintmask 11110100
          -49 -384 rmoveto
          59 30 -36 -60 -95 -50 -62 -74 -59 -29 36 60 86 43 71 80 hvcurveto
          hintmask 11101010
          44 311 rmoveto
          48 30 -34 -57 -90 -50 -57 -61 -49 -29 34 58 74 40 72 71 hvcurveto
          endchar
        </CharString>
        <CharString name="ellipsis">
          316 0 108 hstem
          65 660 vstem
          725 108 rmoveto
          -100 hlineto
          -15 -108 rlineto
          100 hlineto
          -530 108 rmoveto
          -100 hlineto
          -15 -108 rlineto
          100 hlineto
          288 108 rmoveto
          -100 hlineto
          -15 -108 rlineto
          100 hlineto
          endchar
        </CharString>
        <CharString name="emacron">
          -48 -12 73 178 73 153 73 61 72 hstem
          35 85 215 85 vstem
          258 538 rmoveto
          -182 -41 -209 -150 -131 62 -60 108 112 66 88 102 16 hvcurveto
          -83 hlineto
          -63 -9 -43 -54 -59 hhcurveto
          -57 -28 41 84 13 1 19 2 21 hvcurveto
          289 hlineto
          6 38 2 38 34 vvcurveto
          129 -57 60 -105 vhcurveto
          -73 vmoveto
          51 26 -40 -77 -9 0 -14 -1 -13 hvcurveto
          -201 hlineto
          76 16 36 77 73 hhcurveto
          150 206 rmoveto
          -250 hlineto
          -11 -72 rlineto
          250 hlineto
          endchar
        </CharString>
        <CharString name="emdash">
          316 233 75 hstem
          -5 830 vstem
          825 308 rmoveto
          -820 hlineto
          -10 -75 rlineto
          819 hlineto
          endchar
        </CharString>
        <CharString name="endash">
          -48 233 75 hstem
          -5 465 vstem
          460 308 rmoveto
          -455 hlineto
          -10 -75 rlineto
          454 hlineto
          endchar
        </CharString>
        <CharString name="eng">
          -48 -182 69 134 -21 465 73 -12 -20 hstemhm
          96 64 169 85 hintmask 11101100
          300 538 rmoveto
          -84 -41 -60 -30 -15 hvcurveto
          hintmask 11011100
          78 -64 vlineto
          -74 -526 rlineto
          82 hlineto
          41 294 rlineto
          hintmask 11101100
          101 14 44 70 67 hhcurveto
          39 20 -23 -45 -6 -62 -456 0 hvcurveto
          -31 -3 -18 -17 -31 hhcurveto
          -44 hlineto
          -8 -57 rlineto
          -6 16 27 -6 24 hhcurveto
          79 30 57 64 11 hvcurveto
          0 64 453 28 60 -27 58 -87 hvcurveto
          endchar
        </CharString>
        <CharString name="eogonek">
          -48 -185 65 108 73 178 73 153 73 hstem
          35 85 41 82 92 85 vstem
          412 239 rmoveto
          6 38 2 38 34 vvcurveto
          129 -57 60 -105 -182 -41 -209 -150 -130 61 -60 105 -1 vhcurveto
          -22 -24 -18 -28 -42 vvcurveto
          -61 41 -18 41 20 21 5 9 22 vhcurveto
          7 51 rlineto
          -32 hlineto
          -28 -10 19 23 33 24 33 17 17 hvcurveto
          64 30 39 68 12 75 rrcurveto
          -83 hlineto
          -63 -9 -43 -54 -59 hhcurveto
          -57 -28 41 84 13 1 19 2 21 hvcurveto
          10 73 rmoveto
          76 16 36 77 73 hhcurveto
          51 26 -40 -77 -9 0 -14 -1 -13 hvcurveto
          endchar
        </CharString>
        <CharString name="equal">
          -25 106 83 129 84 hstem
          22 433 vstem
          455 402 rmoveto
          -392 hlineto
          -12 -84 rlineto
          392 hlineto
          -18 -129 rmoveto
          -392 hlineto
          -11 -83 rlineto
          392 hlineto
          endchar
        </CharString>
        <CharString name="equivalence">
          -26 7 83 129 84 129 84 hstem
          7 463 vstem
          470 516 rmoveto
          -392 hlineto
          -12 -84 rlineto
          392 hlineto
          -48 -342 rmoveto
          -392 hlineto
          -11 -83 rlineto
          392 hlineto
          41 296 rmoveto
          -392 hlineto
          -11 -84 rlineto
          392 hlineto
          endchar
        </CharString>
        <CharString name="estimated">
          96 -12 42 218 42 206 42 hstem
          45 108 298 108 vstem
          302 538 rmoveto
          -160 -97 -116 -159 -159 97 -116 160 104 78 50 80 42 hvcurveto
          -34 21 rlineto
          -67 -34 -68 -42 -88 hhcurveto
          -62 -50 19 34 -37 hvcurveto
          165 406 5 vlineto
          165 -98 120 -159 vhcurveto
          -42 vmoveto
          61 50 -20 -35 38 hvcurveto
          -151 -298 152 vlineto
          34 37 50 20 62 hhcurveto
          endchar
        </CharString>
        <CharString name="eth">
          -48 -12 73 404 73 -12 -20 99 58 -58 118 -101.5 63.5 -19 57 hstemhm
          35 85 219 85 hintmask 1100100110000000
          186 723 rmoveto
          -2 -4 rlineto
          hintmask 1100001110000000
          14 -18 13 -18 12 -17 rrcurveto
          hintmask 1101000110000000
          -72 -6 rlineto
          hintmask 1010100110000000
          -8 -60 119 10 17 -28 16 -27 11 -29 rlinecurve
          hintmask 1100010110000000
          7 -17 -19 5 -22 hhcurveto
          -104 -109 -105 -256 -129 58 -60 109 126 96 113 250 104 -28 87 -46 76 hvcurveto
          72 7 9 60 -119 -11 rlineto
          hintmask 1100100110000000
          -11 17 -14 16 -13 16 rrcurveto
          -16 -258 rmoveto
          54 27 -40 -77 -71 -16 -216 -122 -57 -24 41 84 69 17 210 121 hvcurveto
          endchar
        </CharString>
        <CharString name="exclam">
          -276 0 108 578 -20 hstem
          38 203 vstem
          128 686 rmoveto
          -14 -171 -18 -173 -16 -171 rrcurveto
          62 hlineto
          35 181 51 277 13 57 rrcurveto
          -88 -578 rmoveto
          -100 hlineto
          -15 -108 rlineto
          100 hlineto
          endchar
        </CharString>
        <CharString name="exclamdbl">
          -48 0 108 578 -20 hstem
          38 418 vstem
          343 686 rmoveto
          -14 -171 -18 -173 -16 -171 rrcurveto
          62 hlineto
          35 181 51 277 13 57 rrcurveto
          -303 -578 rmoveto
          -100 hlineto
          -15 -108 rlineto
          100 hlineto
          230 108 rmoveto
          -100 hlineto
          -15 -108 rlineto
          100 hlineto
          -225 686 rmoveto
          -14 -171 -18 -173 -16 -171 rrcurveto
          62 hlineto
          35 181 51 277 13 57 rrcurveto
          endchar
        </CharString>
        <CharString name="exclamdown">
          -231 418 108 hstem
          47 204 vstem
          145 355 rmoveto
          -32 -171 -32 -173 -34 -171 rrcurveto
          113 hlineto
          3 57 27 277 17 181 rrcurveto
          44 171 rmoveto
          -100 hlineto
          -15 -108 rlineto
          100 hlineto
          endchar
        </CharString>
        <CharString name="f">
          -276 -182 69 566 73 136 69 hstem
          -89 383 vstem
          227 731 rmoveto
          -80 -33 -61 -60 -8 hvcurveto
          -12 -84 rlineto
          -46 hlineto
          -10 -73 rlineto
          46 hlineto
          -68 -518 rlineto
          -31 -4 -18 -17 -31 hhcurveto
          -44 hlineto
          -8 -57 rlineto
          -6 16 27 -6 24 hhcurveto
          79 33 61 60 8 hvcurveto
          68 514 rlineto
          91 hlineto
          10 73 rlineto
          -91 hlineto
          12 88 rlineto
          31 4 19 17 31 hhcurveto
          44 hlineto
          8 57 rlineto
          6 -16 -27 6 -24 hhcurveto
          endchar
        </CharString>
        <CharString name="five">
          -48 -12 72 312 74 156 84 hstem
          27 86 221 86 vstem
          452 686 rmoveto
          -312 hlineto
          -77 -380 76 -13 rlineto
          47 27 42 32 44 hhcurveto
          50 32 -39 -71 -137 -70 -65 -62 -52 -37 45 73 11 1 12 2 12 hvcurveto
          -85 hlineto
          -3 -17 -1 -17 -15 vvcurveto
          -111 66 -65 108 121 98 106 186 112 -59 54 -81 -57 -43 -31 -22 -24 vhcurveto
          43 209 rlineto
          241 hlineto
          endchar
        </CharString>
        <CharString name="fiveeighths">
          180 -12 58 128 57 41 58 20 58 84 57 73 64 12 -20 hstemhm
          37 65 110 65 118 64 -29 62 72 64 -44 62 hintmask 1101110111010000
          521 174 rmoveto
          29 14 -18 -30 -49 -23 -31 -38 -30 -14 18 31 41 23 38 39 hvcurveto
          hintmask 1101110110101000
          28 234 rmoveto
          -72 -47 -63 -72 -27 10 -25 18 -17 hvcurveto
          hintmask 1101110111010000
          -43 -27 -20 -45 -47 vvcurveto
          -54 29 -43 76 86 42 70 75 29 -11 24 -26 17 vhcurveto
          hintmask 1101110110101000
          35 26 20 40 43 vvcurveto
          54 -32 42 -65 vhcurveto
          -3 -58 rmoveto
          23 15 -17 -29 -46 -27 -27 -28 -23 -14 16 28 37 18 38 36 hvcurveto
          hintmask 1101101110101000
          92 348 rmoveto
          -62 hlineto
          -514 -710 rlineto
          63 hlineto
          hintmask 1111110110110000
          172 698 rmoveto
          -193 hlineto
          -46 -227 55 -10 rlineto
          26 17 21 17 22 hhcurveto
          24 15 -21 -37 -71 -36 -33 -29 -26 -19 21 36 5 0 6 1 6 hvcurveto
          -64 hlineto
          -1 -9 -1 -9 -9 vvcurveto
          -67 40 -38 66 74 60 64 110 69 -35 34 -49 -27 -22 -13 -14 -16 vhcurveto
          20 100 rlineto
          140 hlineto
          endchar
        </CharString>
        <CharString name="florin">
          -48 -182 69 515 73 187 69 hstem
          -4 454 vstem
          384 731 rmoveto
          -80 -34 -50 -71 -16 hvcurveto
          -30 -135 rlineto
          -71 hlineto
          -17 -73 rlineto
          71 hlineto
          -100 -467 rlineto
          -31 -4 -22 -17 -31 hhcurveto
          -44 hlineto
          -10 -57 rlineto
          -6 14 26 -6 24 hhcurveto
          80 35 50 71 15 hvcurveto
          99 463 rlineto
          91 hlineto
          17 73 rlineto
          -91 hlineto
          31 139 rlineto
          31 4 22 17 31 hhcurveto
          44 hlineto
          12 57 rlineto
          6 -16 -26 6 -24 hhcurveto
          endchar
        </CharString>
        <CharString name="four">
          -48 21 -21 169 73 456 -20 hstem
          11 426 vstem
          263 698 rmoveto
          -62 -156 -90 -168 -90 -131 -10 -74 rcurveline
          264 hlineto
          -24 -169 rlineto
          82 hlineto
          24 169 rlineto
          70 hlineto
          10 73 rlineto
          -70 hlineto
          50 354 rlineto
          -40 hlineto
          -20 -53 -14 -36 -27 -49 -31 -216 rcurveline
          -188 hlineto
          46 55 139 217 64 184 rrcurveto
          endchar
        </CharString>
        <CharString name="fraction">
          -367 9 -21 710 -20 hstem
          -211 576 vstem
          365 698 rmoveto
          -62 hlineto
          -514 -710 rlineto
          63 hlineto
          endchar
        </CharString>
        <CharString name="franc">
          0 21 -21 303 81 -13 93 142 80 hstemhm
          316 69 hintmask 10111000
          385 452 rmoveto
          -64 hlineto
          hintmask 11011000
          -10 -68 rlineto
          -134 hlineto
          30 222 rlineto
          249 hlineto
          12 80 rlineto
          -337 hlineto
          -97 -686 rlineto
          88 hlineto
          43 303 rlineto
          134 hlineto
          -43 -303 rlineto
          82 hlineto
          34 230 rlineto
          hintmask 10111000
          93 13 52 48 52 hhcurveto
          27 hlineto
          12 85 rlineto
          0 -16 8 -22 -60 -26 -56 -40 -19 vhcurveto
          endchar
        </CharString>
        <CharString name="g">
          -48 -182 72 118 73 384 73 -12 -20 hstemhm
          7 82 -52 84 hintmask 11100100
          250 465 rmoveto
          49 24 -38 -75 1 hvcurveto
          -74 -29 -197 -98 -49 -27 32 69 83 20 200 109 vhcurveto
          32 -440 rmoveto
          hintmask 11011000
          -92 -15 -34 -43 -65 hhcurveto
          -53 -26 29 57 hvcurveto
          -82 hlineto
          -84 50 -74 108 113 66 67 164 23 vhcurveto
          67 477 rlineto
          -65 hlineto
          hintmask 11100100
          -17 -73 rlineto
          65 -21 -42 20 -50 hhcurveto
          -98 -104 -108 -240 -89 35 -93 99 49 37 26 57 36 hvcurveto
          endchar
        </CharString>
        <CharString name="gbreve">
          -48 -182 72 118 73 384 73 -12 -20 120 64 -64 97 hstemhm
          7 82 -52 84 hintmask 11100101
          351 723 rmoveto
          hintmask 11101001
          -14 -4 -26 -19 -34 hhcurveto
          -16 -14 5 6 -9 hvcurveto
          hintmask 11100101
          -10 7 -5 8 -1 7 rrcurveto
          -64 hlineto
          -1 -3 0 -3 -3 vvcurveto
          hintmask 11101001
          -43 42 -45 74 37 32 13 19 23 vhcurveto
          hintmask 11100101
          23 18 14 25 3 22 rrcurveto
          -165 -258 rmoveto
          49 24 -38 -75 1 hvcurveto
          -74 -29 -197 -98 -49 -27 32 69 83 20 200 109 vhcurveto
          32 -440 rmoveto
          hintmask 11011010
          -92 -15 -34 -43 -65 hhcurveto
          -53 -26 29 57 hvcurveto
          -82 hlineto
          -84 50 -74 108 113 66 67 164 23 vhcurveto
          67 477 rlineto
          -65 hlineto
          hintmask 11101001
          -17 -73 rlineto
          65 -21 -42 20 -50 hhcurveto
          -98 -104 -108 -240 -89 35 -93 99 49 37 26 57 36 hvcurveto
          endchar
        </CharString>
        <CharString name="gcircumflex">
          -48 -182 72 118 73 384 73 -12 -20 82 135 -56 56 hstemhm
          7 82 -52 84 hintmask 11101001
          327 723 rmoveto
          -78 hlineto
          -105 -135 rlineto
          83 hlineto
          hintmask 11100101
          56 79 rlineto
          hintmask 11101001
          33 -79 rlineto
          77 hlineto
          -143 -123 rmoveto
          49 24 -38 -75 1 hvcurveto
          -74 -29 -197 -98 -49 -27 32 69 83 20 200 109 vhcurveto
          32 -440 rmoveto
          hintmask 11011010
          -92 -15 -34 -43 -65 hhcurveto
          -53 -26 29 57 hvcurveto
          -82 hlineto
          -84 50 -74 108 113 66 67 164 23 vhcurveto
          67 477 rlineto
          -65 hlineto
          hintmask 11101001
          -17 -73 rlineto
          65 -21 -42 20 -50 hhcurveto
          -98 -104 -108 -240 -89 35 -93 99 49 37 26 57 36 hvcurveto
          endchar
        </CharString>
        <CharString name="gcommaaccent">
          -48 -182 72 118 73 384 73 -12 -20 89 91 hstemhm
          7 82 -52 84 hintmask 11101010
          229 595 rmoveto
          85 hlineto
          13 91 rlineto
          -34 hlineto
          32 69 rlineto
          -49 hlineto
          -35 -76 rlineto
          9 -214 rmoveto
          49 24 -38 -75 1 hvcurveto
          -74 -29 -197 -98 -49 -27 32 69 83 20 200 109 vhcurveto
          32 -440 rmoveto
          hintmask 11011100
          -92 -15 -34 -43 -65 hhcurveto
          -53 -26 29 57 hvcurveto
          -82 hlineto
          -84 50 -74 108 113 66 67 164 23 vhcurveto
          67 477 rlineto
          -65 hlineto
          hintmask 11101010
          -17 -73 rlineto
          65 -21 -42 20 -50 hhcurveto
          -98 -104 -108 -240 -89 35 -93 99 49 37 26 57 36 hvcurveto
          endchar
        </CharString>
        <CharString name="gdotaccent">
          -48 -182 72 118 73 384 73 -12 -20 122 95 hstemhm
          7 82 -52 84 hintmask 11101010
          335 723 rmoveto
          -87 hlineto
          -13 -95 rlineto
          87 hlineto
          -72 -163 rmoveto
          49 24 -38 -75 1 hvcurveto
          -74 -29 -197 -98 -49 -27 32 69 83 20 200 109 vhcurveto
          32 -440 rmoveto
          hintmask 11011100
          -92 -15 -34 -43 -65 hhcurveto
          -53 -26 29 57 hvcurveto
          -82 hlineto
          -84 50 -74 108 113 66 67 164 23 vhcurveto
          67 477 rlineto
          -65 hlineto
          hintmask 11101010
          -17 -73 rlineto
          65 -21 -42 20 -50 hhcurveto
          -98 -104 -108 -240 -89 35 -93 99 49 37 26 57 36 hvcurveto
          endchar
        </CharString>
        <CharString name="germandbls">
          -3 0 74 276 73 239 73 hstemhm
          377 85 -59 85 hintmask 11101000
          314 735 rmoveto
          -109 -95 -63 -156 -21 hvcurveto
          -71 -516 rlineto
          81 hlineto
          73 518 rlineto
          95 13 53 49 71 hhcurveto
          62 32 -36 -57 -76 -59 -70 -71 hvcurveto
          -59 hlineto
          -10 -73 rlineto
          67 hlineto
          hintmask 11110000
          63 43 -50 -65 -87 -71 -74 -74 hvcurveto
          -67 hlineto
          -10 -74 rlineto
          85 hlineto
          126 96 121 119 68 -37 61 -56 22 hvcurveto
          4 vlineto
          hintmask 11101000
          71 26 48 82 77 vvcurveto
          98 -70 57 -104 vhcurveto
          endchar
        </CharString>
        <CharString name="grave">
          -231 591 132 hstem
          64 159 vstem
          156 723 rmoveto
          -90 hlineto
          -2 -3 90 -129 rlineto
          69 hlineto
          endchar
        </CharString>
        <CharString name="greater">
          -25 4 500 hstem
          8 435 vstem
          79 504 rmoveto
          -13 -90 289 -160 -334 -160 -13 -90 420 196 15 107 rlineto
          endchar
        </CharString>
        <CharString name="greaterequal">
          45 0 83 hstem
          35 450 vstem
          121 604 rmoveto
          -13 -90 289 -160 -334 -160 -12 -90 419 196 15 107 rlineto
          -46 -324 rmoveto
          -392 hlineto
          -12 -83 rlineto
          392 hlineto
          endchar
        </CharString>
        <CharString name="guillemotleft">
          -48 326 200 0 -20 hstemhm
          54 391 hintmask 01100000
          445 526 rmoveto
          -72 hlineto
          hintmask 10100000
          -168 -200 113 -200 rlineto
          70 hlineto
          -83 200 rlineto
          -11 200 rmoveto
          -73 hlineto
          -167 -200 112 -200 rlineto
          71 hlineto
          -84 200 rlineto
          endchar
        </CharString>
        <CharString name="guillemotright">
          -48 326 200 0 -20 hstemhm
          22 392 hintmask 01100000
          301 526 rmoveto
          -71 hlineto
          hintmask 10100000
          85 -200 -142 -200 rlineto
          73 hlineto
          168 200 rlineto
          -265 200 rmoveto
          -70 hlineto
          84 -200 -141 -200 rlineto
          72 hlineto
          169 200 rlineto
          endchar
        </CharString>
        <CharString name="guilsinglleft">
          -231 526 -20 hstem
          29 240 vstem
          269 526 rmoveto
          -73 hlineto
          -167 -200 112 -200 rlineto
          71 hlineto
          -84 200 rlineto
          endchar
        </CharString>
        <CharString name="guilsinglright">
          -231 526 -20 hstem
          21 241 vstem
          149 526 rmoveto
          -71 hlineto
          85 -200 -142 -200 rlineto
          73 hlineto
          168 200 rlineto
          endchar
        </CharString>
        <CharString name="h">
          -48 21 -21 465 73 185 -20 hstem
          329 84 vstem
          205 723 rmoveto
          -82 hlineto
          -101 -723 rlineto
          81 hlineto
          41 294 rlineto
          101 14 44 70 67 hhcurveto
          39 21 -19 -45 -32 -54 -369 0 hvcurveto
          82 hlineto
          0 56 388 32 60 -27 58 -87 -70 -40 -42 -31 -20 hvcurveto
          endchar
        </CharString>
        <CharString name="hbar">
          -48 21 -21 465 73 45 68 -68 140 hstemhm
          118 82 129 84 hintmask 11011100
          186 583 rmoveto
          114 hlineto
          hintmask 11101100
          10 68 rlineto
          -115 hlineto
          hintmask 11011100
          10 72 rlineto
          -82 hlineto
          hintmask 11101100
          -10 -72 rlineto
          -55 hlineto
          hintmask 11011100
          -11 -68 rlineto
          57 hlineto
          -82 -583 rlineto
          81 hlineto
          41 294 rlineto
          101 14 44 70 67 hhcurveto
          39 21 -19 -45 -32 -54 -369 0 hvcurveto
          82 hlineto
          0 56 388 32 60 -27 58 -87 -70 -40 -42 -31 -20 hvcurveto
          endchar
        </CharString>
        <CharString name="hcircumflex">
          -48 21 -21 465 73 185 -20 45 135 hstemhm
          329 84 hintmask 11101000
          205 723 rmoveto
          -82 hlineto
          -101 -723 rlineto
          81 hlineto
          41 294 rlineto
          101 14 44 70 67 hhcurveto
          39 21 -19 -45 -32 -54 -369 0 hvcurveto
          82 hlineto
          0 56 388 32 60 -27 58 -87 -70 -40 -42 -31 -20 hvcurveto
          hintmask 11111000
          53 418 rmoveto
          -78 hlineto
          -105 -135 rlineto
          83 hlineto
          56 79 32 -79 rlineto
          78 hlineto
          endchar
        </CharString>
        <CharString name="house">
          96 0 60 hstem
          35 494 vstem
          339 563 rmoveto
          -260 -253 -44 -310 rlineto
          450 hlineto
          44 310 rlineto
          -197 162 rmoveto
          131 -174 -33 -238 rlineto
          -323 hlineto
          32 225 rlineto
          endchar
        </CharString>
        <CharString name="hungarumlaut">
          -231 591 132 hstem
          4 283 vstem
          286 723 rmoveto
          -90 hlineto
          -62 -132 rlineto
          69 hlineto
          84 129 rlineto
          -131 3 rmoveto
          -90 hlineto
          -62 -132 rlineto
          69 hlineto
          84 129 rlineto
          endchar
        </CharString>
        <CharString name="hyphen">
          -231 221 98 hstem
          3 265 vstem
          268 319 rmoveto
          -252 hlineto
          -13 -98 rlineto
          252 hlineto
          endchar
        </CharString>
        <CharString name="i">
          -322 21 -21 526 -20 119 98 hstem
          16 182 vstem
          171 526 rmoveto
          -82 hlineto
          -73 -526 rlineto
          81 hlineto
          101 723 rmoveto
          -82 hlineto
          -13 -98 rlineto
          82 hlineto
          endchar
        </CharString>
        <CharString name="iacute">
          -276 21 -21 526 -20 85 132 hstem
          38 248 vstem
          193 526 rmoveto
          -82 hlineto
          -73 -526 rlineto
          81 hlineto
          166 723 rmoveto
          -91 hlineto
          -86 -132 rlineto
          70 hlineto
          108 129 rlineto
          endchar
        </CharString>
        <CharString name="ibreve">
          -276 21 -21 526 -20 120 64 -64 97 hstemhm
          38 265 hintmask 11101000
          193 526 rmoveto
          -82 hlineto
          -73 -526 rlineto
          81 hlineto
          hintmask 11011000
          120 723 rmoveto
          hintmask 11101000
          -14 -4 -26 -19 -34 hhcurveto
          -16 -14 5 6 -9 hvcurveto
          hintmask 11011000
          -10 7 -5 8 -1 7 rrcurveto
          -64 hlineto
          -1 -3 0 -3 -3 vvcurveto
          hintmask 11101000
          -43 42 -45 74 37 32 13 19 23 vhcurveto
          hintmask 11011000
          23 18 14 25 3 22 rrcurveto
          endchar
        </CharString>
        <CharString name="icircumflex">
          -276 21 -21 526 -20 82 135 -56 56 hstemhm
          32 249 hintmask 11101000
          193 526 rmoveto
          -82 hlineto
          -73 -526 rlineto
          81 hlineto
          96 723 rmoveto
          -78 hlineto
          -105 -135 rlineto
          83 hlineto
          hintmask 11011000
          56 79 rlineto
          hintmask 11101000
          33 -79 rlineto
          77 hlineto
          endchar
        </CharString>
        <CharString name="idieresis">
          -276 21 -21 526 -20 122 95 hstem
          38 261 vstem
          193 526 rmoveto
          -82 hlineto
          -73 -526 rlineto
          81 hlineto
          180 723 rmoveto
          -87 hlineto
          -13 -95 rlineto
          87 hlineto
          -137 95 rmoveto
          -87 hlineto
          -13 -95 rlineto
          87 hlineto
          endchar
        </CharString>
        <CharString name="igrave">
          -276 21 -21 526 -20 85 132 hstem
          38 183 vstem
          193 526 rmoveto
          -82 hlineto
          -73 -526 rlineto
          81 hlineto
          34 723 rmoveto
          -90 hlineto
          -1 -3 89 -129 rlineto
          70 hlineto
          endchar
        </CharString>
        <CharString name="ij">
          -140 -182 69 134 -21 526 -20 119 98 hstem
          16 364 vstem
          171 526 rmoveto
          -82 hlineto
          -73 -526 rlineto
          81 hlineto
          101 723 rmoveto
          -82 hlineto
          -13 -98 rlineto
          82 hlineto
          167 -99 rmoveto
          -82 hlineto
          -83 -591 rlineto
          -31 -3 -18 -17 -31 hhcurveto
          -44 hlineto
          -8 -57 rlineto
          -6 16 27 -6 24 hhcurveto
          79 32 61 60 9 hvcurveto
          110 784 rmoveto
          -82 hlineto
          -14 -98 rlineto
          82 hlineto
          endchar
        </CharString>
        <CharString name="imacron">
          -276 21 -21 526 -20 93 72 hstem
          33 261 vstem
          193 526 rmoveto
          -82 hlineto
          -73 -526 rlineto
          81 hlineto
          175 671 rmoveto
          -250 hlineto
          -11 -72 rlineto
          250 hlineto
          endchar
        </CharString>
        <CharString name="infinity">
          209 142 72 163 76 hstem
          44 75 472 75 vstem
          538 453 rmoveto
          -70 -55 -46 -51 -49 hvcurveto
          51 -38 -46 46 -74 hhcurveto
          -94 -68 -85 -97 -74 45 -55 83 70 55 45 51 50 hvcurveto
          -51 37 47 -45 75 hhcurveto
          95 65 84 99 72 -46 56 -82 hvcurveto
          -332 -76 rmoveto
          44 30 -36 -44 28 hvcurveto
          -46 -42 -39 -37 -45 hhcurveto
          -36 -27 30 39 50 43 44 44 hvcurveto
          322 hmoveto
          36 27 -31 -39 -51 -42 -42 -43 -45 -30 37 46 -30 hvcurveto
          44 43 39 36 45 hhcurveto
          endchar
        </CharString>
        <CharString name="integral">
          -230 -141 50 901 49 hstem
          -37 356 vstem
          319 859 rmoveto
          -86 -75 -18 -94 -13 hvcurveto
          -22 -154 -61 -626 0 vvcurveto
          -44 -6 -38 -14 -48 hhcurveto
          -7 -50 rlineto
          85 74 17 95 13 hvcurveto
          21 153 61 629 0 vvcurveto
          43 6 40 14 49 hhcurveto
          endchar
        </CharString>
        <CharString name="integralbt">
          100 -250 49 hstem
          109 299 vstem
          334 859 rmoveto
          -59 -481 -65 -522 0 vvcurveto
          -43 -6 -40 -14 -49 hhcurveto
          -6 -49 rlineto
          86 73 18 94 14 hvcurveto
          11 80 61 477 54 440 rrcurveto
          endchar
        </CharString>
        <CharString name="integraltp">
          100 810 49 hstem
          195 299 vstem
          494 859 rmoveto
          -87 -73 -18 -94 -13 hvcurveto
          -12 -80 -61 -477 -53 -440 rrcurveto
          74 hlineto
          59 481 65 522 0 vvcurveto
          43 6 40 14 49 hhcurveto
          endchar
        </CharString>
        <CharString name="intersection">
          218 21 -21 599 77 hstem
          569 80 vstem
          413 676 rmoveto
          -146 -130 -113 -153 -22 hvcurveto
          -58 -410 rlineto
          82 hlineto
          58 410 rlineto
          111 16 91 78 104 hhcurveto
          94 67 -65 -95 -18 -2 -1 -58 -420 hvcurveto
          82 hlineto
          58 423 0 2 23 vvcurveto
          133 -99 95 -137 vhcurveto
          endchar
        </CharString>
        <CharString name="iogonek">
          -322 -190 65 -51 51 -30 -21 197 -21 526 -20 122 95 hstemhm
          -4 82 hintmask 00111110
          223 723 rmoveto
          -87 hlineto
          -13 -95 rlineto
          87 hlineto
          -17 -102 rmoveto
          -82 hlineto
          -73 -526 rlineto
          16 hlineto
          hintmask 10011110
          -29 -26 -29 -33 -52 vvcurveto
          -61 41 -18 41 vhcurveto
          hintmask 00111110
          20 21 5 9 22 hvcurveto
          hintmask 01011110
          7 51 rlineto
          -32 hlineto
          -28 -10 19 23 33 24 33 17 17 hvcurveto
          endchar
        </CharString>
        <CharString name="itilde">
          -276 21 -21 526 -20 113 73 -42 73 hstemhm
          17 306 hintmask 11011000
          193 526 rmoveto
          -82 hlineto
          -73 -526 rlineto
          81 hlineto
          146 723 rmoveto
          hintmask 11101000
          -23 -6 -15 -8 -18 hhcurveto
          -20 -17 8 8 -18 hvcurveto
          hintmask 11011000
          7 -18 -18 8 -23 hhcurveto
          -29 -22 -14 -21 -16 hvcurveto
          hintmask 11101000
          -15 -20 -9 -26 -4 -23 rrcurveto
          57 hlineto
          hintmask 11011000
          23 6 15 8 18 hhcurveto
          hintmask 11101000
          40 29 -31 45 hhcurveto
          hintmask 11011000
          58 31 58 46 7 hvcurveto
          endchar
        </CharString>
        <CharString name="j">
          -322 -182 69 639 -20 119 98 hstem
          -99 297 vstem
          170 526 rmoveto
          -82 hlineto
          -83 -591 rlineto
          -31 -3 -18 -17 -31 hhcurveto
          -44 hlineto
          -8 -57 rlineto
          -6 16 27 -6 24 hhcurveto
          79 32 61 60 9 hvcurveto
          110 784 rmoveto
          -82 hlineto
          -14 -98 rlineto
          82 hlineto
          endchar
        </CharString>
        <CharString name="jcircumflex">
          -322 -182 69 639 -20 82 135 -56 56 hstemhm
          -99 366 hintmask 11101000
          170 526 rmoveto
          -82 hlineto
          -83 -591 rlineto
          -31 -3 -18 -17 -31 hhcurveto
          -44 hlineto
          -8 -57 rlineto
          -6 16 27 -6 24 hhcurveto
          79 32 61 60 9 hvcurveto
          113 784 rmoveto
          -78 hlineto
          -105 -135 rlineto
          83 hlineto
          hintmask 11011000
          56 79 rlineto
          hintmask 11101000
          33 -79 rlineto
          77 hlineto
          endchar
        </CharString>
        <CharString name="k">
          -94 21 -21 526 -20 217 -20 hstem
          19 417 vstem
          202 723 rmoveto
          -82 hlineto
          -101 -723 rlineto
          82 hlineto
          26 187 65 55 88 -242 rlineto
          90 hlineto
          -120 310 186 216 rlineto
          -98 hlineto
          -197 -234 rlineto
          endchar
        </CharString>
        <CharString name="kcommaaccent">
          -94 -151 91 81 -21 526 -20 217 -20 hstem
          19 417 vstem
          202 723 rmoveto
          -82 hlineto
          -101 -723 rlineto
          82 hlineto
          26 187 65 55 88 -242 rlineto
          90 hlineto
          -120 310 186 216 rlineto
          -98 hlineto
          -197 -234 rlineto
          76 -352 rmoveto
          -85 hlineto
          -13 -91 rlineto
          34 hlineto
          -32 -69 rlineto
          48 hlineto
          36 76 rlineto
          endchar
        </CharString>
        <CharString name="kgreenlandic">
          -94 21 -21 526 -20 hstem
          19 417 vstem
          92 526 rmoveto
          -73 -526 rlineto
          82 hlineto
          26 187 65 55 88 -242 rlineto
          90 hlineto
          -120 310 186 216 rlineto
          -98 hlineto
          -197 -234 33 234 rlineto
          endchar
        </CharString>
        <CharString name="l">
          -322 21 -21 723 -20 hstem
          16 182 vstem
          198 723 rmoveto
          -82 hlineto
          -100 -723 rlineto
          81 hlineto
          endchar
        </CharString>
        <CharString name="lacute">
          -322 21 -21 723 -20 48 132 hstemhm
          16 271 hintmask 11010000
          198 723 rmoveto
          -82 hlineto
          -100 -723 rlineto
          81 hlineto
          hintmask 11110000
          189 883 rmoveto
          -90 hlineto
          -86 -132 rlineto
          69 hlineto
          108 129 rlineto
          endchar
        </CharString>
        <CharString name="lcaron">
          -273 21 -21 578 108 -108 145 hstemhm
          16 305 hintmask 10110000
          198 723 rmoveto
          -82 hlineto
          -100 -723 rlineto
          81 hlineto
          hintmask 11010000
          224 686 rmoveto
          -99 hlineto
          -15 -108 rlineto
          33 hlineto
          -52 -124 rlineto
          56 hlineto
          64 133 rlineto
          endchar
        </CharString>
        <CharString name="lcommaaccent">
          -322 -151 91 81 -21 723 -20 hstem
          -8 206 vstem
          198 723 rmoveto
          -82 hlineto
          -100 -723 rlineto
          81 hlineto
          -7 -60 rmoveto
          -85 hlineto
          -13 -91 rlineto
          34 hlineto
          -31 -69 rlineto
          48 hlineto
          35 76 rlineto
          endchar
        </CharString>
        <CharString name="ldot">
          -235 21 -21 288 111 324 -20 hstem
          16 286 vstem
          198 723 rmoveto
          -82 hlineto
          -100 -723 rlineto
          81 hlineto
          205 399 rmoveto
          -101 hlineto
          -15 -111 rlineto
          101 hlineto
          endchar
        </CharString>
        <CharString name="less">
          -25 4 500 hstem
          36 435 vstem
          471 504 rmoveto
          -420 -197 -15 -107 364 -196 13 90 -288 160 333 160 rlineto
          endchar
        </CharString>
        <CharString name="lessequal">
          45 0 83 hstem
          36 476 vstem
          512 604 rmoveto
          -420 -197 -15 -107 365 -196 12 90 -288 160 333 160 rlineto
          -59 -431 rmoveto
          -392 hlineto
          -12 -83 rlineto
          392 hlineto
          endchar
        </CharString>
        <CharString name="lira">
          -48 0 79 151 71 50 72 202 73 hstem
          105.5 80 188.5 82 vstem
          309 698 rmoveto
          -97 -62 -61 -138 -20 hvcurveto
          -11 -76 rlineto
          -73 hlineto
          -10 -72 rlineto
          73 hlineto
          -7 -50 rlineto
          -73 hlineto
          -10 -71 rlineto
          73 hlineto
          -21 -151 rlineto
          -60 hlineto
          -12 -79 rlineto
          382 hlineto
          12 79 rlineto
          -249 hlineto
          27 151 rlineto
          136 hlineto
          10 71 rlineto
          -135 hlineto
          7 50 rlineto
          135 hlineto
          10 72 rlineto
          -134 hlineto
          15 92 rlineto
          76 12 30 34 51 hhcurveto
          43 23 -26 -56 -11 -1 -12 -5 -29 hvcurveto
          82 hlineto
          5 33 1 17 17 vvcurveto
          102 -57 38 -90 vhcurveto
          endchar
        </CharString>
        <CharString name="logicalnot">
          -25 360 93 hstem
          43 409 vstem
          452 453 rmoveto
          -396 hlineto
          -13 -93 rlineto
          312 hlineto
          -22 -163 rlineto
          84 hlineto
          endchar
        </CharString>
        <CharString name="longs">
          -322 -182 69 566 73 136 69 hstem
          -89 383 vstem
          227 731 rmoveto
          -80 -33 -61 -60 -8 hvcurveto
          -12 -84 rlineto
          -46 hlineto
          -10 -73 rlineto
          46 hlineto
          -68 -518 rlineto
          -31 -4 -18 -17 -31 hhcurveto
          -44 hlineto
          -8 -57 rlineto
          -6 16 27 -6 24 hhcurveto
          79 33 61 60 8 hvcurveto
          90 675 rlineto
          31 4 19 17 31 hhcurveto
          44 hlineto
          8 57 rlineto
          6 -16 -27 6 -24 hhcurveto
          endchar
        </CharString>
        <CharString name="lslash">
          -322 21 -21 723 -20 hstem
          -31 282 vstem
          239 396 rmoveto
          12 83 -98 -79 45 323 rlineto
          -82 hlineto
          -54 -395 -81 -64 -12 -81 81 64 -34 -247 rlineto
          81 hlineto
          45 319 rlineto
          endchar
        </CharString>
        <CharString name="m">
          179 21 -21 465 61 -61 73 hstemhm
          96 64 157 82 158 84 hintmask 10111100
          535 538 rmoveto
          -83 -39 -63 -29 -14 hvcurveto
          50 -7 -29 42 -68 hhcurveto
          -81 -40 -60 -30 -14 hvcurveto
          hintmask 11011100
          78 -64 vlineto
          -74 -526 rlineto
          82 hlineto
          41 294 rlineto
          hintmask 10111100
          101 14 42 70 64 hhcurveto
          32 20 -19 -45 -32 -54 -369 0 hvcurveto
          82 hlineto
          43 307 rlineto
          95 13 43 63 61 hhcurveto
          32 20 -19 -45 -32 -54 -369 0 hvcurveto
          82 hlineto
          0 56 388 32 60 -26 58 -80 hvcurveto
          endchar
        </CharString>
        <CharString name="macron">
          -231 599 72 hstem
          80 261 vstem
          341 671 rmoveto
          -250 hlineto
          -11 -72 rlineto
          250 hlineto
          endchar
        </CharString>
        <CharString name="minus">
          -25 213 84 hstem
          37 403 vstem
          440 297 rmoveto
          -392 hlineto
          -11 -84 rlineto
          392 hlineto
          endchar
        </CharString>
        <CharString name="minute">
          -347 526 160 hstem
          54 116 vstem
          169 686 rmoveto
          -90 hlineto
          -25 -160 rlineto
          69 hlineto
          47 157 rlineto
          endchar
        </CharString>
        <CharString name="mu">
          72 -152 -21 161 73 -43 -21 24 -21 526 -20 hstemhm
          367 64 hintmask 11001100
          505 526 rmoveto
          -82 hlineto
          -41 -294 rlineto
          -101 -14 -44 -70 -67 hhcurveto
          -39 -21 19 45 32 54 369 0 hvcurveto
          -82 hlineto
          -99 -699 rlineto
          82 hlineto
          hintmask 10101100
          23 170 rlineto
          hintmask 11001100
          -6 14 17 -3 21 hhcurveto
          84 41 59 30 15 hvcurveto
          hintmask 10011100
          -77 64 vlineto
          endchar
        </CharString>
        <CharString name="multiply">
          -25 45 421 hstem
          16 460 vstem
          255 314 rmoveto
          -133 152 -63 -59 131 -152 -174 -151 16 -20 16 -19 15 -20 rlinecurve
          175 150 43 -50 45 -50 44 -50 rlinecurve
          63 59 -132 151 175 152 -15 20 -16 19 -16 20 rlinecurve
          endchar
        </CharString>
        <CharString name="n">
          -48 21 -21 465 73 -12 -20 hstemhm
          96 64 170 84 hintmask 11011000
          300 538 rmoveto
          -84 -41 -60 -30 -15 hvcurveto
          hintmask 10111000
          78 -64 vlineto
          -74 -526 rlineto
          82 hlineto
          41 294 rlineto
          hintmask 11011000
          101 14 44 70 67 hhcurveto
          39 21 -19 -45 -32 -54 -369 0 hvcurveto
          82 hlineto
          0 56 388 32 60 -27 58 -87 hvcurveto
          endchar
        </CharString>
        <CharString name="nacute">
          -48 21 -21 465 73 -12 -20 85 132 hstemhm
          96 64 170 84 hintmask 11011100
          300 538 rmoveto
          -84 -41 -60 -30 -15 hvcurveto
          hintmask 10111100
          78 -64 vlineto
          -74 -526 rlineto
          82 hlineto
          41 294 rlineto
          hintmask 11011100
          101 14 44 70 67 hhcurveto
          39 21 -19 -45 -32 -54 -369 0 hvcurveto
          82 hlineto
          0 56 388 32 60 -27 58 -87 hvcurveto
          94 185 rmoveto
          -91 hlineto
          -86 -132 rlineto
          70 hlineto
          108 129 rlineto
          endchar
        </CharString>
        <CharString name="napostrophe">
          69 21 -21 465 73 -12 -20 88 91 hstemhm
          213 64 170 84 hintmask 11011100
          190 685 rmoveto
          -85 hlineto
          -13 -91 rlineto
          34 hlineto
          -31 -70 rlineto
          48 hlineto
          35 77 rlineto
          239 -63 rmoveto
          -84 -41 -60 -30 -15 hvcurveto
          hintmask 10111100
          78 -64 vlineto
          -74 -526 rlineto
          82 hlineto
          41 294 rlineto
          hintmask 11011100
          101 14 44 70 67 hhcurveto
          39 21 -19 -45 -32 -54 -369 0 hvcurveto
          82 hlineto
          0 56 388 32 60 -27 58 -87 hvcurveto
          endchar
        </CharString>
        <CharString name="ncaron">
          -48 21 -21 465 73 -12 -20 82 135 hstemhm
          96 64 170 84 hintmask 11011100
          300 538 rmoveto
          -84 -41 -60 -30 -15 hvcurveto
          hintmask 10111100
          78 -64 vlineto
          -74 -526 rlineto
          82 hlineto
          41 294 rlineto
          hintmask 11011100
          101 14 44 70 67 hhcurveto
          39 21 -19 -45 -32 -54 -369 0 hvcurveto
          82 hlineto
          0 56 388 32 60 -27 58 -87 hvcurveto
          111 185 rmoveto
          -83 hlineto
          -53 -79 -33 79 rlineto
          -79 hlineto
          66 -135 rlineto
          77 hlineto
          endchar
        </CharString>
        <CharString name="ncommaaccent">
          -48 -151 91 81 -21 465 73 -12 -20 hstemhm
          96 64 170 84 hintmask 11101100
          300 538 rmoveto
          -84 -41 -60 -30 -15 hvcurveto
          hintmask 11011100
          78 -64 vlineto
          -74 -526 rlineto
          82 hlineto
          41 294 rlineto
          hintmask 11101100
          101 14 44 70 67 hhcurveto
          39 21 -19 -45 -32 -54 -369 0 hvcurveto
          82 hlineto
          0 56 388 32 60 -27 58 -87 hvcurveto
          -80 -598 rmoveto
          -85 hlineto
          -13 -91 rlineto
          34 hlineto
          -31 -69 rlineto
          48 hlineto
          35 76 rlineto
          endchar
        </CharString>
        <CharString name="nine">
          -48 -12 73 194 72 298 73 hstemhm
          47 83 -64 85 207 82 hintmask 11101100
          275 698 rmoveto
          -111 -98 -107 -166 -98 45 -72 99 50 46 25 40 34 hvcurveto
          hintmask 11110100
          -159 -24 -35 -100 -86 hhcurveto
          -44 -21 36 65 15 2 16 2 18 hvcurveto
          -83 hlineto
          -3 -20 -1 -20 -18 vvcurveto
          -97 42 -68 102 119 81 89 286 39 vhcurveto
          7 48 3 42 36 vvcurveto
          hintmask 11101100
          156 -62 53 -103 vhcurveto
          5 -73 rmoveto
          55 23 -46 -63 -99 -46 -90 -79 -57 -25 47 63 72 34 116 95 hvcurveto
          endchar
        </CharString>
        <CharString name="notequal">
          45 106 83 129 84 hstem
          61 433 vstem
          457 484 rmoveto
          -61 hlineto
          -54 -82 rlineto
          -240 hlineto
          -12 -84 rlineto
          197 hlineto
          -83 -129 rlineto
          -132 hlineto
          -11 -83 rlineto
          90 hlineto
          -53 -81 rlineto
          61 hlineto
          53 81 rlineto
          241 hlineto
          11 83 rlineto
          -199 hlineto
          83 129 rlineto
          134 hlineto
          12 84 rlineto
          -91 hlineto
          endchar
        </CharString>
        <CharString name="ntilde">
          -48 21 -21 465 73 -12 -20 113 73 -42 73 hstemhm
          96 64 170 84 hintmask 11001110
          300 538 rmoveto
          -84 -41 -60 -30 -15 hvcurveto
          hintmask 10101110
          78 -64 vlineto
          -74 -526 rlineto
          82 hlineto
          41 294 rlineto
          hintmask 11001110
          101 14 44 70 67 hhcurveto
          39 21 -19 -45 -32 -54 -369 0 hvcurveto
          82 hlineto
          0 56 388 32 60 -27 58 -87 hvcurveto
          74 185 rmoveto
          hintmask 11010110
          -23 -6 -15 -8 -18 hhcurveto
          -20 -17 8 8 -18 hvcurveto
          hintmask 11001110
          7 -18 -18 8 -23 hhcurveto
          -29 -22 -14 -21 -16 hvcurveto
          hintmask 11010110
          -15 -20 -10 -26 -4 -23 rrcurveto
          58 hlineto
          hintmask 11001110
          23 6 15 8 18 hhcurveto
          hintmask 11010110
          40 29 -31 45 hhcurveto
          hintmask 11001110
          58 31 58 46 7 hvcurveto
          endchar
        </CharString>
        <CharString name="numbersign">
          -48 21 -21 179 76 155 76 210 -20 hstem
          17 434 vstem
          438 696 rmoveto
          -76 hlineto
          -47 -210 rlineto
          -90 hlineto
          47 210 rlineto
          -76 hlineto
          -47 -210 rlineto
          -93 -76 76 hlineto
          -34 -155 rlineto
          -81 -76 64 hlineto
          -40 -179 rlineto
          76 hlineto
          40 179 rlineto
          90 hlineto
          -40 -179 rlineto
          76 hlineto
          40 179 rlineto
          88 76 -71 hlineto
          34 155 rlineto
          77 76 -60 hlineto
          -93 -76 rmoveto
          -34 -155 rlineto
          -90 hlineto
          34 155 rlineto
          endchar
        </CharString>
        <CharString name="o">
          -48 -12 73 404 73 hstem
          33 85 219 85 vstem
          256 538 rmoveto
          -182 -41 -219 -144 -128 58 -59 108 182 41 217 144 129 -58 60 -108 hvcurveto
          -73 vmoveto
          54 27 -40 -77 -71 -16 -216 -122 -57 -24 41 84 69 17 210 121 hvcurveto
          endchar
        </CharString>
        <CharString name="oacute">
          -48 -12 73 404 73 53 132 hstem
          33 85 219 85 vstem
          256 538 rmoveto
          -182 -41 -219 -144 -128 58 -59 108 182 41 217 144 129 -58 60 -108 hvcurveto
          -73 vmoveto
          54 27 -40 -77 -71 -16 -216 -122 -57 -24 41 84 69 17 210 121 hvcurveto
          141 258 rmoveto
          -90 hlineto
          -86 -132 rlineto
          70 hlineto
          107 129 rlineto
          endchar
        </CharString>
        <CharString name="obreve">
          -48 -12 73 404 73 88 64 -64 97 hstemhm
          33 85 219 85 hintmask 11101100
          256 538 rmoveto
          -182 -41 -219 -144 -128 58 -59 108 182 41 217 144 129 -58 60 -108 hvcurveto
          -73 vmoveto
          54 27 -40 -77 -71 -16 -216 -122 -57 -24 41 84 69 17 210 121 hvcurveto
          hintmask 11011100
          96 258 rmoveto
          hintmask 11101100
          -14 -4 -26 -19 -34 hhcurveto
          -16 -14 5 6 -9 hvcurveto
          hintmask 11011100
          -10 7 -5 8 -1 7 rrcurveto
          -64 hlineto
          -1 -3 0 -3 -3 vvcurveto
          hintmask 11101100
          -43 42 -45 74 37 32 13 19 23 vhcurveto
          hintmask 11011100
          23 18 14 25 3 22 rrcurveto
          endchar
        </CharString>
        <CharString name="ocircumflex">
          -48 -12 73 404 73 50 135 -56 56 hstemhm
          33 85 219 85 hintmask 11101100
          256 538 rmoveto
          -182 -41 -219 -144 -128 58 -59 108 182 41 217 144 129 -58 60 -108 hvcurveto
          -73 vmoveto
          54 27 -40 -77 -71 -16 -216 -122 -57 -24 41 84 69 17 210 121 hvcurveto
          72 258 rmoveto
          -78 hlineto
          -105 -135 rlineto
          83 hlineto
          hintmask 11011100
          56 79 rlineto
          hintmask 11101100
          33 -79 rlineto
          77 hlineto
          endchar
        </CharString>
        <CharString name="odieresis">
          -48 -12 73 404 73 90 95 hstem
          33 85 219 85 vstem
          256 538 rmoveto
          -182 -41 -219 -144 -128 58 -59 108 182 41 217 144 129 -58 60 -108 hvcurveto
          -73 vmoveto
          54 27 -40 -77 -71 -16 -216 -122 -57 -24 41 84 69 17 210 121 hvcurveto
          156 258 rmoveto
          -87 hlineto
          -13 -95 rlineto
          87 hlineto
          -137 95 rmoveto
          -87 hlineto
          -13 -95 rlineto
          87 hlineto
          endchar
        </CharString>
        <CharString name="oe">
          270 -12 73 178 73 153 73 hstem
          46 85 219 76 215 85 vstem
          564 538 rmoveto
          -69 -49 -30 -46 -34 hvcurveto
          51 -26 -48 25 -69 hhcurveto
          -182 -41 -219 -144 -128 58 -59 108 69 48 31 47 34 hvcurveto
          -53 27 51 -25 70 hhcurveto
          112 66 88 102 16 hvcurveto
          -83 hlineto
          -63 -9 -43 -54 -59 hhcurveto
          -57 -28 41 84 13 1 19 2 21 hvcurveto
          289 hlineto
          6 38 2 38 34 vvcurveto
          129 -57 60 -105 vhcurveto
          -295 -73 rmoveto
          54 27 -40 -77 -71 -16 -216 -122 -57 -24 41 84 69 17 210 121 hvcurveto
          295 hmoveto
          51 26 -40 -77 -9 0 -14 -1 -13 hvcurveto
          -201 hlineto
          76 16 36 77 73 hhcurveto
          endchar
        </CharString>
        <CharString name="ogonek">
          -231 -182 65 hstem
          70 82 vstem
          188 12 rmoveto
          -55 hlineto
          -31 -27 -32 -33 -55 vvcurveto
          -61 41 -18 41 20 21 5 9 22 vhcurveto
          7 51 rlineto
          -32 hlineto
          -28 -10 19 23 33 24 33 17 17 hvcurveto
          endchar
        </CharString>
        <CharString name="ograve">
          -48 -12 73 404 73 53 132 hstem
          33 85 219 85 vstem
          256 538 rmoveto
          -182 -41 -219 -144 -128 58 -59 108 182 41 217 144 129 -58 60 -108 hvcurveto
          -73 vmoveto
          54 27 -40 -77 -71 -16 -216 -122 -57 -24 41 84 69 17 210 121 hvcurveto
          10 258 rmoveto
          -90 hlineto
          -2 -3 90 -129 rlineto
          69 hlineto
          endchar
        </CharString>
        <CharString name="ohungarumlaut">
          -48 -12 73 404 73 53 132 hstem
          33 85 219 85 vstem
          256 538 rmoveto
          -182 -41 -219 -144 -128 58 -59 108 182 41 217 144 129 -58 60 -108 hvcurveto
          -73 vmoveto
          54 27 -40 -77 -71 -16 -216 -122 -57 -24 41 84 69 17 210 121 hvcurveto
          169 258 rmoveto
          -90 hlineto
          -62 -132 rlineto
          69 hlineto
          84 129 rlineto
          -131 3 rmoveto
          -90 hlineto
          -62 -132 rlineto
          69 hlineto
          84 129 rlineto
          endchar
        </CharString>
        <CharString name="omacron">
          -48 -12 73 404 73 61 72 hstem
          33 85 219 85 vstem
          256 538 rmoveto
          -182 -41 -219 -144 -128 58 -59 108 182 41 217 144 129 -58 60 -108 hvcurveto
          -73 vmoveto
          54 27 -40 -77 -71 -16 -216 -122 -57 -24 41 84 69 17 210 121 hvcurveto
          151 206 rmoveto
          -250 hlineto
          -11 -72 rlineto
          250 hlineto
          endchar
        </CharString>
        <CharString name="one">
          -48 0 73 488 52 73 -20 hstem
          8 406 vstem
          350 686 rmoveto
          -32 hlineto
          -70 -38 -98 -29 -57 -6 -7 -52 rcurveline
          164 hlineto
          -68 -488 rlineto
          -163 hlineto
          -11 -73 rlineto
          395 hlineto
          11 73 rlineto
          -150 hlineto
          endchar
        </CharString>
        <CharString name="oneeighth">
          180 -12 58 128 57 53 58 8 58 192 43 43 -20 32 -20 hstemhm
          397 64 -29 62 72 64 -44 62 hintmask 1110101101000000
          523 174 rmoveto
          29 14 -18 -30 -49 -23 -31 -38 -30 -14 18 31 41 23 38 39 hvcurveto
          hintmask 1111101010100000
          28 234 rmoveto
          -72 -47 -63 -72 -27 10 -25 18 -17 hvcurveto
          hintmask 1110101101000000
          -43 -27 -20 -45 -47 vvcurveto
          -54 29 -43 76 86 42 70 75 29 -11 24 -26 17 vhcurveto
          hintmask 1111101010100000
          35 26 20 40 43 vvcurveto
          54 -32 42 -65 vhcurveto
          -3 -58 rmoveto
          23 15 -17 -29 hvcurveto
          hintmask 1110101010100000
          -46 -27 -27 -28 -23 -14 16 28 vhcurveto
          hintmask 1111101010100000
          37 18 38 36 vhcurveto
          hintmask 1110101010100000
          96 348 rmoveto
          -62 hlineto
          -514 -710 rlineto
          63 hlineto
          hintmask 1110110011000000
          97 698 rmoveto
          -29 hlineto
          -34 -21 -54 -18 -31 -4 -6 -43 rcurveline
          80 hlineto
          -37 -258 rlineto
          -79 hlineto
          -8 -58 rlineto
          214 hlineto
          8 58 rlineto
          -73 hlineto
          endchar
        </CharString>
        <CharString name="onehalf">
          180 0 63 -54 -21 296 58 12 59 187 43 43 -20 32 -20 hstemhm
          428 65 97 67 hintmask 1010101110000000
          641 698 rmoveto
          -62 hlineto
          hintmask 0110110110000000
          -514 -710 rlineto
          63 hlineto
          98 698 rmoveto
          -29 hlineto
          -34 -21 -54 -18 -31 -4 -6 -43 rcurveline
          80 hlineto
          -37 -258 rlineto
          -79 hlineto
          -8 -58 rlineto
          214 hlineto
          8 58 rlineto
          -73 hlineto
          hintmask 1011101110000000
          379 71 rmoveto
          -64 -63 -46 -110 -1 hvcurveto
          63 hlineto
          4 31 rlineto
          36 5 17 30 34 hhcurveto
          30 9 -20 -20 -112 -185 -59 -16 -127 hvcurveto
          -3 -16 rlineto
          227 hlineto
          9 63 rlineto
          -146 hlineto
          16 27 25 22 22 21 rrcurveto
          57 52 61 63 74 vvcurveto
          65 -44 26 -57 vhcurveto
          endchar
        </CharString>
        <CharString name="onequarter">
          180 0 153 -144 -21 108 57 131 58 258 43 43 -20 32 -20 hstemhm
          29 627 hintmask 10011011
          656 698 rmoveto
          -62 hlineto
          hintmask 01111101
          -514 -710 rlineto
          63 hlineto
          84 698 rmoveto
          -29 hlineto
          -34 -21 -54 -18 -31 -4 -6 -43 rcurveline
          80 hlineto
          -37 -258 rlineto
          -79 hlineto
          -8 -58 rlineto
          214 hlineto
          8 58 rlineto
          -73 hlineto
          348 71 rmoveto
          -38 -92 -51 -97 -53 -76 -6 -52 rcurveline
          150 hlineto
          hintmask 10011011
          -14 -96 rlineto
          62 hlineto
          hintmask 00111011
          14 96 rlineto
          40 hlineto
          hintmask 10011011
          8 57 rlineto
          -40 hlineto
          28 202 rlineto
          -27 hlineto
          -13 -39 -25 -48 -12 -24 -13 -91 rcurveline
          -85 hlineto
          32 44 68 114 37 102 rrcurveto
          endchar
        </CharString>
        <CharString name="onesuperior">
          -231 322 58 258 43 43 -20 hstem
          53 222 vstem
          251 724 rmoveto
          -29 hlineto
          -34 -21 -54 -18 -31 -4 -6 -43 rcurveline
          80 hlineto
          -37 -258 rlineto
          -79 hlineto
          -8 -58 rlineto
          214 hlineto
          8 58 rlineto
          -73 hlineto
          endchar
        </CharString>
        <CharString name="ordfeminine">
          -201 362 54 266 54 -8 -20 hstemhm
          61 62 106 59 hintmask 11011000
          199 736 rmoveto
          -66 -72 -78 -163 -92 38 -41 53 30 23 18 38 24 hvcurveto
          -40 1 21 -16 32 hhcurveto
          18 13 6 5 7 hvcurveto
          5 39 rlineto
          -21 hlineto
          -9 -8 5 14 hvcurveto
          hintmask 10111000
          8 42 289 0 vhcurveto
          -29 hlineto
          hintmask 11011000
          -33 -50 rlineto
          44 -12 -26 14 -31 hhcurveto
          8 -54 rmoveto
          29 13 -24 -48 -54 -20 -140 -60 -31 -15 24 49 58 16 135 68 hvcurveto
          endchar
        </CharString>
        <CharString name="ordmasculine">
          -205 361 54 266 54 hstem
          58 63 139 63 vstem
          210 735 rmoveto
          -124 -28 -149 -98 -87 39 -40 74 124 28 148 97 88 -40 41 -73 hvcurveto
          -54 vmoveto
          33 17 -26 -49 -47 -10 -144 -79 -35 -15 27 54 46 10 139 79 hvcurveto
          endchar
        </CharString>
        <CharString name="orthogonal">
          475 0 79 hstem
          152 636 vstem
          323 625 rmoveto
          -84 hlineto
          -87 -625 rlineto
          625 hlineto
          11 79 rlineto
          -541 hlineto
          endchar
        </CharString>
        <CharString name="oslash">
          -3 -12 73 404 73 hstem
          56 85 219 85 vstem
          445 558 rmoveto
          -55 hlineto
          -23 -40 rlineto
          13 -24 -29 7 -35 hhcurveto
          -182 -41 -219 -144 -62 13 -46 26 -30 hvcurveto
          -39 -69 rlineto
          55 hlineto
          22 39 rlineto
          -13 24 30 -6 35 hhcurveto
          182 41 217 144 62 -14 46 -26 31 hvcurveto
          -50 -89 rmoveto
          3 -15 2 -17 -19 vvcurveto
          -71 -16 -216 -122 -21 -16 5 11 -12 vhcurveto
          106 388 rmoveto
          20 16 -6 -11 13 hvcurveto
          -182 -321 rlineto
          -3 17 -2 19 23 vvcurveto
          69 17 210 121 vhcurveto
          endchar
        </CharString>
        <CharString name="oslashacute">
          -3 -12 73 404 73 53 132 hstem
          56 85 219 85 vstem
          445 558 rmoveto
          -55 hlineto
          -23 -40 rlineto
          13 -24 -29 7 -35 hhcurveto
          -182 -41 -219 -144 -62 13 -46 26 -30 hvcurveto
          -39 -69 rlineto
          55 hlineto
          22 39 rlineto
          -13 24 30 -6 35 hhcurveto
          182 41 217 144 62 -14 46 -26 31 hvcurveto
          -50 -89 rmoveto
          3 -15 2 -17 -19 vvcurveto
          -71 -16 -216 -122 -21 -16 5 11 -12 vhcurveto
          106 388 rmoveto
          20 16 -6 -11 13 hvcurveto
          -182 -321 rlineto
          -3 17 -2 19 23 vvcurveto
          69 17 210 121 vhcurveto
          118 258 rmoveto
          -90 hlineto
          -86 -132 rlineto
          70 hlineto
          107 129 rlineto
          endchar
        </CharString>
</ttFont>
